
		<svg width="100%" height="100%" viewBox="0 0 48 48" fill="none" xmlns="http://www.w3.org/2000/svg">
			<path
				d="M22.8782 47.5116C19.9926 46.2599 17.1156 44.5253 14.7568 42.6143C13.1367 41.3023 10.3375 38.1771 9.22333 36.4368C7.42494 33.6295 6.04913 30.034 5.40494 26.4594C4.85622 23.4149 4.80078 22.0411 4.80078 11.4929V1.49345L7.00223 1.17958C12.7403 0.361063 18.0245 0 24.2539 0C30.4072 0 35.3283 0.323274 40.8094 1.08939C42.2061 1.28457 43.4325 1.44408 43.5352 1.44408C43.6978 1.44408 43.7159 2.97636 43.6683 12.5423C43.6094 24.6197 43.6141 24.5305 42.7936 28.0504C40.9549 35.9362 35.9806 42.1739 28.3146 46.203C26.415 47.2019 24.58 48.0081 24.2254 47.9999C24.097 47.9955 23.4913 47.7773 22.8782 47.5116Z"
				fill="#FFFFFF"/>
			<path
				d="M23.0354 45.3183C20.4415 44.1747 17.8553 42.5898 15.7349 40.8438C14.2785 39.645 11.7623 36.7895 10.7607 35.1995C9.14411 32.6344 7.90734 29.3493 7.32831 26.0833C6.83504 23.3015 6.78516 22.0464 6.78516 12.4086V3.27225L8.76415 2.98547C13.9221 2.2376 18.6723 1.90771 24.2721 1.90771C29.8034 1.90771 34.2271 2.20307 39.1542 2.90306C40.4097 3.0814 41.7695 3.21166 41.7695 3.21166C41.7695 3.21166 41.7669 4.62716 41.7241 13.3674C41.6711 24.4024 41.6754 24.3209 40.9379 27.537C39.2849 34.7421 34.8134 40.4414 27.9223 44.1227C26.2147 45.0354 24.5652 45.772 24.2464 45.7646C24.131 45.7606 23.5866 45.5611 23.0354 45.3183Z"
				fill="#0A080C"/>
			<path
				d="M10.7585 20.5063L8.80859 19.7759V28.5797C9.33307 30.1415 9.99474 31.6322 10.7585 32.9596V20.5063Z"
				fill="#FFFFFF"/>
			<path
				d="M14.5474 21.9267L12.5977 21.1963V35.5662C13.2085 36.3086 13.8961 37.0807 14.5474 37.7536V21.9267Z"
				fill="#FFFFFF"/>
			<path
				d="M17.9947 23.2183L16.0449 22.4878V39.1621C16.6592 39.6651 17.3128 40.1541 17.9947 40.6218V23.2183Z"
				fill="#FFFFFF"/>
			<path
				d="M28.8603 23.6274L25.3188 25.1765V25.1707L24.3889 25.4928L23.39 25.2059V25.2028L19.75 23.8442V41.6908C20.3874 42.0717 22.7068 43.2113 23.369 43.5466V43.5468C23.369 43.5468 23.369 43.5469 23.369 43.5471C23.369 43.5474 23.3734 43.5471 23.3734 43.5471V43.5468C23.8244 43.7365 24.2311 43.8828 24.3272 43.8862C24.4574 43.8892 24.8247 43.7592 25.3203 43.5475V43.5444C25.617 43.3947 27.5072 42.4385 27.813 42.2751C28.1697 42.0845 28.5183 41.8872 28.8616 41.6855L28.8603 23.6274Z"
				fill="#FFFFFF"/>
			<path
				d="M32.6452 22.1846L30.6953 22.9365V40.5276C31.3773 40.052 32.0268 39.5509 32.6452 39.0267V22.1846Z"
				fill="#FFFFFF"/>
			<path
				d="M36.0905 20.856L34.1406 21.6078V37.6491C34.8411 36.9483 35.4918 36.212 36.0905 35.4408V20.856Z"
				fill="#FFFFFF"/>
			<path
				d="M39.7117 19.46L37.7617 20.2118V32.9758C38.5464 31.6378 39.1983 30.2163 39.7117 28.7163V19.46Z"
				fill="#FFFFFF"/>
			<path
				d="M24.1623 21.2562L22.6328 20.3416L22.6601 18.5597L24.217 17.6924L25.7465 18.607L25.7192 20.3889L24.1623 21.2562Z"
				fill="#FFFFFF"/>
			<path
				d="M30.8928 18.4188L29.3633 17.5042L29.3906 15.7223L30.9474 14.855L32.477 15.7696L32.4497 17.5515L30.8928 18.4188Z"
				fill="#FFFFFF"/>
			<path
				d="M36.6155 16.1425L35.0859 15.2279L35.1132 13.4459L36.67 12.5786L38.1996 13.4932L38.1724 15.2752L36.6155 16.1425Z"
				fill="#FFFFFF"/>
			<path
				d="M17.9943 18.4188L19.5238 17.5042L19.4966 15.7223L17.9397 14.855L16.4102 15.7696L16.4374 17.5515L17.9943 18.4188Z"
				fill="#FFFFFF"/>
			<path
				d="M11.8361 16.1425L13.3657 15.2279L13.3384 13.4459L11.7815 12.5786L10.252 13.4932L10.2792 15.2752L11.8361 16.1425Z"
				fill="#FFFFFF"/>
			<path
				d="M24.1623 15.454L22.6328 14.5394L22.6601 12.7574L24.217 11.8901L25.7465 12.8047L25.7192 14.5867L24.1623 15.454Z"
				fill="#FFFFFF"/>
			<path
				d="M30.8928 12.6166L29.3633 11.702L29.3906 9.92005L30.9474 9.05273L32.477 9.96734L32.4497 11.7493L30.8928 12.6166Z"
				fill="#FFFFFF"/>
			<path
				d="M36.6155 10.3402L35.0859 9.42561L35.1132 7.64368L36.67 6.77637L38.1996 7.69097L38.1724 9.47291L36.6155 10.3402Z"
				fill="#FFFFFF"/>
			<path
				d="M17.9943 12.6166L19.5238 11.702L19.4966 9.92005L17.9397 9.05273L16.4102 9.96734L16.4374 11.7493L17.9943 12.6166Z"
				fill="#FFFFFF"/>
			<path
				d="M11.8361 10.3402L13.3657 9.42561L13.3384 7.64368L11.7815 6.77637L10.252 7.69097L10.2792 9.47291L11.8361 10.3402Z"
				fill="#FFFFFF"/>
			<path
				d="M24.1623 9.85877L22.6328 8.94417L22.6601 7.16223L24.217 6.29492L25.7465 7.20953L25.7192 8.99146L24.1623 9.85877Z"
				fill="#FFFFFF"/>
		</svg>
	