
		<svg width="100%" height="100%" viewBox="0 0 48 48" fill="none" xmlns="http://www.w3.org/2000/svg">
			<path
				d="M41.368 3.86458V30.7528C41.368 37.0463 40.4082 47.8013 23.684 47.9994C8.49325 48.09 6 37.7852 6 30.7528V3.86458L23.684 0L41.368 3.86458Z"
				fill="#FFFFFF"/>
			<path
				d="M40.2299 5.16074V30.3181C40.2299 36.2065 39.3319 46.2691 23.6843 46.4545C9.47142 46.5392 7.13867 36.8978 7.13867 30.3181V5.16074L23.6843 1.54492L40.2299 5.16074Z"
				fill="#0A080C"/>
			<path
				d="M24.5161 26.9611C24.5217 26.9635 24.5287 26.9714 24.537 26.9844C24.545 26.9973 24.5546 27.0154 24.565 27.0379C24.5858 27.083 24.6103 27.1458 24.6373 27.222C24.6642 27.2982 24.6934 27.3877 24.7234 27.4859C24.7533 27.5841 24.7839 27.691 24.8135 27.802L25.0292 28.6095L24.3111 29.0853C24.2124 29.1507 24.1169 29.2125 24.0292 29.2683C23.9415 29.324 23.8613 29.3737 23.7928 29.4148C23.7243 29.4559 23.6677 29.4886 23.6267 29.5101C23.6061 29.5208 23.5897 29.5287 23.5779 29.5338C23.5656 29.5386 23.5586 29.5407 23.5555 29.5389C23.5447 29.5326 23.4678 29.4708 23.3514 29.376C23.2349 29.2813 23.0794 29.1536 22.9129 29.0159C22.8296 28.9471 22.7495 28.8794 22.6758 28.816C22.6021 28.7525 22.5348 28.6934 22.4776 28.6416C22.4204 28.5899 22.3732 28.5455 22.3393 28.5116C22.3227 28.4949 22.3087 28.4805 22.2991 28.4693C22.2895 28.4582 22.2837 28.45 22.2816 28.4451C22.2784 28.4399 22.2808 28.4304 22.2839 28.4157C22.2854 28.4004 22.292 28.3816 22.2995 28.3583C22.314 28.3114 22.3366 28.2483 22.3652 28.1731C22.3943 28.0981 22.4293 28.011 22.4696 27.917C22.5079 27.8221 22.554 27.7215 22.6013 27.6172L22.9463 26.8593L23.6906 26.8936C23.7929 26.8984 23.8928 26.9036 23.9859 26.9094C24.079 26.9152 24.1651 26.9214 24.2399 26.9276C24.3147 26.9337 24.3783 26.9397 24.4259 26.9455C24.4733 26.9512 24.505 26.9567 24.5163 26.9613L24.5161 26.9611Z"
				fill="#FFFFFF"/>
			<path
				d="M26.8928 25.9064C26.8772 25.8819 26.861 25.8575 26.8443 25.8336C26.812 25.7852 26.7778 25.7379 26.7431 25.6914C26.7082 25.6449 26.6726 25.5993 26.6357 25.5546C26.5988 25.5099 26.561 25.4661 26.5222 25.4233C26.4833 25.3805 26.4436 25.3386 26.4029 25.2977C26.3622 25.2568 26.3209 25.2169 26.2784 25.1778C26.236 25.1388 26.1926 25.1008 26.1484 25.0638C26.1043 25.0268 26.0595 24.9908 26.0138 24.9557C25.968 24.9208 25.9215 24.8869 25.8743 24.854C25.8271 24.8211 25.7792 24.7892 25.7306 24.7584C25.682 24.7276 25.6328 24.6979 25.5829 24.6692C25.533 24.6406 25.4824 24.613 25.4313 24.5866C25.3803 24.5602 25.3286 24.5349 25.2764 24.5108C25.2243 24.4868 25.1715 24.4634 25.1182 24.4416C25.0649 24.4195 25.0113 24.399 24.9571 24.3794C24.9029 24.3597 24.8485 24.3416 24.7935 24.3245C24.7387 24.3075 24.6832 24.2913 24.6275 24.2766C24.5719 24.2619 24.5157 24.2483 24.4594 24.2361C24.403 24.2237 24.3465 24.2128 24.2896 24.2031C24.2328 24.1933 24.1757 24.1848 24.1184 24.1776C24.0611 24.1705 24.0035 24.1644 23.9459 24.1599C23.8882 24.1553 23.8305 24.1521 23.7726 24.1501C23.7148 24.1483 23.6566 24.1475 23.5985 24.1483C23.5404 24.1489 23.4823 24.1511 23.4242 24.1545C23.3662 24.1582 23.3079 24.1629 23.2498 24.1692C23.1915 24.1752 23.1335 24.1828 23.0756 24.1921C23.0178 24.2014 22.9597 24.2115 22.902 24.2236C22.8444 24.2357 22.7868 24.2491 22.7292 24.2638C22.6719 24.2788 22.6145 24.2948 22.5574 24.3126C22.4964 24.3317 22.4362 24.352 22.3768 24.3735C22.3175 24.3951 22.2593 24.4181 22.2018 24.4421C22.1443 24.4661 22.0875 24.4912 22.0318 24.5177C21.9761 24.5442 21.9212 24.5717 21.8674 24.6005C21.813 24.6284 21.7607 24.6595 21.7085 24.6899C21.6571 24.7219 21.6061 24.7538 21.5552 24.7855C21.507 24.8216 21.4563 24.8532 21.4079 24.8879C21.3603 24.9238 21.313 24.9596 21.2668 24.9966C21.2206 25.0335 21.1756 25.0719 21.1317 25.1111C21.0878 25.1503 21.0447 25.1903 21.0027 25.2311C20.9609 25.2722 20.9196 25.3135 20.8802 25.3568C20.8408 25.4 20.8019 25.4434 20.7643 25.4878C20.7269 25.5325 20.6905 25.5779 20.655 25.6238C20.6198 25.6701 20.5854 25.7171 20.5523 25.7648C20.5193 25.8128 20.4873 25.8611 20.4565 25.9102C20.4259 25.9596 20.3961 26.0093 20.3679 26.0601C20.3392 26.1104 20.3122 26.1621 20.2861 26.214C20.2589 26.2654 20.2344 26.3183 20.2126 26.3724C20.188 26.4254 20.1665 26.4796 20.1455 26.5342C20.1247 26.5891 20.1047 26.6438 20.0859 26.6993C20.0672 26.7548 20.0501 26.8112 20.0341 26.8679C20.0179 26.9244 20.0033 26.9817 19.9898 27.0394C19.9763 27.0971 19.9641 27.1551 19.9532 27.2137C19.9424 27.2722 19.9331 27.3312 19.9249 27.3906C19.9168 27.4499 19.9099 27.5099 19.9045 27.5701C19.899 27.63 19.8951 27.6907 19.8924 27.7516C19.8898 27.8126 19.8884 27.8735 19.8886 27.935C19.8888 27.9964 19.8902 28.0582 19.8932 28.1202C19.8961 28.1822 19.9006 28.2444 19.9065 28.3069C19.9124 28.3694 19.9197 28.432 19.9286 28.4949C19.9374 28.5578 19.9476 28.6208 19.9594 28.6839C19.9711 28.7471 19.9844 28.8106 19.9991 28.874C20.0152 28.9431 20.0331 29.0111 20.0527 29.0782C20.0723 29.1453 20.0937 29.2114 20.1166 29.2765C20.1397 29.3415 20.1644 29.4056 20.1907 29.4684C20.217 29.5314 20.2448 29.5934 20.2742 29.6542C20.3037 29.715 20.3348 29.7746 20.3673 29.8331C20.3997 29.8916 20.4336 29.9492 20.4692 30.0053C20.5046 30.0616 20.5417 30.1165 20.5796 30.1705C20.6179 30.2243 20.6573 30.2772 20.6981 30.3287C20.739 30.3801 20.7812 30.4305 20.8246 30.4795C20.868 30.5285 20.9126 30.5762 20.9584 30.6226C21.0043 30.6692 21.0513 30.7143 21.0994 30.7581C21.1476 30.802 21.1969 30.8446 21.2472 30.8857C21.2976 30.927 21.349 30.9667 21.4014 31.0052C21.4538 31.0436 21.5073 31.0808 21.5616 31.1165C21.616 31.1521 21.6713 31.1864 21.7275 31.2192C21.7836 31.252 21.8408 31.2834 21.8987 31.3133C21.9567 31.3432 22.0153 31.3717 22.0748 31.3986C22.1343 31.4256 22.1946 31.4509 22.2555 31.4748C22.3165 31.4987 22.3781 31.5211 22.4404 31.5419C22.5026 31.5627 22.5657 31.5818 22.6292 31.5994C22.6926 31.6169 22.7567 31.633 22.8213 31.6474C22.886 31.6618 22.9511 31.6746 23.0167 31.6857C23.0822 31.6966 23.1483 31.7062 23.2148 31.7139C23.2813 31.7218 23.3482 31.7277 23.4154 31.7321C23.4827 31.7365 23.5501 31.739 23.618 31.7399C23.6856 31.7404 23.754 31.7397 23.8223 31.737C23.8907 31.7344 23.9592 31.7299 24.0279 31.7236C24.0964 31.717 24.1655 31.7092 24.2344 31.6992C24.3031 31.6889 24.3724 31.6773 24.4415 31.6637C24.5109 31.6504 24.5798 31.6346 24.6489 31.6171C24.7178 31.5994 24.787 31.5802 24.856 31.5588C24.925 31.5375 24.9942 31.5144 25.0627 31.4888C25.1242 31.4658 25.1853 31.4423 25.2449 31.4162C25.3047 31.3907 25.3632 31.3632 25.4212 31.3349C25.4788 31.3061 25.5356 31.2761 25.5911 31.2444C25.648 31.2149 25.7021 31.1812 25.756 31.1476C25.8099 31.114 25.8608 31.0762 25.9134 31.0413C25.9642 31.0037 26.0151 30.9666 26.0641 30.9271C26.1135 30.8882 26.1613 30.8476 26.2078 30.8054C26.2545 30.7637 26.3004 30.721 26.3451 30.6772C26.3899 30.6337 26.4329 30.5883 26.4752 30.5426C26.5175 30.4967 26.5585 30.4498 26.5981 30.4016C26.6377 30.3536 26.6765 30.3048 26.7137 30.2549C26.7509 30.205 26.7869 30.154 26.8217 30.1026C26.8565 30.0507 26.8901 29.9984 26.9221 29.9451C26.9543 29.8917 26.985 29.8377 27.0147 29.783C27.0444 29.7284 27.0726 29.6726 27.0996 29.6165C27.1258 29.5601 27.1521 29.5034 27.1756 29.4456C27.1991 29.3878 27.2225 29.3299 27.2438 29.2712C27.2653 29.2126 27.2853 29.1532 27.3039 29.0935C27.3226 29.0338 27.3396 28.9734 27.3554 28.9128C27.3709 28.852 27.3852 28.791 27.3981 28.7296C27.411 28.6681 27.4223 28.6063 27.4321 28.5441C27.4422 28.4821 27.4503 28.4192 27.4571 28.3564C27.4642 28.2939 27.4693 28.2307 27.4731 28.1675C27.4767 28.1042 27.479 28.0408 27.4796 27.9772C27.4801 27.9136 27.4794 27.8499 27.4769 27.7861C27.4745 27.7223 27.4701 27.6584 27.4644 27.5944C27.4586 27.5305 27.4514 27.4667 27.4424 27.4028C27.4334 27.3388 27.4227 27.2748 27.4104 27.2111C27.3981 27.1473 27.3841 27.0836 27.3684 27.0201C27.3527 26.9565 27.3354 26.8932 27.3163 26.83C27.2972 26.7668 27.2762 26.7038 27.2537 26.6411C27.2311 26.5784 27.2069 26.516 27.1808 26.4539C27.1577 26.399 27.1333 26.345 27.1077 26.2917C27.0821 26.2384 27.0554 26.1859 27.0274 26.1342C26.9992 26.0827 26.9701 26.0318 26.9398 25.9818C26.9246 25.9569 26.9091 25.932 26.8934 25.9074L26.8928 25.9064ZM26.2871 25.7588C26.3029 25.7814 26.3163 25.8029 26.3267 25.8247C26.3372 25.8467 26.3452 25.8685 26.3503 25.8917C26.3553 25.9148 26.3575 25.9395 26.3573 25.967C26.3571 25.9946 26.3535 26.024 26.3476 26.0577C26.3417 26.0913 26.3327 26.1285 26.3211 26.1707C26.3097 26.2132 26.2953 26.2601 26.278 26.3133C26.2609 26.3667 26.2407 26.4259 26.2178 26.4925C26.108 26.8122 25.99 27.1465 25.9555 27.2354C25.9473 27.253 25.9431 27.2707 25.9397 27.2865C25.937 27.3031 25.9364 27.3187 25.9393 27.3349C25.9423 27.3514 25.9479 27.3674 25.9581 27.3852C25.9678 27.4031 25.982 27.4214 26.0007 27.4423C26.0195 27.4629 26.0428 27.4858 26.0717 27.5114C26.1007 27.5369 26.1351 27.5654 26.1758 27.5975C26.2571 27.6617 26.3635 27.7404 26.5008 27.8406C26.6378 27.9406 26.7446 28.0198 26.8277 28.086C26.8692 28.119 26.9048 28.1489 26.9354 28.1764C26.966 28.2037 26.9918 28.2289 27.0133 28.2527C27.0347 28.2763 27.0521 28.2989 27.066 28.3209C27.0799 28.3428 27.0902 28.3647 27.0988 28.3865C27.1071 28.4083 27.113 28.4313 27.117 28.4551C27.1212 28.4792 27.1239 28.5049 27.1257 28.5328C27.1268 28.5484 27.1261 28.5664 27.1243 28.5877C27.1225 28.6088 27.1191 28.6326 27.1145 28.6583C27.1055 28.7102 27.0917 28.7707 27.0743 28.8369C27.0569 28.9031 27.0357 28.9745 27.0121 29.0481C26.9886 29.1217 26.9625 29.1975 26.9352 29.272C26.908 29.3465 26.8797 29.4197 26.8513 29.4883C26.823 29.5571 26.7947 29.621 26.7674 29.677C26.7412 29.7334 26.7144 29.7811 26.691 29.8178C26.6793 29.836 26.6681 29.8516 26.6579 29.8641C26.6478 29.8765 26.638 29.8853 26.6295 29.8907C26.6247 29.8938 26.6138 29.8944 26.602 29.8996C26.5886 29.9021 26.5716 29.9054 26.5508 29.9077C26.5095 29.9128 26.4543 29.9172 26.3894 29.921C26.3243 29.9246 26.2495 29.9276 26.1687 29.9294C26.0878 29.9311 26.0011 29.932 25.9124 29.9314C25.7348 29.9303 25.5684 29.9325 25.4432 29.9369C25.3805 29.9389 25.3285 29.9419 25.2903 29.9451C25.2521 29.9482 25.2281 29.9517 25.2219 29.9556C25.218 29.9568 25.2139 29.9654 25.2082 29.9756C25.2028 29.9872 25.1956 30.0028 25.1867 30.022C25.1688 30.0604 25.1478 30.115 25.1227 30.1808C25.0975 30.2465 25.0693 30.3239 25.0393 30.4087C25.0093 30.4935 24.9775 30.5858 24.9456 30.6817L24.7139 31.3794L24.3837 31.4334C24.331 31.442 24.2724 31.4492 24.2098 31.4554C24.1474 31.4618 24.0806 31.4665 24.0117 31.4703C23.9428 31.4741 23.8716 31.4767 23.7998 31.4781C23.7279 31.4793 23.6556 31.4797 23.5845 31.4788C23.5133 31.478 23.4434 31.4759 23.3763 31.4728C23.3091 31.4695 23.245 31.4653 23.1855 31.4599C23.1261 31.4547 23.0711 31.4482 23.0227 31.4407C22.9744 31.4333 22.9323 31.4245 22.8984 31.4149C22.8737 31.4078 22.8519 31.4012 22.8319 31.3932C22.8119 31.3852 22.794 31.3762 22.7774 31.3656C22.7609 31.3546 22.7455 31.3415 22.7308 31.3248C22.7165 31.3081 22.7022 31.2885 22.688 31.2638C22.6739 31.2389 22.66 31.2102 22.645 31.1755C22.6301 31.1407 22.6146 31.1 22.5975 31.0525C22.5635 30.9574 22.5237 30.8345 22.4728 30.6742C22.4134 30.487 22.3564 30.3119 22.3123 30.1806C22.2683 30.0494 22.2373 29.962 22.2299 29.9502C22.2275 29.9461 22.2213 29.9442 22.21 29.9413C22.1987 29.9384 22.1829 29.9356 22.1629 29.9324C22.1233 29.9267 22.0677 29.9213 22.0003 29.9166C21.9328 29.9117 21.8538 29.9077 21.7668 29.9044C21.6797 29.9011 21.585 29.8988 21.4865 29.8975C21.3704 29.8961 21.2657 29.8918 21.1737 29.8849C21.1277 29.8815 21.0849 29.8774 21.0451 29.8726C21.0052 29.8676 20.9687 29.8626 20.9354 29.8565C20.9021 29.8505 20.8721 29.8437 20.8455 29.8365C20.8188 29.8293 20.7954 29.8214 20.7755 29.8129C20.7556 29.8047 20.7389 29.7953 20.726 29.7855C20.7129 29.7756 20.7036 29.7656 20.6979 29.7549C20.6799 29.7209 20.6607 29.6828 20.6416 29.6413C20.6225 29.5998 20.6033 29.5551 20.5841 29.5079C20.5456 29.4136 20.5074 29.3099 20.4722 29.2044C20.4369 29.0989 20.4047 28.9915 20.3779 28.8902C20.3646 28.8397 20.3526 28.7903 20.3422 28.7436C20.3317 28.6966 20.3231 28.6524 20.3164 28.6114C20.3099 28.5715 20.3045 28.5361 20.3006 28.5043C20.2966 28.4725 20.2942 28.4443 20.2938 28.4188C20.2936 28.3935 20.2952 28.3706 20.2993 28.3496C20.3034 28.3285 20.31 28.3092 20.3196 28.2907C20.3284 28.2718 20.342 28.2547 20.3579 28.2369C20.3739 28.2191 20.3935 28.2012 20.4172 28.1828C20.4399 28.1627 20.4682 28.144 20.5 28.1223C20.5302 28.0976 20.5668 28.0746 20.6085 28.0486C20.6568 28.0186 20.7092 27.9798 20.7665 27.9416C20.8222 27.9009 20.8822 27.8596 20.9402 27.8163C20.9982 27.773 21.0553 27.7295 21.1079 27.6878C21.1608 27.6466 21.2088 27.6068 21.2493 27.5726L21.5426 27.321L21.3263 26.6007C21.2965 26.5017 21.2688 26.4043 21.2442 26.313C21.2196 26.2216 21.1979 26.1363 21.1805 26.0616C21.1631 25.9869 21.1498 25.9228 21.1416 25.8738C21.1375 25.8491 21.1349 25.8288 21.1336 25.8123C21.1322 25.796 21.1323 25.7841 21.134 25.7768C21.1348 25.7679 21.1425 25.7586 21.1488 25.745C21.1578 25.7329 21.1688 25.7184 21.1827 25.7021C21.2106 25.67 21.2501 25.6327 21.297 25.5909C21.3443 25.5494 21.3988 25.5032 21.4579 25.4549C21.5174 25.4072 21.5815 25.3576 21.6475 25.3083C21.7134 25.259 21.781 25.2101 21.8478 25.1642C21.9137 25.1171 21.9795 25.0743 22.0406 25.0355C22.102 24.9973 22.1582 24.9622 22.2088 24.9367C22.2353 24.9261 22.2572 24.9126 22.2777 24.9023C22.2997 24.8946 22.3174 24.8851 22.3336 24.88C22.3535 24.8737 22.3732 24.8692 22.3939 24.8674C22.4145 24.8654 22.4354 24.8658 22.4581 24.8692C22.4806 24.8723 22.5042 24.8778 22.5298 24.8868C22.5557 24.8958 22.5827 24.9073 22.6126 24.9222C22.6424 24.937 22.6747 24.9553 22.7099 24.9771C22.7451 24.9987 22.7835 25.0239 22.8254 25.0531C22.9092 25.1113 23.0074 25.185 23.1247 25.2763L23.7157 25.7362L24.3784 25.2733L25.041 24.8104L25.541 25.1349C25.6098 25.1795 25.6806 25.2285 25.7499 25.2786C25.8191 25.3288 25.8868 25.3802 25.9491 25.4299C26.0113 25.4797 26.0681 25.5276 26.1159 25.5708C26.1636 25.614 26.2023 25.6526 26.228 25.6835C26.2494 25.7092 26.268 25.7326 26.2841 25.7551L26.2871 25.7588Z"
				fill="#FFFFFF"/>
			<path
				d="M16.1024 29.1474C15.5335 24.7111 15.5948 24.1551 16.7843 22.9657C17.7063 22.0437 20.2747 20.9676 20.6521 21.3451C20.7295 21.4226 20.1366 23.0891 19.334 25.0482C18.5315 27.0073 17.5951 29.3154 17.2533 30.1773C16.9114 31.0391 16.5926 31.784 16.5449 31.8326C16.497 31.8812 16.298 30.6728 16.1024 29.1474Z"
				fill="#FFFFFF"/>
			<path
				d="M31.3878 29.1474C31.9567 24.7111 31.8954 24.1551 30.706 22.9657C29.784 22.0437 27.2155 20.9676 26.8381 21.3451C26.7608 21.4226 27.3536 23.0891 28.1562 25.0482C28.9588 27.0073 29.8951 29.3154 30.237 30.1773C30.5789 31.0391 30.8976 31.784 30.9453 31.8326C30.9933 31.8812 31.1922 30.6728 31.3878 29.1474Z"
				fill="#FFFFFF"/>
			<path
				d="M14.7048 25.6324C14.3633 25.5713 12.3629 28.0881 11.6258 29.53C10.4766 31.778 10.7567 33.2095 12.6395 34.7102C13.6873 35.5454 13.2504 35.6405 11.6391 34.9278C10.8565 34.5816 10.1654 34.2982 10.1038 34.2982C9.89736 34.2982 9.98199 36.147 10.2104 37.2814C10.4345 37.8843 10.7032 38.4769 11.0239 39.0497C11.553 39.6609 12.3355 40.1048 13.4651 40.4596L14.9757 40.9341L13.0869 40.8637C12.7918 40.8526 12.5211 40.8464 12.2716 40.8427C14.4081 43.3374 17.9383 45.1187 23.6866 45.0845C29.7438 45.0127 33.2785 43.2521 35.3386 40.8641C35.0974 40.8546 34.8274 40.8538 34.537 40.8661C32.6833 40.9436 32.6548 40.982 35.277 39.8684C35.8089 39.6425 36.45 39.1435 36.7019 38.7591C37.1502 38.0749 37.5949 34.8142 37.2825 34.5019C37.1956 34.4149 36.5138 34.6053 35.7676 34.9251C35.0214 35.245 34.3371 35.5067 34.2465 35.5067C34.1561 35.5067 34.6432 34.8981 35.329 34.1541C36.8115 32.5458 36.9153 31.6192 35.8474 29.5301C34.8268 27.5337 32.9172 25.3629 32.6426 25.8869C32.5256 26.1102 32.2661 27.7882 32.0658 29.6159C31.5546 34.2806 31.0933 35.7419 29.7162 37.0586C29.0859 37.6613 28.2735 38.306 27.9109 38.4917C27.6986 38.5977 27.506 38.6073 27.3273 38.5458L25.0584 35.0609C25.5373 34.6992 26.0744 34.8025 26.603 34.838C26.4156 34.1141 25.9281 33.7803 25.2226 33.7299L22.0827 33.7445L19.74 38.5582C18.8012 38.0407 17.2647 36.6067 16.7124 35.6083C16.2266 34.7301 15.8663 33.1513 15.4514 30.0819C15.1318 27.7184 14.8086 25.7224 14.7325 25.6464C14.7249 25.639 14.7158 25.6344 14.7049 25.6324H14.7048Z"
				fill="#FFFFFF"/>
			<path
				d="M22.6469 3.81934L11.2599 6.30781C10.1586 6.60948 8.55957 6.55971 8.64805 7.70121V11.3507C12.9799 9.02869 17.9306 6.36805 22.6469 3.81934Z"
				fill="#FFFFFF"/>
			<path
				d="M25.4105 3.96973L8.64844 12.9123V16.5661C15.0265 13.1505 23.2203 8.74952 30.1211 4.9991L25.4105 3.96973Z"
				fill="#FFFFFF"/>
			<path
				d="M32.3394 5.4834L8.64844 18.1226V19.9548H12.0562C19.8117 15.7998 29.8603 10.3978 36.976 6.49667L32.3394 5.4834Z"
				fill="#FFFFFF"/>
			<path
				d="M38.7224 7.23486L14.8809 19.9544H21.6759C27.6436 16.7452 33.8869 13.3735 38.7224 10.7232V7.23486Z"
				fill="#FFFFFF"/>
			<path
				d="M38.7198 12.1948L24.1738 19.9551H30.8982C33.6104 18.4891 36.2723 17.0453 38.7198 15.7096V12.1948Z"
				fill="#FFFFFF"/>
			<path d="M38.7205 17.084L33.3398 19.9546H38.7205V17.084Z" fill="#FFFFFF"/>
		</svg>
	