<svg xmlns="http://www.w3.org/2000/svg" width="100%" height="100%" viewBox="0 0 48 48" fill="none">
			<path d="M11.6294 0C11.2643 2.57206 7.78048 5.82717 6 6.98377V35.0285L23.4979 48L40.9958 35.0285V6.98377C39.2153 5.82717 35.7314 2.57206 35.3664 0L23.4979 0.0135977L11.6294 0Z" fill="#FFFFFF"/>
			<path d="M12.623 2.0752C12.2896 4.42482 9.10696 7.39845 7.48047 8.45504V34.0745L23.4652 45.9243L39.4499 34.0745V8.45504C37.8234 7.39845 34.6408 4.42482 34.3074 2.0752L23.4652 2.08749L12.623 2.0752Z" fill="#0A080C"/>
			<path fillRule="evenodd" clipRule="evenodd" d="M23.4647 38.3999C23.8116 39.5165 24.5333 40.3075 25.683 40.6589C24.5332 41.0103 23.8116 41.8013 23.4647 42.9178C23.118 41.8012 22.396 41.0103 21.2461 40.6589C22.396 40.3074 23.118 39.5165 23.4647 38.3999Z" fill="#FFFFFF"/>
			<path d="M33.4135 13.0083V23.3954H29.3605V19.0028L27.9274 20.3569L25.4924 22.6688L24.7065 23.3954H22.4258L21.6398 22.6688L19.1587 20.3569L17.6331 18.9532V23.3954H13.5801V13.0083H17.6331L23.5816 18.5404L29.3605 13.0083H33.4135Z" fill="#FFFFFF"/>
			<path d="M28.6979 25.5421H18.8659C17.9413 25.5421 17.6331 25.2119 17.6331 24.832H13.5801C13.5801 24.865 13.5801 24.8816 13.5801 24.9146C13.5801 27.3091 15.1365 28.9935 18.1262 28.9935H28.2664C29.0831 28.9935 29.3913 29.3073 29.3913 29.7036V30.4632C29.3913 30.876 29.0523 31.3219 27.5574 31.3219H22.1021H19.6981C18.4036 31.3219 17.9105 30.843 17.8334 30.2816H13.8575C13.8575 31.6027 14.4893 34.9714 19.5902 34.9714H22.1021H27.5421C31.857 34.9549 33.3364 32.7586 33.4135 30.4632V29.7036C33.4135 29.6375 33.4135 29.555 33.4135 29.4889C33.4135 27.0944 31.8262 25.5421 28.6979 25.5421Z" fill="#FFFFFF"/>
			<path d="M13.1822 6.00195C12.5975 7.0028 11.6968 8.00353 10.8301 8.80259V10.1011H13.1822V6.00195Z" fill="#FFFFFF"/>
			<path d="M14.0234 4.39551V10.101H16.3756V4.39823L14.0234 4.39551Z" fill="#FFFFFF"/>
			<path d="M33.1412 4.39453L30.7891 4.3972V10.1005H33.1412V4.39453Z" fill="#FFFFFF"/>
			<path d="M34.2617 6.68311V10.1008H36.6139V9.19579C35.8159 8.51235 34.9337 7.61958 34.2617 6.68311Z" fill="#FFFFFF"/>
			<path d="M17.3301 4.39893V10.1006H19.6822V4.40161L17.3301 4.39893Z" fill="#FFFFFF"/>
			<path d="M20.8066 4.40283V10.1004H23.1588V4.40539L20.8066 4.40283Z" fill="#FFFFFF"/>
			<path d="M26.5202 4.40234L24.168 4.40501V10.1007H26.5202V4.40234Z" fill="#FFFFFF"/>
			<path d="M29.7975 4.39795L27.4453 4.40062V10.1004H29.7975V4.39795Z" fill="#FFFFFF"/>
		</svg>