
		<svg width="100%" height="100%" viewBox="0 0 48 48" fill="none" xmlns="http://www.w3.org/2000/svg">
			<path
				d="M5.88393 3.65739C18.2345 -1.83252 33.4545 -0.564706 42.6278 3.65739C46.4905 29.9398 39.9425 37.9177 24.2559 48C8.56926 37.9177 2.02123 29.9398 5.88393 3.65739Z"
				fill="#FFFFFF"/>
			<path
				d="M7.48287 5.05801C18.779 0.0368333 32.6995 1.1964 41.0897 5.05801C44.6226 29.0966 38.6336 36.3933 24.2863 45.6148C9.93891 36.3933 3.94994 29.0966 7.48287 5.05801Z"
				fill="#0A080C"/>
			<path
				d="M11.3142 5.29492C10.424 5.60206 9.54581 5.9455 8.68429 6.32845C8.64123 6.62144 8.60048 6.91015 8.56046 7.1978L20.1425 18.8049C23.2 21.8689 25.7536 24.3825 25.8257 24.3825C25.8976 24.3825 26.4638 23.8675 27.0838 23.238L28.2111 22.0936L21.5555 15.4414C19.1706 13.0576 14.4015 8.3267 11.3142 5.29492ZM8.37009 8.64127C8.17847 10.1746 8.03227 11.6312 7.93222 13.0151L18.0999 23.2534C20.0415 25.2083 21.7022 26.7626 21.7584 26.7396C21.8141 26.7165 22.3054 26.657 22.8495 26.6073C23.5126 26.5467 24.0236 26.3202 24.3992 25.9205L24.9597 25.324L19.7516 20.1159L8.37009 8.64127ZM40.4569 11.5947C38.7087 13.3106 36.3309 15.6687 33.7352 18.2651C24.2668 27.7358 24.261 27.7409 23.2527 27.7409C20.8624 27.7409 18.0924 28.7399 17.6225 29.7714C17.4793 30.0858 17.1241 30.4026 16.8335 30.4756C16.2786 30.6148 15.4681 31.5651 15.743 32.3103C16.2467 33.6762 15.9085 32.7788 16.4469 32.7788C17.8574 32.7788 20.6849 33.5341 22.8825 34.4978C25.1064 35.4732 28.833 37.6612 29.7924 38.5548C30.0648 38.8086 30.8297 39.4016 30.9541 39.4016C35.987 35.0335 39.3978 30.4912 40.1246 24.4415C34.2592 29.5621 35.3899 28.0346 40.3791 22.9023C40.6013 21.3187 40.721 19.6112 40.7365 17.7576C27.8973 30.5676 31.5992 25.4798 40.7238 16.1164C40.6911 14.6945 40.6023 13.1902 40.4567 11.5947H40.4569ZM7.83329 14.6672C7.75247 16.3675 7.7464 17.9549 7.81398 19.4432L15.6649 27.3037C16.9139 28.5542 16.9999 28.6098 17.3788 28.1533C17.5191 27.9843 18.1906 27.6458 18.8711 27.4011L20.1084 26.9563L17.3861 24.225L7.83329 14.6672Z"
				fill="#FFFFFF"/>
			<path
				d="M24.8543 3.20611C20.8589 3.1989 16.8218 3.84388 12.7598 4.88229L28.8825 21.0348L40.0948 9.87214L39.8129 7.01663C34.8483 4.30237 29.9913 3.21533 24.8543 3.20611Z"
				fill="#FFFFFF"/>
			<path
				d="M21.8358 7.82383V8.28633H20.0298V7.77979C20.0298 7.6452 20.0494 7.53019 20.0886 7.43475C20.1302 7.33932 20.1877 7.25856 20.2611 7.19249C20.3369 7.12642 20.4275 7.07259 20.5327 7.03099C20.6379 6.98694 20.7566 6.95023 20.8888 6.92087C20.9866 6.89885 21.0662 6.87437 21.1273 6.84746C21.191 6.81809 21.2411 6.78628 21.2778 6.75202C21.3145 6.71532 21.339 6.67616 21.3512 6.63456C21.3659 6.59052 21.3733 6.54157 21.3733 6.48774C21.3733 6.38496 21.3353 6.29932 21.2595 6.2308C21.1861 6.16228 21.0833 6.12802 20.9512 6.12802C20.8117 6.12802 20.7003 6.17085 20.6171 6.25649C20.5339 6.33969 20.4923 6.45593 20.4923 6.6052V6.7667H20.0078V6.56115C20.0078 6.44125 20.0286 6.32746 20.0702 6.21979C20.1143 6.10967 20.1754 6.01423 20.2537 5.93348C20.3345 5.85028 20.4324 5.78543 20.5474 5.73894C20.6624 5.69 20.7921 5.66553 20.9365 5.66553C21.0906 5.66553 21.2252 5.68877 21.3402 5.73527C21.4552 5.77932 21.5507 5.83805 21.6265 5.91146C21.7048 5.98487 21.7624 6.07052 21.7991 6.1684C21.8382 6.26383 21.8578 6.36294 21.8578 6.46572V6.50976C21.8578 6.7251 21.7966 6.90374 21.6743 7.04567C21.5544 7.1876 21.3574 7.29037 21.0833 7.354C20.9683 7.38092 20.8728 7.40906 20.797 7.43842C20.7236 7.46534 20.6661 7.49593 20.6245 7.53019C20.5829 7.56445 20.5535 7.60237 20.5364 7.64397C20.5217 7.68313 20.5144 7.7284 20.5144 7.77979V7.82383H21.8358Z"
				fill="#0A080C"/>
			<path
				d="M22.8536 7.00162C22.8536 6.91842 22.8842 6.84623 22.9454 6.78506C23.0066 6.72388 23.0788 6.69329 23.162 6.69329C23.2452 6.69329 23.3174 6.72388 23.3785 6.78506C23.4397 6.84623 23.4703 6.91842 23.4703 7.00162C23.4703 7.08482 23.4397 7.15701 23.3785 7.21819C23.3174 7.27936 23.2452 7.30995 23.162 7.30995C23.0788 7.30995 23.0066 7.27936 22.9454 7.21819C22.8842 7.15701 22.8536 7.08482 22.8536 7.00162ZM22.215 6.71532C22.215 6.38252 22.2982 6.12435 22.4646 5.94082C22.6334 5.75729 22.8659 5.66553 23.162 5.66553C23.4581 5.66553 23.6893 5.75729 23.8557 5.94082C24.0246 6.12435 24.109 6.38252 24.109 6.71532V7.28793C24.109 7.63052 24.0246 7.89113 23.8557 8.06976C23.6893 8.2484 23.4581 8.33772 23.162 8.33772C22.8659 8.33772 22.6334 8.2484 22.4646 8.06976C22.2982 7.89113 22.215 7.63052 22.215 7.28793V6.71532ZM23.162 7.89725C23.2501 7.89725 23.3235 7.88379 23.3822 7.85687C23.4409 7.8275 23.4886 7.78713 23.5254 7.73574C23.5621 7.68435 23.5878 7.62317 23.6024 7.55221C23.6171 7.48125 23.6245 7.40294 23.6245 7.31729V6.68595C23.6245 6.6052 23.6159 6.52934 23.5988 6.45837C23.5816 6.38741 23.5547 6.32623 23.518 6.27485C23.4813 6.22346 23.4336 6.18308 23.3749 6.15372C23.3161 6.1219 23.2452 6.106 23.162 6.106C23.0788 6.106 23.0078 6.1219 22.9491 6.15372C22.8903 6.18308 22.8426 6.22346 22.8059 6.27485C22.7692 6.32623 22.7423 6.38741 22.7252 6.45837C22.708 6.52934 22.6995 6.6052 22.6995 6.68595V7.31729C22.6995 7.40294 22.7068 7.48125 22.7215 7.55221C22.7362 7.62317 22.7619 7.68435 22.7986 7.73574C22.8353 7.78713 22.883 7.8275 22.9417 7.85687C23.0005 7.88379 23.0739 7.89725 23.162 7.89725Z"
				fill="#0A080C"/>
			<path
				d="M26.3308 7.82383V8.28633H24.5249V7.77979C24.5249 7.6452 24.5444 7.53019 24.5836 7.43475C24.6252 7.33932 24.6827 7.25856 24.7561 7.19249C24.832 7.12642 24.9225 7.07259 25.0277 7.03099C25.133 6.98694 25.2516 6.95023 25.3838 6.92087C25.4817 6.89885 25.5612 6.87437 25.6224 6.84746C25.686 6.81809 25.7362 6.78628 25.7729 6.75202C25.8096 6.71532 25.834 6.67616 25.8463 6.63456C25.861 6.59052 25.8683 6.54157 25.8683 6.48774C25.8683 6.38496 25.8304 6.29932 25.7545 6.2308C25.6811 6.16228 25.5783 6.12802 25.4462 6.12802C25.3067 6.12802 25.1954 6.17085 25.1122 6.25649C25.029 6.33969 24.9874 6.45593 24.9874 6.6052V6.7667H24.5028V6.56115C24.5028 6.44125 24.5236 6.32746 24.5652 6.21979C24.6093 6.10967 24.6705 6.01423 24.7488 5.93348C24.8295 5.85028 24.9274 5.78543 25.0424 5.73894C25.1574 5.69 25.2871 5.66553 25.4315 5.66553C25.5857 5.66553 25.7203 5.68877 25.8353 5.73527C25.9503 5.77932 26.0457 5.83805 26.1216 5.91146C26.1999 5.98487 26.2574 6.07052 26.2941 6.1684C26.3332 6.26383 26.3528 6.36294 26.3528 6.46572V6.50976C26.3528 6.7251 26.2916 6.90374 26.1693 7.04567C26.0494 7.1876 25.8524 7.29037 25.5783 7.354C25.4633 7.38092 25.3679 7.40906 25.292 7.43842C25.2186 7.46534 25.1611 7.49593 25.1195 7.53019C25.0779 7.56445 25.0485 7.60237 25.0314 7.64397C25.0167 7.68313 25.0094 7.7284 25.0094 7.77979V7.82383H26.3308Z"
				fill="#0A080C"/>
			<path
				d="M28.5783 7.82383V8.28633H26.7724V7.77979C26.7724 7.6452 26.792 7.53019 26.8311 7.43475C26.8727 7.33932 26.9302 7.25856 27.0036 7.19249C27.0795 7.12642 27.17 7.07259 27.2753 7.03099C27.3805 6.98694 27.4992 6.95023 27.6313 6.92087C27.7292 6.89885 27.8087 6.87437 27.8699 6.84746C27.9335 6.81809 27.9837 6.78628 28.0204 6.75202C28.0571 6.71532 28.0816 6.67616 28.0938 6.63456C28.1085 6.59052 28.1158 6.54157 28.1158 6.48774C28.1158 6.38496 28.0779 6.29932 28.002 6.2308C27.9286 6.16228 27.8258 6.12802 27.6937 6.12802C27.5542 6.12802 27.4429 6.17085 27.3597 6.25649C27.2765 6.33969 27.2349 6.45593 27.2349 6.6052V6.7667H26.7504V6.56115C26.7504 6.44125 26.7712 6.32746 26.8128 6.21979C26.8568 6.10967 26.918 6.01423 26.9963 5.93348C27.077 5.85028 27.1749 5.78543 27.2899 5.73894C27.405 5.69 27.5346 5.66553 27.679 5.66553C27.8332 5.66553 27.9678 5.68877 28.0828 5.73527C28.1978 5.77932 28.2932 5.83805 28.3691 5.91146C28.4474 5.98487 28.5049 6.07052 28.5416 6.1684C28.5808 6.26383 28.6003 6.36294 28.6003 6.46572V6.50976C28.6003 6.7251 28.5392 6.90374 28.4168 7.04567C28.2969 7.1876 28.0999 7.29037 27.8258 7.354C27.7108 7.38092 27.6154 7.40906 27.5395 7.43842C27.4661 7.46534 27.4086 7.49593 27.367 7.53019C27.3254 7.56445 27.2961 7.60237 27.2789 7.64397C27.2642 7.68313 27.2569 7.7284 27.2569 7.77979V7.82383H28.5783Z"
				fill="#0A080C"/>
			<path
				d="M21.502 38.999H23.0802V39.4429H21.967V40.0066H23.0591V40.4505H21.967V41.4651H21.502V38.999Z"
				fill="#FFFFFF"/>
			<path
				d="M24.0571 41.1797C24.0571 41.2267 24.0478 41.2713 24.029 41.3136C24.0125 41.3535 23.989 41.3887 23.9585 41.4193C23.928 41.4475 23.8916 41.4698 23.8493 41.4862C23.8094 41.505 23.7671 41.5144 23.7225 41.5144C23.6755 41.5144 23.632 41.505 23.5921 41.4862C23.5522 41.4698 23.517 41.4475 23.4864 41.4193C23.4559 41.3887 23.4312 41.3535 23.4125 41.3136C23.396 41.2713 23.3878 41.2267 23.3878 41.1797C23.3878 41.1327 23.396 41.0893 23.4125 41.0494C23.4312 41.0071 23.4559 40.9719 23.4864 40.9437C23.517 40.9132 23.5522 40.8897 23.5921 40.8732C23.632 40.8544 23.6755 40.845 23.7225 40.845C23.7671 40.845 23.8094 40.8544 23.8493 40.8732C23.8916 40.8897 23.928 40.9132 23.9585 40.9437C23.989 40.9719 24.0125 41.0071 24.029 41.0494C24.0478 41.0893 24.0571 41.1327 24.0571 41.1797Z"
				fill="#FFFFFF"/>
			<path
				d="M25.182 41.0916C25.2713 41.0916 25.3441 41.0787 25.4005 41.0529C25.4592 41.0247 25.5038 40.9883 25.5343 40.9437C25.5672 40.8967 25.5895 40.8439 25.6013 40.7852C25.613 40.7241 25.6189 40.6618 25.6189 40.5984V40.535H26.0839V40.5984C26.0839 40.892 26.0064 41.1187 25.8514 41.2784C25.6987 41.4357 25.4756 41.5144 25.182 41.5144C24.9002 41.5144 24.6771 41.4287 24.5127 41.2572C24.3483 41.0858 24.2661 40.8356 24.2661 40.5068V39.9573C24.2661 39.7999 24.2872 39.659 24.3295 39.5345C24.3718 39.4077 24.4328 39.302 24.5127 39.2174C24.5925 39.1306 24.6888 39.0648 24.8016 39.0202C24.9143 38.9732 25.0411 38.9497 25.182 38.9497C25.3277 38.9497 25.4568 38.9708 25.5696 39.0131C25.6823 39.0554 25.7762 39.1165 25.8514 39.1963C25.9289 39.2762 25.9864 39.3725 26.024 39.4852C26.0639 39.5979 26.0839 39.7248 26.0839 39.8657V39.9291H25.6189V39.8657C25.6189 39.807 25.6118 39.7482 25.5977 39.6895C25.5837 39.6308 25.5602 39.578 25.5273 39.531C25.4944 39.484 25.4498 39.4464 25.3934 39.4183C25.337 39.3877 25.2666 39.3725 25.182 39.3725C25.1045 39.3725 25.0376 39.3877 24.9812 39.4183C24.9249 39.4464 24.8779 39.4864 24.8403 39.538C24.8027 39.5874 24.7746 39.6461 24.7558 39.7142C24.7393 39.7799 24.7311 39.8492 24.7311 39.922V40.5421C24.7311 40.6219 24.7393 40.6959 24.7558 40.764C24.7722 40.8298 24.798 40.8873 24.8333 40.9366C24.8685 40.986 24.9143 41.0247 24.9707 41.0529C25.0294 41.0787 25.0998 41.0916 25.182 41.0916Z"
				fill="#FFFFFF"/>
			<path
				d="M26.9622 41.1797C26.9622 41.2267 26.9528 41.2713 26.934 41.3136C26.9176 41.3535 26.8941 41.3887 26.8635 41.4193C26.833 41.4475 26.7966 41.4698 26.7543 41.4862C26.7144 41.505 26.6721 41.5144 26.6275 41.5144C26.5805 41.5144 26.5371 41.505 26.4972 41.4862C26.4572 41.4698 26.422 41.4475 26.3915 41.4193C26.3609 41.3887 26.3363 41.3535 26.3175 41.3136C26.3011 41.2713 26.2928 41.2267 26.2928 41.1797C26.2928 41.1327 26.3011 41.0893 26.3175 41.0494C26.3363 41.0071 26.3609 40.9719 26.3915 40.9437C26.422 40.9132 26.4572 40.8897 26.4972 40.8732C26.5371 40.8544 26.5805 40.845 26.6275 40.845C26.6721 40.845 26.7144 40.8544 26.7543 40.8732C26.7966 40.8897 26.833 40.9132 26.8635 40.9437C26.8941 40.9719 26.9176 41.0071 26.934 41.0494C26.9528 41.0893 26.9622 41.1327 26.9622 41.1797Z"
				fill="#FFFFFF"/>
		</svg>
	