
		<svg width="100%" height="100%" viewBox="0 0 48 48" fill="none" xmlns="http://www.w3.org/2000/svg">
			<path
				d="M11.4513 0C9.31415 3.41025 7.35976 4.87783 4.17029 5.30044C1.77171 30.9103 6.65739 39.7684 24.108 48C41.5586 39.7684 46.4443 30.9103 44.0457 5.30044C40.8563 4.87783 38.9019 3.41025 36.7647 0C30.8918 2.99965 16.8024 2.84036 11.4513 0Z"
				fill="#FFFFFF"/>
			<path
				d="M11.7507 0.56543C9.66392 3.89536 7.75556 5.32835 4.64122 5.74103C2.29913 30.7476 7.06976 39.397 24.1093 47.4347C41.1488 39.397 45.9194 30.7476 43.5773 5.74103C40.463 5.32835 38.5546 3.89536 36.4679 0.56543C30.7333 3.49442 16.9757 3.33888 11.7507 0.56543Z"
				fill="#0A080C"/>
			<path
				d="M11.9651 0.978516C9.9151 4.24967 8.0404 5.65738 4.98099 6.06276C2.68025 30.6282 7.36671 39.125 24.1056 47.021C40.8446 39.125 45.5311 30.6282 43.2303 6.06276C40.1709 5.65738 38.2962 4.24967 36.2462 0.978516C30.6128 3.8558 17.0979 3.70303 11.9651 0.978516Z"
				fill="#FFFFFF"/>
			<path
				d="M12.9391 2.8252C11.0536 5.834 9.32922 7.12881 6.51523 7.50167C4.39897 30.0969 8.70958 37.9122 24.106 45.1748C39.5024 37.9122 43.813 30.0969 41.6967 7.50167C38.8827 7.12881 37.1584 5.83397 35.2728 2.8252C30.0912 5.47172 17.6603 5.3312 12.9391 2.8252Z"
				fill="#0A080C"/>
			<path
				d="M12.9392 2.82532C11.0536 5.83413 9.32923 7.12897 6.51521 7.50186C4.39898 30.097 8.70969 37.9123 24.1061 45.175C24.1156 45.1705 24.1245 45.166 24.1341 45.1616V4.75634C19.7203 4.75922 15.3362 4.09745 12.9393 2.8252L12.9392 2.82532Z"
				fill="#0A080C"/>
			<path
				d="M23.5293 7.9458V8.45342V9.78497H38.2035L38.2685 8.77364C37.3453 8.65474 36.6091 8.41753 35.9445 8.01826L35.8238 7.9458H23.5293Z"
				fill="#FFFFFF"/>
			<path
				d="M23.5293 13.063V13.5706V14.9022H39.0088L38.9746 14.3621C38.957 14.0889 38.9379 13.8127 38.9174 13.5335L38.8828 13.063H23.5293Z"
				fill="#FFFFFF"/>
			<path
				d="M23.5293 18.209V18.7166V20.0482H39.0124L39.0413 19.5712C39.058 19.2975 39.0727 19.0199 39.0842 18.737L39.1056 18.209H23.5293Z"
				fill="#FFFFFF"/>
			<path
				d="M21.4908 40.2752C21.4333 40.1821 20.8196 38.6632 20.1271 36.9001C19.2806 34.7448 18.6398 33.4551 18.1715 32.9641C17.49 32.2497 17.4733 32.1817 17.4004 29.8259C17.4004 19.5724 30.8155 19.7366 30.8155 29.7591C30.7387 32.1973 30.7267 32.2465 30.0338 32.9649C29.55 33.4665 28.9227 34.7303 28.0257 37.0106C27.3082 38.8346 26.6306 40.3022 26.5197 40.2721C26.4089 40.2419 26.2911 38.5373 26.2579 36.4841L26.1975 32.7509L27.7502 31.5668L29.3029 30.3827V29.2197C29.3029 28.5801 29.2391 28.0567 29.161 28.0567C29.083 28.0567 28.1379 28.6128 27.0607 29.2925C24.8662 30.6772 24.9386 30.5115 25.3334 33.2429L25.5557 34.7812L24.8237 35.5132L24.0917 36.2452L23.3815 35.5124L22.6712 34.7796L22.885 33.1316C23.2327 30.4525 23.3328 30.6701 21.1202 29.295C20.0245 28.614 19.0793 28.0567 19.0199 28.0567C18.8654 28.0567 18.8863 29.7224 19.0462 30.1387C19.1199 30.3308 19.8163 30.9942 20.5937 31.6128L22.0073 32.7376V36.4639C22.0073 39.7382 21.8547 40.8641 21.491 40.2752H21.4908Z"
				fill="#FFFFFF"/>
			<path
				d="M24.1078 22.189C20.754 22.1768 17.4004 24.6992 17.4004 29.826C17.4733 32.1818 17.49 32.2498 18.1715 32.9642C18.6398 33.4551 19.2806 34.7447 20.1271 36.9C20.8196 38.6632 21.4333 40.182 21.4908 40.2752C21.8546 40.864 22.0071 39.7382 22.0071 36.4639V32.7376L20.5936 31.6128C19.8162 30.9941 19.1197 30.3308 19.046 30.1387C18.8862 29.7224 18.8654 28.0568 19.0201 28.0568C19.0795 28.0568 20.0246 28.614 21.1203 29.295C23.3329 30.6702 23.2327 30.4526 22.8851 33.1316L22.6713 34.7796L23.3815 35.5123L24.0918 36.2452L24.1427 36.1943V22.1895C24.131 22.1894 24.1194 22.1892 24.108 22.1895L24.1078 22.189Z"
				fill="#FFFFFF"/>
			<path
				d="M23.6199 18.7163H9.32227C9.3336 18.9952 9.34789 19.2692 9.36443 19.5402H23.6199V18.7163Z"
				fill="#FFFFFF"/>
			<path
				d="M8.79492 18.209L8.81634 18.7373C8.82786 19.02 8.84246 19.2972 8.85918 19.5712L8.88809 20.0482H24.1292V18.209H23.6212H8.79492Z"
				fill="#FFFFFF"/>
			<path
				d="M23.5925 13.5703H9.4882C9.46793 13.848 9.44899 14.1227 9.43164 14.3943H23.5925V13.5703Z"
				fill="#FFFFFF"/>
			<path
				d="M9.01433 13.063L8.98006 13.5335C8.9597 13.8125 8.94075 14.0891 8.9233 14.3624L8.88867 14.9022H24.0983V13.063H23.5907H9.01433Z"
				fill="#FFFFFF"/>
			<path
				d="M23.5901 8.45312H12.2139C11.4823 8.89266 10.6687 9.1514 9.69336 9.27702H23.5901V8.45312Z"
				fill="#FFFFFF"/>
			<path
				d="M12.0735 7.9458L11.9529 8.01827C11.2883 8.41753 10.5521 8.65474 9.62891 8.77365L9.69388 9.78498H24.0982V7.9458H23.5905H12.0735Z"
				fill="#FFFFFF"/>
		</svg>
	