
		<svg width="100%" height="100%" viewBox="0 0 48 48" fill="none" xmlns="http://www.w3.org/2000/svg">
			<path
				d="M21.7825 0H25.249C33.3282 0 39.8323 7.0245 39.8323 15.75V32.25C39.8323 40.9755 33.3282 48 25.249 48H21.7825C13.7034 48 7.19922 40.9755 7.19922 32.25V15.75C7.19922 7.0245 13.7034 0 21.7825 0Z"
				fill="#FFFFFF"/>
			<path
				d="M21.9089 1.7334H25.125C32.6206 1.7334 38.655 8.25054 38.655 16.3458V31.6541C38.655 39.7493 32.6206 46.2664 25.125 46.2664H21.9089C14.4133 46.2664 8.37891 39.7493 8.37891 31.6541V16.3458C8.37891 8.25054 14.4133 1.7334 21.9089 1.7334Z"
				fill="#0A080C"/>
			<path
				d="M21.4124 1.7334C14.1919 1.7334 8.37891 8.25044 8.37891 16.3457V31.654C8.37891 39.7492 14.1919 46.2664 21.4124 46.2664H23.8438V1.7334H21.4124Z"
				fill="#0A080C"/>
			<path
				d="M17.2406 18.1986C16.4805 18.5847 16.3296 18.7417 16.1683 19.3149C16.0348 19.7889 15.295 23.1803 15.3058 23.2688C15.3189 23.3754 16.0581 22.9165 16.2147 22.7046C16.291 22.6013 16.6029 21.9701 16.9077 21.3017C17.2766 20.4928 17.523 20.0307 17.6448 19.9197C17.7795 19.797 18.0816 19.6452 18.7904 19.344C19.722 18.9481 20.9001 18.5151 20.9772 18.5403C20.9978 18.5471 20.8827 18.7185 20.721 18.921L20.4272 19.2892C20.2298 20.0097 21.1383 19.6888 21.6742 19.3018C22.2337 18.9053 22.353 18.8548 22.4198 18.9866C22.4656 19.0769 23.0638 21.8135 23.0454 21.8483C21.3158 22.4704 19.5366 23.9961 17.9404 25.6641C17.584 25.8046 15.6716 25.7143 15.1777 25.5691C15.004 26.6117 16.5319 27.0691 17.3396 27.9562L17.7186 28.2389L17.7652 28.8727C17.791 29.2213 17.8181 29.6094 17.8258 29.735C17.8392 29.9541 17.8135 29.9904 17.1978 30.621C16.8447 30.9827 16.5246 31.3481 16.4866 31.4329C16.8074 33.8183 16.5925 35.4271 19.2794 34.6461L19.123 33.5918C18.9715 32.5706 18.9711 32.5323 19.111 32.3698C19.1904 32.2775 19.7574 31.6521 20.3711 30.98C21.1286 30.1502 21.4961 29.7066 21.5156 29.598C21.5311 29.5101 21.4375 29.0369 21.3071 28.5465C20.9933 27.3669 20.9764 27.1911 21.1383 26.7859C21.2123 26.6006 21.2955 26.4376 21.3232 26.4236C21.3513 26.4094 21.405 26.4929 21.4445 26.6128C21.5869 27.0441 21.9512 27.9852 21.9792 27.9938C22.5933 27.814 23.697 27.4102 24.6459 27.0131C24.6822 26.9145 24.4252 24.702 25.6033 24.2881C26.8534 26.0529 28.1334 27.7964 29.3915 29.5554C31.3473 28.5562 30.5488 26.9656 29.0916 24.7267L29.0332 23.1518C28.9834 21.8076 28.9548 21.5381 28.8392 21.3114C28.7352 21.1076 28.4971 20.8626 27.816 20.2587C26.3629 18.9703 25.6828 18.3184 25.5033 18.0416C25.3465 17.7998 25.3398 17.762 25.4141 17.5352C25.4798 17.3345 25.5376 17.2683 25.7337 17.1689C26.0236 17.022 26.3132 17.0706 26.6197 17.3175C26.7335 17.4092 26.8417 17.4766 26.8602 17.4672C26.879 17.4582 26.896 17.1657 26.8987 16.8181C26.9035 16.2327 26.891 16.166 26.7303 15.9173C26.5179 15.5882 25.591 14.8679 25.3227 14.8234C25.1827 14.8004 24.9381 14.8716 24.3035 15.1209C22.1004 15.9862 18.556 17.5309 17.2406 18.199L17.2406 18.1986ZM29.2511 22.0239C29.2511 22.0239 29.2485 22.0239 29.2485 22.0265C29.2391 22.0558 29.2511 22.5967 29.2729 23.2285L29.3149 24.3771L29.4777 24.4142C29.5672 24.4346 29.6888 24.4535 29.7481 24.456C30.1295 24.4848 29.9486 26.4323 31.7429 25.8377C31.7381 25.794 31.6677 25.1407 31.586 24.3858L31.4373 23.0132L30.3514 22.4932C29.7729 22.2161 29.289 22.0103 29.2506 22.0244L29.2511 22.0239ZM22.0029 28.0159C22.0898 28.3814 22.1904 29.387 21.9892 29.7124C21.8912 29.8709 21.8261 30.0145 21.8446 30.0316C21.8631 30.0485 22.542 30.4197 23.4193 30.4966L24.9353 30.6295C26.8863 30.2973 24.7297 29.3013 24.4096 28.5935C24.6127 28.1474 24.7332 27.0268 24.6105 26.9925C23.2411 27.5568 22.2159 27.8941 21.9841 27.9845L22.0029 28.0159Z"
				fill="#FFFFFF"/>
			<path
				d="M34.9328 30.4951L33.19 31.1922V41.6957C33.8538 41.0409 34.4396 40.3075 34.9328 39.5101V30.4951ZM31.4472 31.8894L29.7044 32.5864V44.0716C30.3147 43.8009 30.8974 43.4801 31.4472 43.114V31.8894ZM28.0487 33.2488L26.3058 33.946V44.9988C26.9017 44.9293 27.4838 44.8158 28.0487 44.6613V33.2488ZM24.7373 34.5733L22.9945 35.2705V45.0801H24.7373V34.5733ZM21.3389 35.9327L19.596 36.6298V44.641C20.1607 44.7995 20.7428 44.9169 21.3389 44.9903V35.9327ZM18.2018 37.1876L16.459 37.8846V43.2363C17.0101 43.5883 17.5927 43.8955 18.2018 44.1531V37.1876ZM14.8033 38.5468L13.0605 39.244V39.9329C13.5635 40.673 14.1488 41.3519 14.8033 41.9574V38.5468Z"
				fill="#FFFFFF"/>
			<path
				d="M12.1035 17.4581L13.8463 16.761V6.25749C13.1826 6.91227 12.5968 7.64566 12.1035 8.44307V17.4581ZM15.5891 16.0638L17.3319 15.3668V3.88166C16.7216 4.15231 16.1389 4.47311 15.5891 4.8392V16.0638ZM18.9877 14.7044L20.7305 14.0072V2.95443C20.1346 3.02394 19.5525 3.13745 18.9877 3.29195V14.7044ZM22.299 13.3799L24.0418 12.6827V2.87305H22.299V13.3799ZM25.6975 12.0205L27.4402 11.3235V3.31215C26.8756 3.1537 26.2936 3.03631 25.6975 2.96295V12.0205ZM28.8345 10.7657L30.5773 10.0686V4.71686C30.0262 4.36493 29.4437 4.05768 28.8345 3.80016V10.7657ZM32.2329 9.40635L33.9758 8.7092V8.02028C33.4729 7.28026 32.8875 6.6013 32.2329 5.99585V9.40635Z"
				fill="#FFFFFF"/>
		</svg>
	