
		<svg width="100%" height="100%" viewBox="0 0 48 48" fill="none" xmlns="http://www.w3.org/2000/svg">
			<path d="M24.3768 0L8.40039 6.94764V39.8107L24.3768 48L40.3531 39.8107V6.94764L24.3768 0Z" fill="#FFFFFF"/>
			<path
				d="M24.3781 1.40039L9.33398 7.9426V38.8879L24.3781 46.5993L39.4221 38.8879V7.9426L24.3781 1.40039Z"
				fill="#0A080C"/>
			<path
				d="M24.3749 3.43555L10.6855 9.38865V37.5474L24.3749 44.5644L38.0643 37.5474V9.38865L24.3749 3.43555Z"
				fill="#0A080C"/>
			<path
				d="M24.375 3.43555L10.6855 9.38857V37.5474L24.375 44.5645L24.3789 44.5618V3.43673L24.375 3.43555Z"
				fill="#0A080C"/>
			<path
				d="M23.0838 16.2247C21.0907 15.2203 18.5608 13.118 17.6005 11.6682C17.0049 10.7691 16.9915 10.5689 17.5534 10.9658C17.9594 11.2526 20.1885 12.4161 20.332 12.4161C20.3679 12.4161 20.3874 12.2971 20.3754 12.1516C20.3439 11.7714 21.2686 11.1967 22.5268 10.8145C24.182 10.3118 25.7286 10.4438 27.3038 11.2223C28.28 11.7048 28.4913 11.8729 28.4276 12.1163C28.3845 12.2812 28.3799 12.4161 28.4171 12.4161C28.5627 12.4161 30.7881 11.2557 31.1984 10.9658C31.7007 10.611 31.7278 10.6696 31.3759 11.35C30.7689 12.5237 28.1007 14.9027 26.1973 15.9672C24.5609 16.8823 24.4129 16.8945 23.0837 16.2247H23.0838Z"
				fill="#FFFFFF"/>
			<path
				d="M22.9069 26.1797C20.9087 23.8629 19.5723 21.9776 18.6755 20.2102C17.6628 18.2146 17.5114 17.0391 18.042 15.292C18.4777 13.8576 18.6667 13.7035 19.2469 14.3091C19.644 14.7236 19.6738 14.8223 19.5103 15.1813C19.4088 15.4039 19.3259 15.9676 19.3259 16.4339C19.3259 17.6194 20.0093 18.5298 21.1968 18.926C22.007 19.1964 22.5073 19.1665 23.4917 18.7887C23.6189 18.7399 23.796 18.9776 23.9681 19.4284C24.1188 19.823 24.2978 20.1458 24.3658 20.1458C24.4338 20.1458 24.6358 19.7938 24.8146 19.3635L25.1397 18.5812L25.6638 18.849C26.4694 19.2607 27.5954 19.1663 28.362 18.6226C28.71 18.3759 29.1262 17.9266 29.2871 17.6243C29.6348 16.9705 29.6663 15.6681 29.3482 15.0979C29.1463 14.7361 29.1621 14.6678 29.541 14.2698C29.7681 14.0312 30.0029 13.8359 30.0628 13.8359C30.1226 13.8359 30.3385 14.2086 30.5426 14.6641C30.8469 15.3432 30.9143 15.7621 30.917 16.9909C30.9205 18.6893 30.7122 19.3189 29.4555 21.4024C28.2473 23.4056 24.7758 27.7177 24.3713 27.7177C24.2955 27.7177 23.6365 27.0256 22.9069 26.1797Z"
				fill="#FFFFFF"/>
			<path
				d="M10.291 31.5903V34.3075L24.3825 41.205L38.4741 34.3075V31.5903L24.3825 37.9305L10.291 31.5903Z"
				fill="#FFFFFF"/>
			<path
				d="M10.291 25.4712V28.1884L24.3825 35.0859L38.4741 28.1884V25.4712L24.3825 31.8113L10.291 25.4712Z"
				fill="#FFFFFF"/>
		</svg>
	