
		<svg width="100%" height="100%" viewBox="0 0 48 48" fill="none" xmlns="http://www.w3.org/2000/svg">
			<path
				d="M5.32915 8.46628C3.10839 32.1774 7.63186 40.3787 23.7886 48C39.9454 40.3787 44.4689 32.1774 42.2481 8.46628L23.7929 0L5.32915 8.46628Z"
				fill="#0A080C"/>
			<path
				d="M6.80639 9.70958C4.76339 31.5229 8.9248 39.0678 23.7884 46.0791C38.6521 39.0678 42.8135 31.5229 40.7705 9.70958L23.7923 1.9209L6.80639 9.70958Z"
				fill="#FFFFFF"/>
			<path
				d="M19.5798 27.9136C19.5798 26.4181 19.6136 25.4062 19.6635 25.4062C19.7096 25.4062 19.8501 25.4453 19.9759 25.4931C20.1016 25.5409 20.5099 25.6179 20.8834 25.6643C21.6512 25.7596 22.1811 26.0533 22.3747 26.4909C22.5201 26.8193 22.6467 26.8273 22.5688 26.5031C22.3564 25.6194 21.9334 25.2598 20.9614 25.1366C19.3889 24.9372 18.4808 24.0963 18.2408 22.6176C18.098 21.7372 18.1242 14.4194 18.2733 13.5853C18.4206 12.7605 18.7954 12.6343 19.334 11.9245C19.6657 11.4875 20.1905 10.9843 20.315 10.9842C20.3292 10.9842 20.3331 11.8938 20.3231 13.8763L20.3054 17.4808L20.0017 17.839C19.4265 18.5176 19.4237 18.6644 19.9951 18.1969C21.0843 17.3055 22.5458 16.8364 23.9233 16.9361C24.7539 16.9963 25.1567 17.0946 25.874 17.4126L26.3919 17.6422L26.3665 18.5327L26.3411 19.4232L26.0006 19.54C25.4692 19.7224 24.959 20.1208 24.6287 20.6112C24.2184 21.2206 24.2483 21.3113 24.7068 20.8473C25.193 20.3551 25.8333 20.0309 26.443 19.9679L26.9232 19.9184V18.8173C26.9232 17.6223 26.9873 17.3457 27.3543 16.9578C27.7268 16.5641 28.0413 16.4432 28.7641 16.4159L29.4306 16.3908V19.488C29.4306 21.3221 29.3928 22.7197 29.3386 22.9149C29.1846 23.4695 28.7 24.0817 28.111 24.4658L27.5618 24.824L27.5562 27.6225L27.5506 32.4882L23.649 30.421L19.5805 32.8288L19.5798 27.9136ZM20.9118 17.0368C20.8936 17.0185 20.8892 15.3681 20.9027 13.3696L20.927 10.4481L21.3504 10.2349C21.9152 9.95062 22.9795 9.04263 23.0343 9.18545C23.0564 9.24294 23.0639 10.8286 23.0511 12.7672L23.0277 16.2919L22.356 16.4889C21.9866 16.5972 21.5182 16.7723 21.3149 16.878C21.1117 16.9837 20.9303 17.0552 20.9119 17.0368H20.9118ZM26.4398 16.8716C26.3084 16.7752 26.2961 16.4148 26.3174 13.2719L26.341 10.4918L26.8783 11.0315C27.4359 11.5917 27.8719 11.5981 28.1925 12.4861C28.4327 13.1511 28.5517 15.7968 28.3442 15.8574C28.2767 15.8772 28.0444 15.9415 27.8278 16.0006C27.5568 16.0744 27.3019 16.2436 27.01 16.5433C26.6532 16.9096 26.5627 16.9617 26.4398 16.8716ZM25.2664 16.4912C25.0201 16.4236 24.5466 16.3414 24.2141 16.3085L23.6096 16.2488V12.6271V9.00537L24.1246 9.06812C24.4078 9.10264 24.8775 10.0252 25.1992 10.0144L25.7589 10.1856V13.0517C25.7589 15.0198 25.7487 16.6265 25.7365 16.6222C25.7244 16.6178 25.5127 16.5588 25.2664 16.4912H25.2664Z"
				fill="#0A080C"/>
			<path
				d="M23.7917 3.31543L7.81688 10.6406L7.78221 11.0097C6.85347 20.9259 7.31534 27.6872 9.78935 32.8256C12.2633 37.9641 16.7299 41.3599 23.5141 44.56L23.7881 44.6893L24.0621 44.56C30.8463 41.3599 35.3128 37.9641 37.7868 32.8256C40.2608 27.6872 40.7227 20.9259 39.794 11.0097L39.7593 10.6406L23.7917 3.31543ZM23.7914 4.72871L38.5437 11.4959C39.4153 21.1062 38.9083 27.5349 36.6293 32.2683C34.3535 36.995 30.2861 40.1615 23.7881 43.262C17.29 40.1615 13.2227 36.995 10.9469 32.2683C8.66794 27.5349 8.16062 21.1063 9.03223 11.4962L23.7914 4.72871Z"
				fill="#0A080C"/>
			<path
				d="M23.7016 32.2646L20.085 34.2794L20.0215 38.4189L23.5747 40.5436L27.1913 38.5288L27.2548 34.3893L23.7016 32.2646ZM23.6705 34.2949L25.4809 35.3775L25.4486 37.4866L23.6058 38.5132L21.7954 37.4307L21.8277 35.3215L23.6705 34.2949Z"
				fill="#0A080C"/>
		</svg>
	