
		<svg width="100%" height="100%" viewBox="0 0 48 48" fill="none" xmlns="http://www.w3.org/2000/svg">
			<path
				d="M7.32311 34.4416L7.24267 13.1183C7.14491 8.5058 7.24267 0 7.24267 0H24.0196H40.7966C40.7966 0 40.8811 9.13077 40.7966 13.1183L40.7162 34.4416C40.8128 40.8593 27.5246 44.3216 24.0196 48C20.5147 44.3216 7.22653 40.8593 7.32311 34.4416Z"
				fill="#FFFFFF"/>
			<path
				d="M8.0669 33.9487V13.6225V1.08105H24.0211H39.9144V13.6225V33.9487C40.0065 40.0664 27.3622 43.3668 24.0211 46.8732C20.68 43.3668 7.97484 40.0664 8.0669 33.9487Z"
				fill="#0A080C"/>
			<path
				d="M9.24851 33.1659V14.2069V2.36328H24.0314H38.8143V14.2069V33.1659C38.8996 38.872 27.1272 41.9504 24.0314 45.2209C20.9356 41.9504 9.1632 38.872 9.24851 33.1659Z"
				fill="#FFFFFF"/>
			<path
				d="M37.6584 31.4375L19.8652 41.202C21.6212 42.1271 23.1738 43.0019 24.0207 43.8908C26.8824 40.8875 37.732 38.0605 37.6532 32.8205L37.6584 31.4375Z"
				fill="#0A080C"/>
			<path
				d="M37.6931 23.0312L12.0938 36.3458C13.2856 37.5326 14.973 38.5779 16.7274 39.5408L37.6741 28.0621L37.6931 23.0312Z"
				fill="#0A080C"/>
			<path
				d="M17.4606 5.10542C17.3958 5.10947 17.3568 5.11775 17.3503 5.13042C17.2649 5.29675 19.1403 6.27092 20.2879 6.65646C21.1431 6.94378 21.3773 7.28447 21.1653 7.20285C20.6281 6.99609 18.2159 9.50172 17.9474 10.0931C17.8461 10.3163 17.3832 10.8416 16.9698 11.2867C16.4309 11.8669 16.2627 12.1636 16.3756 12.3345C16.4621 12.4657 16.9031 12.5471 17.0178 12.7177C17.1738 12.9497 17.1743 13.1749 17.8395 13.121C18.8457 13.0394 21.0484 13.2647 20.6678 13.4103C20.444 13.4959 20.4748 13.5794 20.9754 14.2433C21.3689 14.7653 21.6713 15.4225 22.0081 16.4878L22.4844 17.9942L21.8038 16.6457C21.4295 15.904 21.0837 15.2434 21.0354 15.1779C20.9871 15.1124 20.3353 16.0838 19.587 17.3367C18.7717 18.7019 18.0892 19.6615 17.8838 19.7316C17.6952 19.7958 17.2585 19.7337 16.9132 19.5929C15.2933 18.9338 14.7759 17.3665 15.8358 16.3285C16.2183 15.9539 16.2888 15.4722 15.9173 15.7711C15.5152 16.0946 15.0931 17.1889 15.1183 17.8427C15.1334 18.2364 15.2561 18.6259 15.4607 18.9297C15.8738 19.5431 16.8505 20.2156 17.4244 20.2819C17.8083 20.3262 17.8842 20.4114 17.9299 20.8497C18.0196 21.7101 18.2613 23.1324 18.5154 24.2953L18.6848 25.0703L19.7125 24.7119C19.811 24.3117 20.153 23.5029 20.5071 22.8743C20.8703 22.2293 22.2679 20.7718 22.6372 20.6529C22.7689 20.6105 22.8609 20.6852 22.8531 20.8283C22.8456 20.9654 22.9401 21.6721 23.0629 22.399L23.2456 23.4794L24.8992 22.9026C24.9802 22.4293 25.3369 21.4479 25.6604 20.8743C26.0922 20.1089 26.9088 19.3159 27.6509 18.9413C28.1728 18.6779 28.3554 18.6711 28.9057 18.895C29.4664 19.1231 30.6718 20.1197 31.1707 20.7149L32.9542 20.0928L32.8436 19.8556C32.2677 18.6207 30.5744 15.9596 29.6375 14.817C28.4968 13.4258 26.4257 11.3526 25.312 10.4868L24.3531 9.74115C27.0703 6.37405 23.3806 8.1327 23.787 6.8754C23.9079 6.52515 23.931 6.14471 23.8383 6.03C23.6091 5.74648 22.686 5.54195 21.0755 5.41785C20.3346 5.3608 19.204 5.252 18.563 5.17609C18.0823 5.11915 17.6551 5.09338 17.4606 5.10546V5.10542ZM16.6533 7.28609C16.6196 7.28476 16.6043 7.29395 16.611 7.31474C16.6794 7.52321 17.5961 8.30765 18.1118 8.59903C18.4765 8.80511 18.5986 8.79444 18.9563 8.52443L19.3746 8.20869L18.7475 8.06528C18.4026 7.98639 17.7696 7.75132 17.341 7.54295C17.0195 7.38663 16.7543 7.28983 16.6533 7.28611V7.28609Z"
				fill="#0A080C"/>
			<path
				d="M37.7046 14.4619L10.3711 28.6786L10.3875 33.0382C10.3806 33.4882 10.4563 33.92 10.5987 34.336L37.7035 19.4826L37.718 15.6282C37.7267 15.2139 37.7222 14.8269 37.7046 14.4619H37.7046Z"
				fill="#0A080C"/>
		</svg>
	