
		<svg width="100%" height="100%" viewBox="0 0 48 48" fill="none" xmlns="http://www.w3.org/2000/svg">
			<path
				d="M5.86221 6.14203C11.4339 3.66534 17.6243 -0.0449413 23.5147 0.00041187C29.9496 0.0499702 36.0263 4.06123 40.5472 6.14203C44.1935 30.9518 38.945 48 23.2048 48C7.95622 48 2.21592 30.9518 5.86221 6.14203Z"
				fill="#FFFFFF"/>
			<path
				d="M7.02374 7.3348C12.2233 5.02357 18.0002 1.56107 23.4972 1.60341C29.5022 1.64966 35.1731 5.393 39.3921 7.3348C42.7948 30.4875 37.8968 46.397 23.2079 46.397C8.97786 46.397 3.621 30.4875 7.02374 7.3348Z"
				fill="#0A080C"/>
			<path
				d="M8.00642 8.34872C12.8896 6.17816 18.3149 2.92642 23.4772 2.96618C29.1168 3.00962 34.4425 6.52513 38.4046 8.34872C41.6002 30.0922 37.0004 45.0333 23.2055 45.0333C9.84161 45.0333 4.81079 30.0922 8.00642 8.34872Z"
				fill="#FFFFFF"/>
			<path
				d="M23.7678 4.19321C18.9676 4.15622 13.9229 7.17989 9.38231 9.19818C7.56062 21.5933 8.61497 31.6096 12.5662 37.5062L37.6534 9.23627C37.6506 9.22332 37.6499 9.21106 37.6479 9.19818C33.9636 7.50251 29.0116 4.23357 23.7677 4.19321H23.7678Z"
				fill="#0A080C"/>
			<path
				d="M13.8043 15.2214L11.8086 14.028L11.8442 11.703L13.8756 10.5713L15.8713 11.7647L15.8357 14.0897L13.8043 15.2214Z"
				fill="#FFFFFF"/>
			<path
				d="M20.1871 15.2214L18.1914 14.028L18.227 11.703L20.2584 10.5713L22.2541 11.7647L22.2185 14.0897L20.1871 15.2214Z"
				fill="#FFFFFF"/>
			<path
				d="M26.4977 15.2214L24.502 14.028L24.5376 11.703L26.5689 10.5713L28.5647 11.7647L28.5291 14.0897L26.4977 15.2214Z"
				fill="#FFFFFF"/>
			<path
				d="M13.8043 22.7639L11.8086 21.5705L11.8442 19.2454L13.8756 18.1138L15.8713 19.3071L15.8357 21.6322L13.8043 22.7639Z"
				fill="#FFFFFF"/>
			<path
				d="M20.3356 22.7639L18.3398 21.5705L18.3755 19.2454L20.4068 18.1138L22.4026 19.3071L22.3669 21.6322L20.3356 22.7639Z"
				fill="#FFFFFF"/>
			<path
				d="M13.8043 30.3064L11.8086 29.113L11.8442 26.7879L13.8756 25.6562L15.8713 26.8496L15.8357 29.1747L13.8043 30.3064Z"
				fill="#FFFFFF"/>
			<path d="M41.8234 5.33301L6.66602 44.6823L41.8234 5.33301Z" fill="#FFFFFF"/>
			<path
				d="M41.4453 4.99219L7.10938 43.5199L7.87177 44.2009L42.2074 5.67348L41.4453 4.99219Z"
				fill="#0A080C"/>
			<path
				d="M32.8225 29.7451V33.9861H31.1677V32.1926L30.5826 32.7455L29.5884 33.6894L29.2675 33.9861H28.3363L28.0154 33.6894L27.0024 32.7455L26.3794 32.1724V33.9861H24.7246V29.7451H26.3794L28.8082 32.0038L31.1677 29.7451H32.8225Z"
				fill="#0A080C"/>
			<path
				d="M30.8972 34.8626H26.8828C26.5053 34.8626 26.3794 34.7278 26.3794 34.5728H24.7246C24.7246 34.5862 24.7246 34.593 24.7246 34.6065C24.7246 35.5841 25.3601 36.2718 26.5808 36.2718H30.721C31.0545 36.2718 31.1803 36.4 31.1803 36.5618V36.8719C31.1803 37.0405 31.0418 37.2225 30.4315 37.2225H28.2041H27.2226C26.694 37.2225 26.4927 37.027 26.4612 36.7977H24.8379C24.8379 37.3372 25.0958 38.7126 27.1785 38.7126H28.2041H30.4253C32.187 38.706 32.791 37.8091 32.8225 36.8719V36.5618C32.8225 36.5349 32.8225 36.5011 32.8225 36.4741C32.8225 35.4965 32.1744 34.8626 30.8972 34.8626Z"
				fill="#0A080C"/>
		</svg>
	