
		<svg width="100%" height="100%" viewBox="0 0 48 48" fill="none" xmlns="http://www.w3.org/2000/svg">
			<path
				d="M48 24C48 27.1517 47.3792 30.2726 46.1731 33.1844C44.967 36.0962 43.1992 38.7419 40.9706 40.9706C38.742 43.1992 36.0962 44.967 33.1844 46.1731C30.2726 47.3792 27.1517 48 24 48C17.6348 48 11.5303 45.4714 7.02944 40.9706C2.52856 36.4697 -3.39677e-07 30.3652 0 24C5.09515e-07 17.6348 2.52857 11.5303 7.02945 7.02944C11.5303 2.52856 17.6348 5.09515e-07 24 0C30.3652 -3.39677e-07 36.4697 2.52856 40.9706 7.02944C45.4714 11.5303 48 17.6348 48 24Z"
				fill="#FFFFFF"/>
			<path
				d="M46.6528 23.9997C46.6528 26.9745 46.0668 29.9202 44.9284 32.6685C43.79 35.4168 42.1215 37.914 40.018 40.0175C37.9145 42.121 35.4173 43.7896 32.669 44.928C29.9206 46.0664 26.975 46.6523 24.0002 46.6523C17.9924 46.6523 12.2306 44.2657 7.98243 40.0175C3.73425 35.7693 1.34766 30.0076 1.34766 23.9997C1.34766 17.9919 3.73425 12.2301 7.98243 7.98195C12.2306 3.73377 17.9924 1.34717 24.0002 1.34717C26.975 1.34717 29.9206 1.93309 32.669 3.07148C35.4173 4.20988 37.9145 5.87846 40.018 7.98195C42.1215 10.0854 43.79 12.5826 44.9284 15.331C46.0668 18.0793 46.6528 21.025 46.6528 23.9997Z"
				fill="#FFFFFF"/>
			<path
				d="M12.4849 6.16229C17.2975 3.10875 23.1261 2.09209 28.6883 3.33596C34.2506 4.57984 39.0909 7.98236 42.1444 12.795C45.198 17.6077 46.2146 23.4362 44.9707 28.9985C43.7269 34.5607 40.3243 39.401 35.5117 42.4546C30.699 45.5081 24.8705 46.5247 19.3082 45.2809C13.746 44.037 8.90571 40.6345 5.85216 35.8218C4.3402 33.4388 3.3124 30.7814 2.82746 28.0012C2.34252 25.221 2.40992 22.3725 3.02583 19.6184C3.64173 16.8642 4.79408 14.2584 6.41707 11.9496C8.04006 9.64077 10.1019 7.67426 12.4849 6.16229Z"
				fill="#0A080C"/>
			<path
				d="M37.1169 23.9999C37.1169 25.7221 36.7777 27.4274 36.1187 29.0184C35.4596 30.6095 34.4937 32.0552 33.2759 33.273C32.0581 34.4907 30.6124 35.4567 29.0214 36.1158C27.4303 36.7748 25.725 37.114 24.0028 37.114C20.5247 37.114 17.1891 35.7323 14.7297 33.273C12.2703 30.8136 10.8887 27.478 10.8887 23.9999C10.8887 20.5218 12.2703 17.1862 14.7297 14.7268C17.1891 12.2674 20.5247 10.8857 24.0028 10.8857C25.725 10.8857 27.4303 11.2249 29.0214 11.884C30.6124 12.543 32.0581 13.509 33.2759 14.7268C34.4937 15.9445 35.4596 17.3902 36.1187 18.9813C36.7777 20.5724 37.1169 22.2777 37.1169 23.9999Z"
				fill="#FFFFFF"/>
			<path
				d="M16.7129 15.3911H22.3752V21.9913L28.9754 28.5916V32.4648L29.4096 32.8991H26.0574C26.0574 32.8991 25.143 33.1591 22.1463 30.1378C19.1496 27.1164 16.7459 24.7374 16.7459 24.7374L16.7129 15.3911Z"
				fill="#0A080C"/>
			<path
				d="M16.2676 14.9458L16.2693 15.393L16.3028 24.924L16.4342 25.0544C16.4342 25.0544 18.8367 27.4319 21.8318 30.4517C23.3507 31.983 24.3561 32.7018 25.0225 33.0473C25.3557 33.22 25.6054 33.2995 25.794 33.332C25.8882 33.3482 25.9671 33.3524 26.0316 33.3499C26.0465 33.3494 26.0503 33.3468 26.0661 33.3448H30.4876L29.423 32.2806V28.4072L22.8226 21.8071V14.9458H16.2676ZM17.1622 15.8371H21.9313V22.1761L28.5317 28.7765V32.4536H25.997L25.9825 32.4576C25.9768 32.4575 25.9729 32.4583 25.9452 32.4536C25.8687 32.4404 25.7027 32.3958 25.4327 32.2559C24.8928 31.976 23.9424 31.3141 22.4645 29.8241C19.5391 26.8748 17.3057 24.6643 17.1927 24.5524L17.1622 15.8371Z"
				fill="#FFFFFF"/>
			<path
				d="M16.7449 24.9067V30.4826C16.7449 30.4826 16.6466 32.5214 18.7345 32.7916C20.8224 33.0618 22.6497 32.9479 22.6497 32.9479L22.3111 32.6311V30.3353L16.7449 24.9067Z"
				fill="#0A080C"/>
			<path
				d="M16.2993 23.8496V24.9067V30.4825L16.3 30.4611C16.3 30.4611 16.2669 31.0663 16.5485 31.7136C16.8301 32.3609 17.4913 33.0799 18.6776 33.2334C20.8142 33.5099 22.6777 33.3925 22.6777 33.3925L23.7087 33.3282L22.7572 32.4376V30.1474L16.2993 23.8496ZM17.1909 25.9639L21.8659 30.5231V32.5175C21.1874 32.5311 20.1609 32.5268 18.792 32.3496C17.8905 32.2329 17.5569 31.7975 17.3656 31.3578C17.1743 30.9182 17.1903 30.5041 17.1903 30.5041L17.191 30.4933L17.1909 25.9639Z"
				fill="#FFFFFF"/>
			<path
				d="M22.4087 15.4263H25.6741L28.87 17.9622L32.6565 19.0043L31.6143 19.977L33.5597 22.0265L33.4902 23.6245L34.8797 25.1529L34.9144 26.0561L33.2817 27.6541L31.788 27.7235L30.1206 26.4035L25.5699 25.1877L22.1309 21.6444L22.4087 15.4263Z"
				fill="#0A080C"/>
			<path
				d="M21.9831 14.9805L21.9641 15.4063L21.6777 21.8168L25.3366 25.5863L29.9171 26.8103L31.6428 28.1765L33.4727 28.0912L35.3679 26.2362L35.3195 24.9733L33.9439 23.4605L34.0136 21.8567L32.2477 19.996L33.5438 18.7862L29.0766 17.5564L25.8301 14.9805H21.9831ZM22.8357 15.8717H25.5193L28.6647 18.3678L31.7704 19.2222L30.9824 19.9577L33.1068 22.1962L33.0377 23.7885L34.4411 25.3324L34.4621 25.8757L33.0919 27.2168L31.9345 27.2706L30.3253 25.9969L25.8047 24.7888L22.5852 21.4722L22.8357 15.8717Z"
				fill="#FFFFFF"/>
			<path
				d="M9.43691 17.0049H8.13385C7.15721 19.1773 6.61328 21.5855 6.61328 24.1199C6.61328 29.4502 9.01821 34.2229 12.8003 37.4136H14.7301C10.5377 34.4863 7.79706 29.6265 7.79706 24.1199C7.79706 21.5664 8.38696 19.1523 9.43691 17.0049Z"
				fill="#FFFFFF"/>
			<path
				d="M39.8679 17.0049H38.5642C39.6141 19.1523 40.2041 21.5664 40.2041 24.1199C40.2041 29.6265 37.4637 34.4863 33.2715 37.4136H35.2014C38.9835 34.2229 41.3885 29.4502 41.3885 24.1199C41.3885 21.5855 40.8446 19.1773 39.8679 17.0049Z"
				fill="#FFFFFF"/>
			<path
				d="M17.4305 10.6937L16.603 11.0144C16.5326 11.0416 16.4751 11.0469 16.4302 11.0302C16.3877 11.0084 16.3528 10.9623 16.3255 10.8919L14.9308 7.29298C14.9035 7.22261 14.899 7.16688 14.9172 7.12579C14.9376 7.07956 14.983 7.0428 15.0533 7.01552L15.9475 6.66898C16.0068 6.64603 16.0599 6.64038 16.107 6.65203C16.1578 6.6622 16.2113 6.69043 16.2676 6.73673L17.1183 7.44827C17.1497 7.47442 17.1738 7.49275 17.1907 7.50326C17.2112 7.5123 17.2326 7.5123 17.2548 7.50326L17.3048 7.48376C17.327 7.4751 17.3408 7.46124 17.3462 7.44219C17.3552 7.42164 17.3626 7.39111 17.3682 7.35061L17.5117 6.25377C17.5221 6.18159 17.5407 6.12537 17.5677 6.08511C17.5984 6.0434 17.6433 6.01108 17.7026 5.98813L18.6023 5.63944C18.6727 5.61216 18.7291 5.60942 18.7717 5.63124C18.8165 5.64801 18.8525 5.69153 18.8798 5.76183L20.2746 9.36075C20.3018 9.4311 20.3052 9.4894 20.2847 9.53563C20.2666 9.57674 20.2224 9.61092 20.152 9.63818L19.2967 9.96967C19.2263 9.99693 19.1688 10.0022 19.124 9.98549C19.0814 9.96366 19.0465 9.91755 19.0193 9.84718L18.2616 7.89222L18.1685 8.62459C18.1597 8.70044 18.1369 8.76251 18.1002 8.8108C18.0658 8.85394 18.0134 8.88914 17.9431 8.9164L17.7209 9.00248C17.6505 9.02976 17.5863 9.03977 17.5281 9.03249C17.4722 9.02006 17.4154 8.98885 17.3577 8.93885L16.7954 8.46046L17.553 10.4155C17.5803 10.4858 17.5837 10.5441 17.5632 10.5903C17.5451 10.6314 17.5009 10.6656 17.4305 10.6929L17.4305 10.6937Z"
				fill="#FFFFFF"/>
			<path
				d="M24.7554 9.30205L22.8737 9.25893C22.7983 9.25704 22.743 9.23989 22.708 9.20747C22.6771 9.17101 22.6625 9.11508 22.6642 9.03967L22.6803 8.34292C22.6822 8.26749 22.6993 8.21425 22.7316 8.18322C22.7682 8.14832 22.8242 8.13173 22.8996 8.13347L24.5015 8.17017C24.5531 8.17205 24.5911 8.15704 24.6157 8.12513C24.6443 8.09003 24.6591 8.04865 24.6602 8.00101C24.6621 7.93352 24.6493 7.88358 24.622 7.85118C24.5989 7.81889 24.5616 7.80016 24.51 7.795L23.6197 7.64949C23.3427 7.60343 23.1205 7.50699 22.953 7.36017C22.7896 7.21343 22.7117 6.97331 22.7193 6.63983L22.7337 6.0146C22.7414 5.67714 22.8565 5.42159 23.079 5.24794C23.3015 5.07032 23.6053 4.98593 23.9904 4.99477L25.6578 5.03294C25.7332 5.03483 25.7863 5.05392 25.8173 5.09022C25.8523 5.1228 25.8689 5.1768 25.8672 5.25224L25.8511 5.96085C25.8492 6.03629 25.8301 6.09146 25.7937 6.12637C25.7612 6.15739 25.7072 6.17204 25.6318 6.17033L24.2443 6.13854C24.1927 6.13666 24.1526 6.15362 24.124 6.18941C24.0955 6.22053 24.0806 6.2619 24.0795 6.3135C24.0776 6.36512 24.0905 6.4091 24.1181 6.44546C24.1451 6.48182 24.1844 6.5026 24.2359 6.50776L25.1204 6.64715C25.3974 6.69324 25.6196 6.78969 25.787 6.93651C25.9545 7.08334 26.0344 7.32349 26.0267 7.65696L26.0123 8.28222C26.0046 8.61966 25.8875 8.87714 25.661 9.05467C25.4386 9.22831 25.1368 9.31078 24.7557 9.30205H24.7554Z"
				fill="#FFFFFF"/>
			<path
				d="M31.9979 10.132C31.928 10.3008 31.8385 10.4442 31.7294 10.5624C31.6255 10.6784 31.4888 10.7593 31.3194 10.8052C31.1552 10.8489 30.9516 10.8527 30.7087 10.8165C30.4657 10.7804 30.1737 10.6917 29.8325 10.5504C29.4913 10.4091 29.222 10.2654 29.0247 10.1192C28.8273 9.97301 28.6842 9.82564 28.5953 9.67709C28.5116 9.52637 28.4721 9.3725 28.477 9.21549C28.4869 9.05632 28.5269 8.89235 28.5968 8.72358L29.7248 5.99945C29.7537 5.92974 29.7889 5.88629 29.8304 5.86909C29.8771 5.84975 29.9353 5.85445 30.005 5.88322L30.869 6.24099C30.9387 6.26985 30.9814 6.30687 30.9971 6.35205C31.0179 6.39508 31.0139 6.45144 30.9849 6.52115L29.9458 9.03064C29.9154 9.10402 29.9171 9.17779 29.9509 9.25194C29.9862 9.32242 30.0993 9.39716 30.29 9.47616C30.4845 9.55668 30.6191 9.58448 30.6939 9.55957C30.7702 9.53099 30.8235 9.48002 30.8539 9.40664L31.893 6.89713C31.9219 6.82743 31.9571 6.78398 31.9986 6.76678C32.0453 6.74743 32.1035 6.75224 32.1732 6.7812L33.0097 7.12758C33.0794 7.15644 33.1221 7.19346 33.1378 7.23863C33.1586 7.28166 33.1546 7.33803 33.1256 7.40773L31.9979 10.132Z"
				fill="#FFFFFF"/>
			<path
				d="M21.3932 42.507H20.7967C20.748 42.507 20.7121 42.4968 20.689 42.4763C20.6685 42.4532 20.6582 42.4173 20.6582 42.3685V39.8749C20.6582 39.8261 20.6685 39.7915 20.689 39.771C20.7121 39.7479 20.748 39.7363 20.7967 39.7363H22.513C22.5618 39.7363 22.5964 39.7479 22.6169 39.771C22.64 39.7915 22.6516 39.8261 22.6516 39.8749V40.3328C22.6516 40.3815 22.64 40.4175 22.6169 40.4406C22.5964 40.4611 22.5618 40.4713 22.513 40.4713H21.5317V40.8715H22.2013C22.2501 40.8715 22.2847 40.8831 22.3052 40.9062C22.3283 40.9267 22.3399 40.9613 22.3399 41.0101V41.4719C22.3399 41.5206 22.3283 41.5565 22.3052 41.5796C22.2847 41.6001 22.2501 41.6104 22.2013 41.6104H21.5317V42.3685C21.5317 42.4173 21.5202 42.4532 21.4971 42.4763C21.4766 42.4968 21.442 42.507 21.3932 42.507Z"
				fill="#FFFFFF"/>
			<path
				d="M24.2635 42.5075H23.4862C23.4375 42.5075 23.4015 42.4972 23.3784 42.4767C23.3579 42.4536 23.3477 42.4177 23.3477 42.3689V41.5878C23.3477 41.539 23.3579 41.5044 23.3784 41.4839C23.4015 41.4608 23.4375 41.4492 23.4862 41.4492H24.2635C24.3123 41.4492 24.3469 41.4608 24.3674 41.4839C24.3905 41.5044 24.4021 41.539 24.4021 41.5878V42.3689C24.4021 42.4177 24.3905 42.4536 24.3674 42.4767C24.3469 42.4972 24.3123 42.5075 24.2635 42.5075Z"
				fill="#FFFFFF"/>
			<path
				d="M27.2059 42.507H26.267C25.9463 42.507 25.7077 42.4429 25.5512 42.3146C25.3973 42.1863 25.3203 41.9888 25.3203 41.722V40.5252C25.3203 40.2584 25.3973 40.0609 25.5512 39.9326C25.7077 39.8017 25.9463 39.7363 26.267 39.7363H27.2059C27.2547 39.7363 27.2893 39.7479 27.3098 39.771C27.3329 39.7915 27.3445 39.8261 27.3445 39.8749V40.3405C27.3445 40.3892 27.3329 40.4252 27.3098 40.4482C27.2893 40.4688 27.2547 40.479 27.2059 40.479H26.4324C26.3529 40.479 26.2939 40.4957 26.2554 40.5291C26.2169 40.5598 26.1977 40.6073 26.1977 40.6714V41.5873C26.1977 41.6515 26.2169 41.6989 26.2554 41.7297C26.2939 41.7579 26.3529 41.772 26.4324 41.772H27.2059C27.2547 41.772 27.2893 41.7836 27.3098 41.8067C27.3329 41.8272 27.3445 41.8618 27.3445 41.9106V42.3685C27.3445 42.4172 27.3329 42.4532 27.3098 42.4763C27.2893 42.4968 27.2547 42.507 27.2059 42.507Z"
				fill="#FFFFFF"/>
		</svg>
	