
		<svg width="100%" height="100%" viewBox="0 0 48 48" fill="none" xmlns="http://www.w3.org/2000/svg">
			<path
				d="M24.0959 48C10.2821 38.9335 0.812037 26.4883 2.62191 5.26997C15.9638 -2.11325 34.93 -1.39079 45.6893 5.26997C47.4992 26.4883 38.0292 38.9335 24.2153 48H24.0959Z"
				fill="#0A080C"/>
			<path
				d="M41.222 28.5488H7.0918C10.7148 36.2511 16.7643 42.0662 24.0999 46.8809H24.2138C31.5495 42.0662 37.5989 36.2511 41.222 28.5488Z"
				fill="#FFFFFF"/>
			<path
				d="M24.3855 1.11979C17.2069 1.13796 9.78789 2.7343 3.62684 6.14376C3.18105 11.3699 3.4546 16.0366 4.33033 20.2348H43.9818C44.8576 16.0366 45.1311 11.3699 44.6853 6.14376C39.3963 2.86948 32.0272 1.10045 24.3855 1.11979Z"
				fill="#FFFFFF"/>
			<path
				d="M24.1038 45.1694C11.9189 37.1722 3.56574 26.1947 5.1622 7.47857C16.9307 0.966043 33.6602 1.60331 43.1506 7.47857C44.747 26.1947 36.3939 37.1722 24.2091 45.1694H24.1038Z"
				fill="#0A080C"/>
			<path
				d="M24.2384 4.73096C18.2268 4.76219 12.0228 6.10695 6.86537 8.961C5.41217 25.9976 13.0158 35.99 24.1071 43.2696H24.203C24.2147 43.2617 24.2264 43.2536 24.2385 43.246L24.2384 4.73096Z"
				fill="#0A080C"/>
			<path
				d="M24.3435 4.98145C22.0642 4.98709 19.7553 5.18705 17.4882 5.59214V19.7422L22.7712 17.7703V17.7654L24.2208 17.3491L25.5704 17.8166V17.8085L30.7103 20.0567V5.48389C28.6557 5.14728 26.5132 4.97607 24.3435 4.98158V4.98145ZM33.4959 6.0557V21.0591L36.3258 22.1502V6.90318C35.4164 6.5815 34.4707 6.29852 33.4959 6.0557ZM15.0648 6.10964C14.1071 6.34778 13.1621 6.62476 12.235 6.94113V21.7101L15.0648 20.6499V6.10964ZM10.0622 7.77066C9.12264 8.16951 8.20734 8.61169 7.32418 9.10037C7.2873 9.5351 7.25746 9.96399 7.23242 10.3894V15.6498C7.40323 18.334 7.84173 20.81 8.51347 23.1046L10.0622 22.5243V7.77066ZM38.4985 7.7772V22.9877L39.695 23.4491C40.9579 19.3136 41.4541 14.5817 40.9866 9.10027C40.2093 8.61907 39.3769 8.17777 38.4985 7.7772Z"
				fill="#FFFFFF"/>
			<path
				d="M30.7801 22.7144V29.652H28.0731V26.7181L27.1159 27.6226L25.4896 29.1667L24.9646 29.652H23.4413L22.9164 29.1667L21.2592 27.6226L20.2402 26.685V29.652H17.5332V22.7144H20.2402L24.2133 26.4093L28.0731 22.7144H30.7801Z"
				fill="#FFFFFF"/>
			<path
				d="M27.6305 31.0861H21.0637C20.4461 31.0861 20.2402 30.8655 20.2402 30.6118H17.5332C17.5332 30.6339 17.5332 30.6449 17.5332 30.667C17.5332 32.2663 18.5728 33.3913 20.5696 33.3913H27.3423C27.8879 33.3913 28.0937 33.6009 28.0937 33.8656V34.3729C28.0937 34.6487 27.8672 34.9465 26.8688 34.9465H23.2252H21.6195C20.7549 34.9465 20.4255 34.6266 20.374 34.2516H17.7185C17.7185 35.134 18.1405 37.384 21.5474 37.384H23.2252H26.8586C29.7406 37.373 30.7287 35.9061 30.7801 34.3729V33.8656C30.7801 33.8214 30.7801 33.7663 30.7801 33.7222C30.7801 32.1229 29.72 31.0861 27.6305 31.0861Z"
				fill="#FFFFFF"/>
			<path d="M34.0505 31.8886L32.8508 30.9868L33.7715 29.6904L34.9713 30.5922L34.0505 31.8886Z" fill="#FFFFFF"/>
			<path d="M14.533 31.8886L13.3332 30.9868L14.2539 29.6904L15.4537 30.5922L14.533 31.8886Z" fill="#FFFFFF"/>
		</svg>
	