
		<svg width="100%" height="100%" viewBox="0 0 48 48" fill="none" xmlns="http://www.w3.org/2000/svg">
			<path
				d="M23.4322 47.9263C18.3702 45.4749 14.3677 41.2183 11.221 36.632C4.6917 26.8655 2.58748 14.5661 4.34999 3.04496C4.42352 1.22647 4.56818 -0.47363 6.75831 0.592979C12.3115 1.38736 17.8814 0.348089 23.4241 0.0566406C29.2131 0.260046 35.0395 1.52195 40.8259 0.506951C43.4847 -0.591025 42.6435 3.62885 43.1711 5.26519C44.499 17.5818 41.4303 30.6947 33.3058 40.2504C30.6286 43.3015 27.5488 46.1429 23.8449 47.8839L23.5644 47.9522L23.4322 47.9265"
				fill="#FFFFFF"/>
			<path
				d="M41.2685 25.6466H5.95898C7.18477 29.5347 8.9245 33.2554 11.2053 36.6669C14.3554 41.2586 18.3627 45.5199 23.4304 47.9742V47.9744L23.5628 48.0001L23.8437 47.9316C27.5519 46.1886 30.6353 43.344 33.3155 40.2894C36.9669 35.9948 39.5975 30.9822 41.2685 25.6465V25.6466Z"
				fill="#0A080C"/>
			<path
				d="M23.4225 0C17.8362 0.293734 12.2226 1.34118 6.6258 0.540553C4.4184 -0.53443 4.27262 1.17907 4.19863 3.01185C3.74468 5.97941 3.54704 8.99823 3.61152 12.0125H43.6102C43.6607 9.74928 43.5659 7.48636 43.3246 5.24954C42.7928 3.60035 43.6406 -0.652686 40.961 0.453919C35.1291 1.47688 29.2569 0.205004 23.4225 0Z"
				fill="#0A080C"/>
			<path
				d="M23.448 45.8255C18.8306 43.5894 15.1796 39.7067 12.3093 35.5231C6.35345 26.6144 4.43403 15.3953 6.04181 4.88601C6.10878 3.22724 6.24079 1.67646 8.23854 2.64939C13.304 3.37401 18.3847 2.426 23.4407 2.16016C28.7212 2.3457 34.0358 3.49677 39.3141 2.57091C41.7393 1.56937 40.9721 5.41863 41.4533 6.91125C42.6645 18.1461 39.8654 30.1074 32.4544 38.8238C30.0124 41.6069 27.2031 44.1987 23.8245 45.7868L23.5687 45.8492L23.448 45.8257"
				fill="#FFFFFF"/>
			<path
				d="M23.4284 2.16113C18.3765 2.42786 13.2999 3.3737 8.23851 2.64967C6.24076 1.67674 6.1088 3.22752 6.04182 4.8863C4.43405 15.3956 6.35333 26.6147 12.3092 35.5234C15.1754 39.701 18.8204 43.5784 23.4284 45.8161V2.16113Z"
				fill="#FFFFFF"/>
			<path
				d="M22.4873 24.9983C21.9036 24.7955 21.426 24.615 21.4258 24.5972C21.4258 24.5459 22.1622 24.3818 22.6848 24.3169C23.5354 24.2112 25.0228 24.3392 25.5784 24.566C25.7297 24.6277 25.6866 24.6491 24.6981 25.004C24.1264 25.2092 23.6339 25.3748 23.6036 25.372C23.5732 25.3693 23.0709 25.2011 22.4873 24.9983Z"
				fill="#0A080C"/>
			<path
				d="M26.5766 29.1046C26.3966 28.9729 25.7954 28.5361 25.2408 28.134L24.2324 27.4029L24.2483 26.9331L24.2641 26.4633L25.3042 26.0845C25.8763 25.8762 26.3726 25.7228 26.4071 25.7436C26.4416 25.7644 26.7862 26.0143 27.1729 26.2989L27.8759 26.8164V27.1064C27.8759 27.266 27.8598 27.7696 27.84 28.2257L27.8041 29.055L27.3851 29.2001C27.1546 29.2799 26.9521 29.345 26.9351 29.3446C26.918 29.3443 26.7567 29.2362 26.5766 29.1046Z"
				fill="#0A080C"/>
			<path
				d="M19.8179 29.1948C19.4575 29.0613 19.4508 29.0551 19.4206 28.8292C19.4037 28.7028 19.3826 28.196 19.3737 27.7028L19.3574 26.8062L20.1269 26.2538C20.6248 25.8963 20.9265 25.7135 20.9816 25.7357C21.0285 25.7546 21.4763 25.9194 21.9767 26.1019C22.4771 26.2843 22.9019 26.4495 22.9208 26.4688C22.9397 26.4882 22.9696 26.7054 22.9874 26.9515L23.0198 27.3991L21.6767 28.3714C20.938 28.9063 20.3 29.3409 20.2591 29.3372C20.2181 29.3335 20.0196 29.2694 19.8179 29.1948Z"
				fill="#0A080C"/>
			<path
				d="M29.7087 30.164L29.0332 29.3355V28.1404V26.9453L29.1675 27.1107C29.5216 27.5471 30.0198 28.6795 30.2442 29.5582C30.3527 29.9833 30.4726 31.0011 30.4135 30.9953C30.3971 30.9938 30.0797 30.6196 29.7081 30.164H29.7087Z"
				fill="#0A080C"/>
			<path
				d="M16.8133 30.732C16.9044 29.5947 17.3205 28.3634 17.9392 27.4006C18.0511 27.2264 18.157 27.0838 18.1746 27.0835C18.1922 27.0832 18.2118 27.4986 18.2181 28.0066C18.2243 28.5146 18.2415 29.0047 18.2562 29.0957C18.2795 29.2405 18.1932 29.3775 17.5626 30.1962C17.1664 30.7105 16.8275 31.1447 16.8094 31.1612C16.7913 31.1776 16.793 30.9845 16.8133 30.732Z"
				fill="#0A080C"/>
			<path
				d="M22.0114 31.1715C21.7459 30.553 21.6436 30.0013 21.6529 29.9947C21.9917 29.7532 23.5092 28.6621 23.5566 28.6259C23.6029 28.5906 23.9282 28.7971 24.6113 29.2956L25.599 30.0163L25.2291 31.1617L24.8591 32.017L23.6229 32.9642L22.3868 32.0462L22.0114 31.1715Z"
				fill="#0A080C"/>
			<path
				d="M19.3864 33.9991C18.8274 33.836 18.3529 33.6834 18.3318 33.6601C18.3108 33.6368 18.1647 33.2279 18.0071 32.7514L17.7207 31.8852L18.3922 31.0278C18.7615 30.5563 19.0797 30.1612 19.0991 30.1499C19.1186 30.1386 19.3313 30.1946 19.5719 30.2744L20.0092 30.4195L20.1666 32.4243L21.0274 33.5498L20.7441 33.9284C20.5883 34.1366 20.4477 34.3045 20.4318 34.3013C20.4158 34.2982 19.9454 34.1622 19.3864 33.9991Z"
				fill="#0A080C"/>
			<path
				d="M22.0318 35.9338L21.4238 35.0243L21.6807 34.638L21.9375 34.2517L23.607 33.6362L25.2765 34.2517L25.5289 34.6128C25.6677 34.8114 25.7813 34.9905 25.7813 35.0109C25.7813 35.0313 25.5145 35.4514 25.1885 35.9445L24.5957 36.841L23.6178 36.8422L22.6398 36.8435L22.0318 35.9339V35.9338Z"
				fill="#0A080C"/>
			<path
				d="M25.7043 37.3813C25.7264 37.3434 25.9963 36.9275 26.3041 36.4572L26.8637 35.6021L27.9352 35.2761C28.5245 35.0967 29.0406 34.9381 29.082 34.9235C29.339 34.8329 28.4592 35.7895 27.8428 36.2709C27.3366 36.6661 26.6644 37.0684 26.1219 37.3009C25.7361 37.4663 25.6444 37.4839 25.7043 37.3813Z"
				fill="#0A080C"/>
			<path
				d="M21.0542 37.2582C20.3156 36.9143 19.4147 36.2669 18.8543 35.6774C18.5603 35.3682 18.1699 34.8944 18.1699 34.8469C18.1699 34.8316 18.6549 34.9706 19.2477 35.1558L20.3256 35.4926L20.905 36.3749C21.6159 37.4572 21.6124 37.4511 21.5217 37.4465C21.4828 37.4446 21.2724 37.3598 21.0542 37.2582Z"
				fill="#0A080C"/>
			<path
				d="M28.0101 33.9991C28.5691 33.836 29.0437 33.6834 29.0647 33.6601C29.0858 33.6368 29.2319 33.2279 29.3894 32.7514L29.6758 31.8852L29.0043 31.0278C28.635 30.5563 28.3169 30.1612 28.2974 30.1499C28.278 30.1386 28.0652 30.1946 27.8247 30.2744L27.3873 30.4195L27.23 32.4243L26.3691 33.5498L26.6524 33.9284C26.8083 34.1366 26.9488 34.3045 26.9648 34.3013C26.9807 34.2982 27.4511 34.1622 28.0101 33.9991Z"
				fill="#0A080C"/>
			<path
				d="M23.6115 22.1147C18.7846 22.1147 14.8633 26.0366 14.8633 30.8635C14.8633 35.6904 18.7846 39.6117 23.6115 39.6117C28.4384 39.6117 32.3602 35.6904 32.3602 30.8635C32.3602 26.0366 28.4384 22.1147 23.6115 22.1147ZM23.6115 22.9138C28.0067 22.9138 31.5612 26.4683 31.5612 30.8635C31.5612 35.2587 28.0067 38.8132 23.6115 38.8132C19.2162 38.8132 15.6618 35.2587 15.6618 30.8635C15.6618 26.4682 19.2162 22.9138 23.6115 22.9138Z"
				fill="#0A080C"/>
			<path
				d="M23.487 9.74609L6.38645 11.3391C6.37398 12.3354 6.39338 13.3323 6.44788 14.3276L23.3516 12.5367L40.769 14.4029C40.8196 13.5114 40.8432 12.6189 40.8404 11.7272L23.487 9.74609Z"
				fill="#0A080C"/>
			<path
				d="M23.4849 15.2466L6.64453 16.7458C6.75317 17.7307 6.89603 18.7112 7.07257 19.6854L23.3495 18.037L40.133 19.7471C40.293 18.8679 40.4278 17.9837 40.533 17.0958L23.4849 15.2466Z"
				fill="#0A080C"/>
			<path
				d="M23.4904 4.61377L6.74834 6.17345C6.62469 7.13339 6.53227 8.09857 6.4707 9.0665L23.3612 7.27685L40.7581 9.14085C40.7156 8.4398 40.6576 7.74046 40.5826 7.04423C40.5368 6.90215 40.5051 6.7332 40.4788 6.5531L23.4904 4.61377Z"
				fill="#0A080C"/>
		</svg>
	