
		<svg width="100%" height="100%" viewBox="0 0 48 48" fill="none" xmlns="http://www.w3.org/2000/svg">
			<path
				d="M43.2657 0V29.2426C43.2657 36.0872 42.2219 47.7839 24.0332 47.9994C7.51236 48.0978 4.80078 36.8908 4.80078 29.2426V0H43.2657Z"
				fill="#FFFFFF"/>
			<path
				d="M42.3621 1.12402V28.9966C42.3621 35.5206 41.3672 46.6693 24.0306 46.8747C8.28375 46.9686 5.69922 36.2866 5.69922 28.9966V1.12402H42.3621Z"
				fill="#0A080C"/>
			<path
				d="M41.8705 1.73926V28.8625C41.8705 35.2111 40.9023 46.06 24.0319 46.2599C8.70838 46.3512 6.19336 35.9564 6.19336 28.8625V1.73926H41.8705Z"
				fill="#FFFFFF"/>
			<path
				d="M40.6747 3.23047V28.5373C40.6747 34.4608 39.7714 44.5832 24.0307 44.7697C9.73333 44.8549 7.38672 35.1562 7.38672 28.5373V3.23047H40.6747Z"
				fill="#0A080C"/>
			<path
				d="M25.8203 2.53489V45.6545C26.1137 45.6616 26.4105 45.6662 26.7146 45.6641C27.0189 45.6603 27.3158 45.6514 27.6091 45.6399V2.53467L25.8203 2.53489Z"
				fill="#FFFFFF"/>
			<path
				d="M11.7229 13.4966L12.1125 15.4676L12.116 23.0545C12.1192 29.852 12.116 38.9744 12.116 38.9744C12.4055 39.2929 13.3353 40.1789 13.7185 40.4307L13.6864 30.9728L14.2659 30.404L14.8455 29.8349L14.8933 38.609L14.9106 41.124C15.4011 41.3766 15.9249 41.6091 16.4844 41.8183V38.4197V28.3511L17.0698 27.8092L17.6552 27.2673L17.6961 38.1403L17.7088 42.2225C18.21 42.3669 18.7364 42.4943 19.2888 42.6036C19.292 40.8316 19.2939 38.571 19.2939 37.5426V25.72L19.8792 25.2086L20.4646 24.6973L20.5051 37.7382L20.5162 42.809C21.0253 42.8801 21.5535 42.9376 22.1036 42.9791V33.2632C22.1036 21.7912 22.1163 15.3913 22.3975 14.9338C22.5592 14.671 22.736 14.2772 22.7907 14.0586L22.89 13.6613C20.006 15.2028 13.8971 15.5096 11.7227 13.4966H11.7229ZM20.2911 16.8515C17.7904 19.1753 17.3291 20.005 14.2992 17.0413C16.5364 18.1485 17.9961 18.1059 20.2911 16.8515ZM13.6748 18.6517C16.8598 21.0962 17.457 21.2491 20.4902 18.8637C20.5243 18.8637 20.5325 19.6928 20.5086 20.7062L20.4649 22.5487L17.177 22.5875C15.3686 22.609 13.8408 22.5819 13.7819 22.5274C13.723 22.4728 13.6749 21.5785 13.6748 20.54L13.6748 18.6517Z"
				fill="#FFFFFF"/>
			<path
				d="M39.0388 34.8745C34.0574 34.8745 29.6814 37.498 27.2168 41.4361V44.8332C28.8741 39.8939 33.5355 36.3429 39.0388 36.3429C39.5568 36.3429 40.0673 36.3749 40.5686 36.4361C40.6375 35.9827 40.6961 35.4983 40.7464 34.9791C40.1866 34.9105 39.6169 34.8745 39.0388 34.8745Z"
				fill="#FFFFFF"/>
			<path
				d="M39.0388 25.1377C34.7115 25.1377 30.6642 26.3476 27.2168 28.447V30.4638C30.5868 28.1783 34.6552 26.8432 39.0388 26.8432C39.7062 26.8432 40.366 26.8757 41.0175 26.9362C41.0242 26.3496 41.0289 25.7831 41.0323 25.2257C40.3752 25.1686 39.7107 25.1377 39.0389 25.1377H39.0388Z"
				fill="#FFFFFF"/>
			<path d="M26.1367 4.77734V6.1309H41.5036V4.77734H26.1367Z" fill="#FFFFFF"/>
			<path d="M26.123 7.82617V9.19258H41.5047V7.82617H26.123Z" fill="#FFFFFF"/>
			<path d="M26.123 10.7568V12.1232H41.5047V10.7568H26.123Z" fill="#FFFFFF"/>
			<path d="M26.123 13.7891V15.1555H41.5047V13.7891H26.123Z" fill="#FFFFFF"/>
			<path d="M38.5078 14.4355L38.5391 26.3354L38.5078 14.4355Z" fill="#FFFFFF"/>
			<path d="M39.1266 14.4336L37.8906 14.4369L37.9218 26.3368L39.1578 26.3335L39.1266 14.4336Z" fill="#FFFFFF"/>
			<path d="M35.4766 14.4404L35.5078 26.4457L35.4766 14.4404Z" fill="#FFFFFF"/>
			<path d="M36.0953 14.4385L34.8594 14.4417L34.8909 26.447L36.1265 26.4439L36.0953 14.4385Z" fill="#FFFFFF"/>
			<path d="M32.541 14.4453L32.5724 27.3641L32.541 14.4453Z" fill="#FFFFFF"/>
			<path d="M33.1598 14.4434L31.9238 14.4463L31.9553 27.3653L33.1913 27.362L33.1598 14.4434Z" fill="#FFFFFF"/>
			<path d="M29.5078 14.4492L29.5393 28.1762L29.5078 14.4492Z" fill="#FFFFFF"/>
			<path d="M30.1266 14.4482L28.8906 14.4512L28.9221 28.1779L30.1581 28.175L30.1266 14.4482Z" fill="#FFFFFF"/>
			<path
				d="M17.5908 8.2295C17.5955 8.23221 17.6017 8.23828 17.6088 8.24941C17.6156 8.26048 17.6239 8.27606 17.633 8.29544C17.6508 8.33419 17.6719 8.38812 17.6951 8.4536C17.7182 8.51906 17.7433 8.59597 17.7691 8.68038C17.7948 8.76474 17.8211 8.85658 17.8466 8.95198L18.0319 9.64586L17.4148 10.0547C17.3299 10.1109 17.248 10.164 17.1726 10.2119C17.0972 10.2598 17.0283 10.3025 16.9694 10.3378C16.9105 10.3731 16.8619 10.4013 16.8267 10.4197C16.8089 10.429 16.7949 10.4357 16.7847 10.4402C16.7741 10.4444 16.7683 10.446 16.7656 10.4447C16.7563 10.4394 16.6903 10.3863 16.5902 10.3048C16.4901 10.2234 16.3565 10.1137 16.2134 9.99537C16.1419 9.93623 16.0731 9.87807 16.0098 9.82356C15.9464 9.76906 15.8886 9.71826 15.8395 9.67376C15.7903 9.62931 15.7497 9.59114 15.7206 9.56205C15.7063 9.54773 15.6943 9.53532 15.686 9.52568C15.6777 9.51608 15.6727 9.50922 15.6712 9.50471C15.6682 9.50016 15.6712 9.49216 15.6739 9.47949C15.6739 9.46613 15.6807 9.45021 15.6872 9.43017C15.6998 9.38986 15.7191 9.33562 15.7436 9.271C15.7686 9.20656 15.7988 9.13174 15.8334 9.05096C15.8663 8.96942 15.9059 8.88293 15.9466 8.79336L16.2431 8.14209L16.8825 8.17159C16.9705 8.1755 17.0563 8.18003 17.1363 8.18509C17.2163 8.19014 17.2903 8.1955 17.3546 8.20074C17.4189 8.20612 17.4735 8.21119 17.5143 8.21622C17.5551 8.22095 17.5824 8.22581 17.592 8.22972L17.5908 8.2295Z"
				fill="#FFFFFF"/>
			<path
				d="M19.8625 7.3809C19.849 7.35993 19.8351 7.33891 19.8207 7.31832C19.793 7.2767 19.7637 7.23612 19.7338 7.19614C19.7038 7.15624 19.6733 7.117 19.6415 7.07863C19.6099 7.04022 19.5773 7.0026 19.544 6.96582C19.5106 6.929 19.4764 6.89302 19.4416 6.85785C19.4066 6.82269 19.3709 6.78837 19.3345 6.75487C19.298 6.72135 19.2608 6.68871 19.2228 6.65686C19.1849 6.62506 19.1464 6.5941 19.1071 6.564C19.0678 6.53393 19.0278 6.50489 18.9873 6.47657C18.9467 6.44834 18.9056 6.42095 18.8638 6.3945C18.8221 6.36793 18.7798 6.34248 18.7369 6.31785C18.694 6.29315 18.6505 6.26951 18.6066 6.24679C18.5628 6.22422 18.5184 6.20245 18.4735 6.18166C18.4288 6.16096 18.3833 6.14097 18.3376 6.12219C18.2918 6.10332 18.2457 6.08562 18.1992 6.06879C18.1526 6.05182 18.1057 6.03631 18.0585 6.02157C18.0114 6.00692 17.9638 5.99311 17.9159 5.98043C17.8681 5.96788 17.8198 5.95627 17.7715 5.94562C17.723 5.93503 17.6744 5.9257 17.6256 5.91724C17.5767 5.90894 17.5276 5.90158 17.4784 5.89544C17.4292 5.88942 17.3797 5.88437 17.3302 5.88031C17.2807 5.8764 17.231 5.87363 17.1813 5.87186C17.1316 5.86915 17.0816 5.86914 17.0317 5.86914C16.9817 5.86914 16.9319 5.87186 16.8819 5.87454C16.8321 5.87779 16.782 5.8817 16.7321 5.88709C16.682 5.89214 16.6321 5.89882 16.5824 5.90674C16.5327 5.91471 16.4828 5.92347 16.4332 5.93379C16.3837 5.94421 16.3342 5.95558 16.2848 5.96829C16.2355 5.98132 16.1861 5.99497 16.1371 6.01026C16.0847 6.02672 16.033 6.04414 15.9819 6.06255C15.931 6.08115 15.881 6.10094 15.8315 6.12151C15.7821 6.14224 15.7333 6.16372 15.6855 6.18649C15.6376 6.20933 15.5904 6.23288 15.5442 6.25768C15.4974 6.28161 15.4526 6.30835 15.4076 6.33451C15.3635 6.36199 15.3196 6.38935 15.2759 6.41662C15.2346 6.44764 15.1909 6.4748 15.1494 6.50465C15.1085 6.53544 15.0678 6.56621 15.0281 6.59797C14.9885 6.62977 14.9498 6.66272 14.912 6.69637C14.8743 6.73007 14.8372 6.76445 14.8012 6.79954C14.7653 6.83487 14.7298 6.87033 14.6959 6.90752C14.662 6.94466 14.6287 6.98191 14.5964 7.02011C14.5642 7.05855 14.5329 7.09752 14.5024 7.137C14.4722 7.1768 14.4425 7.21716 14.4141 7.25813C14.3858 7.29934 14.3582 7.34083 14.3318 7.38301C14.3055 7.42551 14.2799 7.46827 14.2557 7.51186C14.2309 7.55506 14.2079 7.5995 14.1854 7.64414C14.1621 7.68832 14.1409 7.73376 14.1222 7.78026C14.1013 7.82574 14.0827 7.8724 14.0646 7.91927C14.0469 7.96642 14.0295 8.0134 14.0134 8.06115C13.9971 8.10885 13.9826 8.15728 13.9688 8.20602C13.955 8.25451 13.9423 8.30383 13.9308 8.3534C13.9194 8.40296 13.9087 8.45281 13.8994 8.50313C13.8901 8.55343 13.8821 8.60412 13.875 8.65517C13.8681 8.70611 13.8619 8.75764 13.8574 8.80938C13.8527 8.86087 13.8495 8.91304 13.847 8.96532C13.8443 9.01776 13.8436 9.07007 13.8438 9.12291C13.8438 9.1757 13.8465 9.22882 13.8477 9.28209C13.8504 9.33534 13.854 9.38883 13.8591 9.44251C13.8642 9.49619 13.8705 9.55002 13.8779 9.60406C13.8856 9.65808 13.8944 9.71225 13.9045 9.76651C13.9146 9.82078 13.926 9.87529 13.9387 9.92979C13.9525 9.98915 13.9679 10.0476 13.9847 10.1053C14.0017 10.1629 14.0199 10.2197 14.0397 10.2756C14.0593 10.3316 14.0807 10.3866 14.1033 10.4406C14.1259 10.4947 14.1498 10.548 14.1751 10.6002C14.2003 10.6525 14.2271 10.7037 14.255 10.754C14.2829 10.8042 14.312 10.8537 14.3426 10.9019C14.373 10.9502 14.4049 10.9975 14.4375 11.0439C14.4704 11.0901 14.5042 11.1355 14.5393 11.1798C14.5744 11.224 14.6108 11.2672 14.648 11.3094C14.6853 11.3515 14.7236 11.3925 14.763 11.4324C14.8024 11.4723 14.8428 11.5111 14.8841 11.5488C14.9256 11.5865 14.9679 11.6231 15.0111 11.6585C15.0544 11.6939 15.0986 11.728 15.1437 11.7611C15.1886 11.7942 15.2346 11.8261 15.2813 11.8567C15.328 11.8873 15.3756 11.9168 15.4239 11.9451C15.4721 11.9732 15.5212 12.0002 15.571 12.0259C15.6208 12.0516 15.6712 12.076 15.7223 12.0992C15.7734 12.1223 15.8252 12.1441 15.8776 12.1647C15.93 12.1851 15.9829 12.2044 16.0364 12.2223C16.0899 12.2401 16.1441 12.2566 16.1986 12.2717C16.2531 12.2868 16.3082 12.3006 16.3638 12.313C16.4193 12.3255 16.4753 12.3363 16.5316 12.3458C16.5879 12.3551 16.6447 12.3634 16.7019 12.37C16.759 12.3767 16.8165 12.3819 16.8743 12.3857C16.9321 12.3894 16.99 12.3915 17.0483 12.3923C17.1064 12.3923 17.1652 12.3922 17.2239 12.3896C17.2826 12.3869 17.3415 12.3836 17.4005 12.3782C17.4594 12.3727 17.5187 12.366 17.578 12.3572C17.637 12.3483 17.6966 12.3384 17.756 12.3267C17.8156 12.3152 17.8748 12.3017 17.9341 12.2866C17.9934 12.2715 18.0529 12.255 18.1121 12.2365C18.1714 12.2182 18.2309 12.1984 18.2898 12.1764C18.3426 12.1568 18.3951 12.1365 18.4463 12.1141C18.4977 12.092 18.548 12.0685 18.5977 12.0441C18.6473 12.0194 18.6961 11.9936 18.7437 11.9664C18.7926 11.9411 18.8392 11.9121 18.8855 11.8832C18.9318 11.8544 18.9756 11.8219 19.0207 11.7919C19.0644 11.7595 19.1081 11.7277 19.1502 11.6938C19.1927 11.6603 19.2338 11.6254 19.2737 11.5892C19.3139 11.5534 19.3533 11.5166 19.3916 11.479C19.4302 11.4417 19.4671 11.4026 19.5035 11.3633C19.5399 11.3239 19.575 11.2836 19.6091 11.2423C19.6432 11.201 19.6764 11.159 19.7084 11.1162C19.7404 11.0732 19.7713 11.0295 19.8012 10.9852C19.8311 10.9407 19.8599 10.8958 19.8875 10.8499C19.9151 10.804 19.9415 10.7576 19.967 10.7106C19.9926 10.6637 20.0168 10.6158 20.04 10.5676C20.0626 10.5191 20.0851 10.4704 20.1053 10.4207C20.1255 10.3711 20.1457 10.3214 20.1639 10.2709C20.1825 10.2205 20.1995 10.1694 20.2156 10.1181C20.2316 10.0669 20.2462 10.015 20.2598 9.96293C20.2731 9.91062 20.2855 9.85822 20.2965 9.80541C20.3076 9.75259 20.3172 9.69952 20.3257 9.64607C20.3345 9.59282 20.3414 9.53879 20.3472 9.48482C20.3533 9.43107 20.3576 9.37678 20.3611 9.32249C20.3642 9.26809 20.3661 9.21356 20.3666 9.15893C20.3666 9.10424 20.3666 9.04954 20.3639 8.99471C20.3612 8.9399 20.358 8.88499 20.3533 8.83003C20.3486 8.77509 20.3422 8.72027 20.3344 8.66533C20.3268 8.6104 20.3174 8.55536 20.307 8.50063C20.2964 8.44577 20.2844 8.39105 20.271 8.3365C20.2574 8.2819 20.2425 8.22743 20.2261 8.17316C20.2097 8.11885 20.1917 8.06473 20.1724 8.01086C20.153 7.95696 20.1321 7.90338 20.1097 7.85C20.0897 7.80283 20.0689 7.75638 20.0469 7.71059C20.0249 7.66479 20.0019 7.61972 19.9778 7.5753C19.9537 7.53103 19.9287 7.48725 19.9026 7.44429C19.8896 7.42304 19.8763 7.40154 19.8628 7.38037L19.8625 7.3809ZM19.342 7.25409C19.3555 7.27347 19.3672 7.29201 19.3761 7.31076C19.3852 7.32962 19.392 7.34835 19.3963 7.36832C19.4005 7.38824 19.4025 7.40936 19.4025 7.43299C19.4023 7.45661 19.3992 7.48194 19.3942 7.51087C19.3891 7.53979 19.3815 7.57179 19.3713 7.60803C19.3615 7.64453 19.3493 7.68485 19.3343 7.73052C19.3196 7.77639 19.3023 7.82731 19.2826 7.88452C19.1882 8.15927 19.0868 8.44648 19.0571 8.52287C19.0502 8.53801 19.0465 8.5532 19.0436 8.56681C19.0409 8.58113 19.0406 8.59449 19.0436 8.60843C19.0463 8.62245 19.0511 8.63633 19.0597 8.65166C19.0681 8.66713 19.0804 8.68274 19.0963 8.70067C19.1126 8.71845 19.1325 8.73803 19.1574 8.76005C19.1823 8.78208 19.2118 8.80649 19.2468 8.83403C19.3167 8.88918 19.408 8.95689 19.526 9.04296C19.6438 9.12892 19.7355 9.19695 19.8069 9.25382C19.8425 9.28217 19.8732 9.30781 19.8995 9.33146C19.9258 9.35481 19.9479 9.37662 19.9664 9.39703C19.9847 9.41749 19.9997 9.43677 20.0118 9.45562C20.0237 9.47449 20.0325 9.49326 20.0399 9.51206C20.0471 9.53066 20.0522 9.55051 20.0556 9.57095C20.0593 9.59165 20.0615 9.61379 20.0631 9.63773C20.0631 9.65109 20.0631 9.66663 20.0631 9.6849C20.0604 9.70323 20.0585 9.72349 20.0546 9.7456C20.047 9.79014 20.035 9.84219 20.02 9.89901C20.0052 9.95587 19.987 10.0173 19.9667 10.0805C19.9465 10.1438 19.924 10.2089 19.9006 10.2729C19.8772 10.337 19.8529 10.3999 19.8284 10.4588C19.8043 10.5179 19.7798 10.5728 19.7563 10.6209C19.7338 10.6694 19.7108 10.7104 19.6907 10.7419C19.6806 10.7576 19.6708 10.771 19.6623 10.7817C19.6535 10.7922 19.6453 10.8 19.6378 10.8045C19.6339 10.8072 19.6243 10.8077 19.6142 10.8121C19.6025 10.8148 19.5882 10.8172 19.5702 10.819C19.5347 10.8232 19.4873 10.8273 19.4315 10.8304C19.3756 10.8336 19.3113 10.8359 19.2418 10.8375C19.1724 10.8402 19.0979 10.8402 19.0216 10.8402C18.869 10.8402 18.726 10.8402 18.6185 10.845C18.5646 10.8477 18.5198 10.8492 18.487 10.8518C18.4542 10.8545 18.4336 10.8577 18.4282 10.8608C18.4248 10.8608 18.4214 10.8692 18.4165 10.878C18.4119 10.8882 18.4056 10.9014 18.3979 10.9179C18.3824 10.9509 18.3645 10.9979 18.3429 11.0544C18.3214 11.1108 18.297 11.1773 18.2712 11.2502C18.2455 11.3231 18.2181 11.4024 18.1907 11.4848L17.9916 12.0843L17.7079 12.1307C17.6626 12.1382 17.6122 12.1442 17.5585 12.1496C17.5049 12.1551 17.4475 12.1591 17.3883 12.1622C17.329 12.1655 17.2679 12.1678 17.2062 12.1689C17.1444 12.1689 17.0822 12.1716 17.0211 12.1689C16.96 12.1689 16.8999 12.1662 16.8422 12.1636C16.7845 12.1605 16.7294 12.1572 16.6783 12.1526C16.6272 12.1481 16.58 12.1425 16.5384 12.1362C16.4969 12.1298 16.4607 12.1223 16.4316 12.1138C16.4103 12.1078 16.3917 12.1021 16.3744 12.0952C16.3572 12.0884 16.3419 12.0806 16.3276 12.0716C16.3133 12.062 16.3002 12.0509 16.2876 12.0365C16.2754 12.0222 16.2631 12.0054 16.2508 11.9841C16.2386 11.9628 16.2267 11.9381 16.2139 11.9082C16.2012 11.8784 16.1878 11.8434 16.1731 11.8025C16.1438 11.7208 16.1096 11.6153 16.0659 11.4775C16.0148 11.3166 15.9658 11.1662 15.928 11.0534C15.8901 10.9406 15.8635 10.8655 15.8571 10.8554C15.8544 10.8519 15.8497 10.8503 15.8401 10.8477C15.8304 10.845 15.8168 10.843 15.7997 10.8401C15.7657 10.8353 15.7179 10.8305 15.66 10.8266C15.602 10.8223 15.5341 10.8189 15.4593 10.8161C15.3845 10.8131 15.3031 10.8114 15.2185 10.8103C15.1187 10.8103 15.0288 10.8052 14.9497 10.7994C14.9102 10.7963 14.8733 10.7927 14.8392 10.7888C14.8049 10.7845 14.7735 10.7803 14.7449 10.7749C14.7163 10.7699 14.6905 10.7638 14.6676 10.7577C14.6448 10.7516 14.6246 10.7446 14.6075 10.7375C14.5905 10.7303 14.5761 10.7223 14.565 10.7139C14.5539 10.7054 14.5456 10.6969 14.5408 10.6876C14.5254 10.6583 14.5089 10.6256 14.4925 10.59C14.476 10.5543 14.4596 10.5159 14.4431 10.4753C14.41 10.3943 14.3772 10.3052 14.3469 10.2145C14.3166 10.1238 14.2889 10.0316 14.2658 9.94454C14.2544 9.90112 14.244 9.85873 14.2352 9.81858C14.2262 9.77818 14.2187 9.74021 14.2132 9.70501C14.2076 9.67068 14.2028 9.6403 14.1997 9.61294C14.1962 9.58564 14.1941 9.56141 14.1938 9.53952C14.1938 9.51773 14.1938 9.49804 14.1985 9.48001C14.2019 9.46196 14.2078 9.44526 14.216 9.42937C14.2235 9.41309 14.2351 9.39851 14.2489 9.38318C14.2628 9.36771 14.2795 9.35251 14.2999 9.33671C14.3193 9.31944 14.3437 9.30339 14.3711 9.28469C14.3971 9.26345 14.4284 9.2437 14.4642 9.22142C14.5057 9.19566 14.5508 9.16231 14.6 9.12945C14.6479 9.09443 14.6994 9.05894 14.7492 9.02175C14.7991 8.98458 14.8483 8.9472 14.8934 8.91138C14.9389 8.876 14.9801 8.84176 15.015 8.81236L15.267 8.59618L15.0811 7.97723C15.0556 7.89214 15.0317 7.8085 15.0105 7.72995C14.9893 7.65147 14.9708 7.57814 14.9558 7.51399C14.941 7.44983 14.9295 7.39474 14.9224 7.35265C14.9187 7.33141 14.9165 7.31393 14.9156 7.29977C14.9156 7.28575 14.9156 7.27561 14.9156 7.26928C14.9156 7.26164 14.9227 7.25363 14.9283 7.24195C14.9359 7.23154 14.9456 7.21911 14.9574 7.20513C14.9813 7.17747 15.0153 7.14543 15.0557 7.10947C15.0963 7.07386 15.1431 7.03416 15.1939 6.99271C15.245 6.95169 15.3001 6.90902 15.3567 6.86669C15.4134 6.82432 15.4715 6.78229 15.5289 6.74287C15.5855 6.70235 15.642 6.66561 15.6945 6.6323C15.7473 6.5994 15.7956 6.56928 15.8391 6.54739C15.8619 6.53842 15.8807 6.52667 15.8983 6.51786C15.9172 6.51118 15.9324 6.50303 15.9464 6.49875C15.9634 6.49337 15.9804 6.48948 15.9981 6.48783C16.0159 6.48512 16.0339 6.48513 16.0533 6.49054C16.0727 6.49325 16.0929 6.49804 16.115 6.50568C16.1373 6.51332 16.1605 6.52318 16.1861 6.53611C16.2119 6.54881 16.2395 6.5646 16.2698 6.5833C16.3 6.6019 16.333 6.62358 16.369 6.64867C16.4409 6.69867 16.5253 6.76197 16.6261 6.84037L17.134 7.23558L17.7034 6.83782L18.2728 6.44009L18.7024 6.71892C18.7615 6.75725 18.8224 6.7993 18.8819 6.84235C18.9414 6.88552 18.9996 6.9297 19.0531 6.97241C19.1066 7.01515 19.1554 7.05632 19.1964 7.09351C19.2374 7.13061 19.2706 7.16378 19.2927 7.19027C19.311 7.21232 19.3272 7.23247 19.3409 7.25183L19.342 7.25409Z"
				fill="#FFFFFF"/>
		</svg>
	