
		<svg width="100%" height="100%" viewBox="0 0 48 48" fill="none" xmlns="http://www.w3.org/2000/svg">
			<path
				d="M44.2303 22.8071H3.89062C5.31466 35.6821 11.3581 42.0081 24.0606 48C36.763 42.0081 42.8063 35.6821 44.2303 22.8071Z"
				fill="#0A080C"/>
			<path
				d="M11.4285 0C9.29142 3.41024 7.33694 4.87784 4.1475 5.30044C3.84741 8.50498 3.66132 11.447 3.59961 14.1586H44.5707C44.5091 11.447 44.323 8.50498 44.0229 5.30044C40.8334 4.87784 38.8791 3.41021 36.742 0H11.4285Z"
				fill="#0A080C"/>
			<path
				d="M12.3824 1.75684C10.4017 4.91747 8.59041 6.27762 5.63439 6.6693C3.41133 30.4047 7.93948 38.6144 24.1128 46.2434C40.2861 38.6144 44.8142 30.4047 42.5911 6.6693C39.6351 6.27762 37.8238 4.91743 35.8431 1.75684H12.3824Z"
				fill="#FFFFFF"/>
			<path
				d="M24.0539 24.2554C23.7035 24.2554 23.3531 24.3507 22.9345 24.5414L21.8151 25.0515V36.8663C21.8151 39.2083 21.8195 41.0002 21.83 42.521C22.541 42.8937 23.284 43.2622 24.0614 43.629C24.8335 43.2648 25.5714 42.8988 26.278 42.5287C26.2889 41.0066 26.2929 39.2121 26.2929 36.8663V25.0515L25.1734 24.5414C24.7548 24.3507 24.4044 24.2554 24.0541 24.2554H24.0539ZM9.23047 25.0708L9.23967 26.0253C9.87859 30.4642 11.3323 33.8093 13.7708 36.5811L13.755 25.0708H11.4926H9.23047ZM15.5466 25.0708V36.9962C15.5466 37.4767 15.5509 37.9009 15.5509 38.3554C16.8347 39.4861 18.3208 40.5269 20.0244 41.5228V37.5146V25.0708H17.7856H15.5466ZM28.0836 25.0708V37.5146V41.5314C29.7869 40.5367 31.2732 39.4973 32.5573 38.3683C32.5573 37.9097 32.5617 37.4812 32.5617 36.9962V25.0708H30.3229H28.0836ZM34.3672 25.0708L34.3514 36.5811C36.7898 33.8095 38.2435 30.4646 38.8824 26.0262L38.8921 25.0708H36.6299H34.3672Z"
				fill="#0A080C"/>
			<path
				d="M14.5069 4.02148C14.1298 4.62323 13.76 5.14183 13.3843 5.59194V11.3773H16.191H18.9977V4.02148H14.5069ZM21.2431 4.02148V11.4015L22.6465 12.041C23.1714 12.2801 23.6106 12.3995 24.0498 12.3995C24.489 12.3995 24.9283 12.2801 25.4532 12.041L26.8565 11.4015V4.02148H21.2431ZM29.1019 4.02148V11.3773H31.9087H34.7156V5.56978C34.3461 5.12464 33.9822 4.61353 33.6112 4.02148H29.1019ZM11.144 7.4158C10.51 7.72146 9.81272 7.91564 9.01186 8.02176C8.90286 9.18562 8.81438 10.3025 8.74609 11.3773H11.1385L11.144 7.4158ZM36.9742 7.4158L36.9799 11.3773H39.3721C39.3039 10.3025 39.2154 9.18562 39.1064 8.02176C38.3056 7.91564 37.6083 7.72144 36.9744 7.4158H36.9742Z"
				fill="#0A080C"/>
			<path
				d="M13.6348 20.9449V15.5063H15.5382L16.4783 20.2456H16.6182L17.5583 15.5063H19.4617V20.9449H18.4673V16.26H18.3274L17.3951 20.9449H15.7014L14.7691 16.26H14.6292V20.9449H13.6348Z"
				fill="#0A080C"/>
			<path
				d="M31.2421 21.0536C30.7966 21.0536 30.4133 20.9733 30.0922 20.8128C29.7763 20.647 29.5328 20.414 29.3619 20.1135C29.1962 19.808 29.1133 19.448 29.1133 19.0336V15.5063H30.1388V19.0647C30.1388 19.3962 30.2321 19.6577 30.4185 19.8494C30.6102 20.041 30.8847 20.1369 31.2421 20.1369C31.5995 20.1369 31.8714 20.041 32.0578 19.8494C32.2495 19.6577 32.3453 19.3962 32.3453 19.0647V15.5063H33.3709V19.0336C33.3709 19.448 33.2854 19.808 33.1145 20.1135C32.9487 20.414 32.7053 20.647 32.3842 20.8128C32.0682 20.9733 31.6875 21.0536 31.2421 21.0536Z"
				fill="#0A080C"/>
			<path
				d="M24.0565 21.0535C23.6369 21.0535 23.2666 20.9784 22.9455 20.8282C22.6243 20.678 22.3731 20.463 22.1918 20.1834C22.0106 19.9037 21.9199 19.567 21.9199 19.1733V18.9558H22.9299V19.1733C22.9299 19.4997 23.0309 19.7457 23.2329 19.9114C23.4349 20.072 23.7095 20.1523 24.0565 20.1523C24.4087 20.1523 24.6703 20.0823 24.8412 19.9425C25.0173 19.8027 25.1053 19.624 25.1053 19.4064C25.1053 19.2562 25.0613 19.1345 24.9733 19.0413C24.8904 18.948 24.7661 18.8729 24.6003 18.816C24.4398 18.7538 24.2429 18.6968 24.0099 18.645L23.8312 18.6062C23.4582 18.5233 23.1371 18.4197 22.8678 18.2954C22.6036 18.1659 22.399 17.9976 22.254 17.7904C22.1142 17.5832 22.0442 17.3139 22.0442 16.9824C22.0442 16.6509 22.1219 16.3686 22.2773 16.1355C22.4379 15.8973 22.6606 15.716 22.9455 15.5917C23.2355 15.4622 23.5748 15.3975 23.9632 15.3975C24.3517 15.3975 24.6962 15.4648 24.9966 15.5995C25.3022 15.729 25.5404 15.9258 25.7113 16.1899C25.8874 16.4489 25.9755 16.7752 25.9755 17.1689V17.4019H24.9655V17.1689C24.9655 16.9617 24.9241 16.7959 24.8412 16.6716C24.7635 16.5421 24.6495 16.4489 24.4993 16.3919C24.3491 16.3298 24.1704 16.2987 23.9632 16.2987C23.6525 16.2987 23.422 16.3583 23.2718 16.4774C23.1268 16.5913 23.0542 16.7493 23.0542 16.9513C23.0542 17.086 23.0879 17.1999 23.1552 17.2932C23.2278 17.3864 23.3339 17.4641 23.4738 17.5262C23.6136 17.5884 23.7923 17.6428 24.0099 17.6894L24.1886 17.7283C24.577 17.8111 24.9137 17.9173 25.1986 18.0468C25.4886 18.1763 25.7139 18.3472 25.8745 18.5596C26.0351 18.7719 26.1153 19.0439 26.1153 19.3753C26.1153 19.7068 26.0299 19.9995 25.859 20.2533C25.6932 20.5019 25.455 20.6987 25.1442 20.8437C24.8386 20.9836 24.476 21.0535 24.0565 21.0535Z"
				fill="#0A080C"/>
		</svg>
	