
		<svg width="100%" height="100%" viewBox="0 0 48 48" fill="none" xmlns="http://www.w3.org/2000/svg">
			<path
				d="M39.9246 1.58447V34.1635L23.6439 46.2326L7.36328 34.1635V1.58447H23.6439H39.9246Z"
				fill="#0A080C"/>
			<path d="M8.31641 23.8281H38.9682V24.9334H8.31641V23.8281Z" fill="#FFFFFF"/>
			<path
				d="M14.9557 3.43362C14.8474 3.43849 14.7718 3.48332 14.6938 3.56629L14.5605 3.70805L14.9696 6.75646C15.1946 8.43305 15.4197 10.1238 15.4699 10.5137C15.6041 11.5547 15.653 11.5782 16.2035 10.8681C16.4152 10.5952 16.7486 10.1865 16.9446 9.95992C17.1406 9.73333 17.3147 9.49095 17.3314 9.42121C17.35 9.3435 17.0888 8.46238 16.6566 7.14535C16.2687 5.96339 15.9646 4.9617 15.9809 4.91933C16.0264 4.80083 16.1542 4.82595 16.5018 5.022C17.4877 5.578 18.6089 6.44075 19.6138 7.41649C20.3905 8.17062 20.4534 8.30372 20.1525 8.55644C18.8357 9.66246 18.1983 10.283 17.5114 11.1272C16.2933 12.6239 14.9685 14.9633 15.2468 15.1257C15.2702 15.1394 15.5766 15.0779 15.9276 14.989C16.7303 14.7859 17.3262 14.7106 18.1308 14.7106C19.0253 14.7106 19.0253 14.7106 18.4455 15.5692C18.1913 15.9457 17.9832 16.2911 17.9832 16.3367C20.3492 16.9313 22.3157 19.7378 23.7682 21.9133C25.2206 19.7378 27.1871 16.9313 29.5531 16.3367C29.5531 16.2911 29.345 15.9457 29.0908 15.5692C28.511 14.7106 28.511 14.7106 29.4055 14.7106C30.2102 14.7106 30.806 14.7859 31.6087 14.989C31.9597 15.0779 32.2661 15.1394 32.2895 15.1257C32.5678 14.9633 31.243 12.6239 30.0249 11.1272C29.338 10.283 28.7006 9.66246 27.3838 8.55644C27.0829 8.30372 27.1458 8.17062 27.9225 7.41649C28.9274 6.44075 30.0486 5.578 31.0345 5.022C31.3821 4.82595 31.5099 4.80083 31.5554 4.91933C31.5717 4.9617 31.2676 5.96339 30.8797 7.14535C30.4475 8.46238 30.1863 9.3435 30.2049 9.42121C30.2217 9.49095 30.3957 9.73333 30.5917 9.95992C30.7877 10.1865 31.1211 10.5952 31.3328 10.8681C31.8833 11.5782 31.9322 11.5547 32.0664 10.5137C32.1166 10.1238 32.3417 8.43305 32.5667 6.75646L32.9758 3.70805L32.8425 3.56629C32.7534 3.47146 32.6673 3.42636 32.5321 3.43392C32.397 3.44149 32.2129 3.50172 31.928 3.61747C28.8214 4.87986 26.3343 6.3978 24.8315 7.94864C24.4544 8.33785 24.3921 8.43022 24.3921 8.59956C24.3921 8.70811 24.4393 8.8578 24.4971 8.93219C24.555 9.00658 25.2569 10.0175 26.0568 11.1785C27.1369 12.7461 27.5114 13.3317 27.5114 13.4536C27.5114 13.5995 27.4594 13.6477 27.0434 13.8879C26.1529 14.4021 25.231 15.0717 24.2931 15.8854C24.0671 16.0815 23.8308 16.2419 23.7682 16.2419C23.7055 16.2419 23.4692 16.0815 23.2432 15.8854C22.3053 15.0717 21.3834 14.4021 20.4929 13.8879C20.0769 13.6477 20.0249 13.5995 20.0249 13.4536C20.0249 13.3317 20.3994 12.7461 21.4795 11.1785C22.2794 10.0175 22.9813 9.00658 23.0392 8.93219C23.097 8.8578 23.1442 8.70811 23.1442 8.59956C23.1442 8.43022 23.0819 8.33785 22.7048 7.94864C21.202 6.3978 18.7149 4.87986 15.6083 3.61747C15.3234 3.50172 15.1394 3.44149 15.0042 3.43392C14.9873 3.43297 14.9712 3.43294 14.9557 3.43362ZM23.7671 10.5421C23.5742 10.5421 23.5505 10.5694 22.7619 11.7047C22.113 12.6388 21.9571 12.9003 21.968 13.0353C21.9795 13.1764 22.0591 13.2572 22.4638 13.5384C22.7289 13.7226 23.0988 13.998 23.2859 14.1502C23.496 14.3212 23.6801 14.4261 23.7679 14.4249H23.7682H23.7685C23.8562 14.4262 24.0403 14.3212 24.2505 14.1502C24.4375 13.998 24.8074 13.7226 25.0726 13.5384C25.4772 13.2572 25.5568 13.1764 25.5683 13.0353C25.5793 12.9003 25.4233 12.6388 24.7744 11.7047C23.9858 10.5694 23.9621 10.5421 23.7692 10.5421H23.7682H23.7671Z"
				fill="#FFFFFF"/>
			<path
				d="M6 0V34.9213L23.6428 48L41.2862 34.9213V0H40.5147H23.6428H6ZM7.54319 1.54319H23.6428H39.7424V34.144L23.6428 46.079L7.54319 34.144V1.54319Z"
				fill="#FFFFFF"/>
			<path
				d="M8.41211 25.667V33.8609L11.8015 36.3735V25.667H8.41211ZM13.617 25.667V37.7195L17.0064 40.2321V25.667H13.617ZM19.0642 25.667V41.7575L22.4536 44.2702V25.667H19.0642ZM24.2692 25.667V44.6553L27.6586 42.1427V25.667H24.2692ZM29.8375 25.667V40.5275L33.2268 38.0149V25.667H29.8375ZM35.4867 25.667V36.3397L38.876 33.827V25.667H35.4867Z"
				fill="#FFFFFF"/>
			<path
				d="M31.8077 21.7491L31.0213 21.5305L30.2295 21.7281L30.1944 20.9128L29.7617 20.2207L30.5263 19.9354L31.0508 19.3101L31.5585 19.9491L32.3152 20.2546L31.8644 20.9349L31.8077 21.7491Z"
				fill="#FFFFFF"/>
			<path
				d="M17.9932 21.7491L17.2069 21.5305L16.415 21.7281L16.3799 20.9128L15.9473 20.2207L16.7119 19.9354L17.2363 19.3101L17.744 19.9491L18.5008 20.2546L18.0499 20.9349L17.9932 21.7491Z"
				fill="#FFFFFF"/>
		</svg>
	