
		<svg width="100%" height="100%" viewBox="0 0 48 48" fill="none" xmlns="http://www.w3.org/2000/svg">
			<path
				d="M10.9012 48H36.121C38.1719 48 39.8229 46.5464 39.8229 44.7409V3.25916C39.8229 1.45359 38.1719 0 36.121 0H10.9012C8.85029 0 7.19922 1.45359 7.19922 3.25916V44.7409C7.19922 46.5464 8.85029 48 10.9012 48Z"
				fill="#FFFFFF"/>
			<path
				d="M11.5446 46.8612H35.3953C37.4423 46.8612 39.0903 45.418 39.0903 43.6254V4.37498C39.0903 2.58233 37.4423 1.13916 35.3953 1.13916H11.5446C9.49758 1.13916 7.84961 2.58233 7.84961 4.37498V43.6254C7.84961 45.418 9.49758 46.8612 11.5446 46.8612Z"
				fill="#0A080C"/>
			<path d="M13.0566 46.8614H14.521V28.3936H13.0566V46.8614Z" fill="#FFFFFF"/>
			<path d="M16.3125 46.8614H17.7769V27.3359H16.3125V46.8614Z" fill="#FFFFFF"/>
			<path d="M9.96289 46.8614H11.4273V27.3359H9.96289V46.8614Z" fill="#FFFFFF"/>
			<path d="M22.5781 46.8614H24.0425V28.3936H22.5781V46.8614Z" fill="#FFFFFF"/>
			<path d="M25.8301 46.8614H27.3758V27.3359H25.8301V46.8614Z" fill="#FFFFFF"/>
			<path d="M19.4844 46.8614H20.9488V27.3359H19.4844V46.8614Z" fill="#FFFFFF"/>
			<path d="M32.1758 46.8614H33.6402V28.3936H32.1758V46.8614Z" fill="#FFFFFF"/>
			<path d="M35.4316 46.8614H36.896V27.3359H35.4316V46.8614Z" fill="#FFFFFF"/>
			<path d="M29.082 46.8614H30.5464V27.3359H29.082V46.8614Z" fill="#FFFFFF"/>
			<path
				d="M30.4092 7.92969V15.1733H27.5828V12.11L26.5834 13.0543L24.8854 14.6666L24.3373 15.1733H22.7468L22.1987 14.6666L20.4685 13.0543L19.4046 12.0755V15.1733H16.5781V7.92969H19.4046L23.5528 11.7876L27.5828 7.92969H30.4092Z"
				fill="#FFFFFF"/>
			<path
				d="M27.1207 16.67H20.2643C19.6194 16.67 19.4046 16.4397 19.4046 16.1748H16.5781C16.5781 16.1978 16.5781 16.2094 16.5781 16.2324C16.5781 17.9022 17.6636 19.0769 19.7484 19.0769H26.8198C27.3894 19.0769 27.6043 19.2957 27.6043 19.572V20.1018C27.6043 20.3896 27.3679 20.7006 26.3254 20.7006H22.5211H20.8446C19.9419 20.7006 19.598 20.3666 19.5442 19.9751H16.7716C16.7716 20.8964 17.2122 23.2457 20.7694 23.2457H22.5211H26.3147C29.3238 23.2339 30.3555 21.7025 30.4092 20.1018V19.572C30.4092 19.526 30.4092 19.4684 30.4092 19.4223C30.4092 17.7525 29.3023 16.67 27.1207 16.67Z"
				fill="#FFFFFF"/>
			<path
				d="M34.0675 23.6938L32.8184 22.9468L32.8407 21.4915L34.1121 20.7832L35.3613 21.5302L35.339 22.9854L34.0675 23.6938Z"
				fill="#FFFFFF"/>
			<path
				d="M13.2941 23.6938L12.0449 22.9468L12.0672 21.4915L13.3387 20.7832L14.5878 21.5302L14.5655 22.9854L13.2941 23.6938Z"
				fill="#FFFFFF"/>
			<path
				d="M34.0675 6.24163L32.8184 5.49467L32.8407 4.03938L34.1121 3.33105L35.3613 4.07802L35.339 5.53329L34.0675 6.24163Z"
				fill="#FFFFFF"/>
			<path
				d="M13.2941 6.24163L12.0449 5.49467L12.0672 4.03938L13.3387 3.33105L14.5878 4.07802L14.5655 5.53329L13.2941 6.24163Z"
				fill="#FFFFFF"/>
		</svg>
	