
		<svg width="100%" height="100%" viewBox="0 0 48 48" fill="none" xmlns="http://www.w3.org/2000/svg">
			<path
				d="M42.2434 33.9917C42.9928 24.6147 40.3052 20.3576 44.4914 5.86066L23.4459 0L2.40039 5.86066C6.58654 20.3576 3.89905 24.6147 4.64837 33.9917C9.40165 54.949 40.2087 50.2422 42.2434 33.9917Z"
				fill="#0A080C"/>
			<path
				d="M41.8716 33.7934C42.606 24.6023 39.9718 20.4297 44.075 6.22007L23.4467 0.475586L2.81836 6.22007C6.92154 20.4297 4.28731 24.6023 5.0218 33.7934C9.68087 54.3353 39.8772 49.7218 41.8716 33.7934Z"
				fill="#FFFFFF"/>
			<path
				d="M40.8361 33.243C41.5293 24.5686 39.0432 20.6306 42.9157 7.21986L23.4471 1.79834L3.97852 7.21986C7.85101 20.6306 5.36488 24.5686 6.05803 33.243C10.4552 52.63 38.9538 48.2759 40.8361 33.243Z"
				fill="#0A080C"/>
			<path
				d="M16.843 3.63721L3.97852 7.21968C4.00932 7.32597 4.03608 7.4265 4.06591 7.53161H42.8282C42.8582 7.4265 42.8849 7.32597 42.9156 7.21968L30.051 3.63721H16.843ZM4.50831 9.1543C4.87373 10.5548 5.16727 11.8484 5.39832 13.0488H41.4958C41.7268 11.8484 42.0204 10.5548 42.3858 9.1543H4.50831ZM5.68395 14.6715C5.90795 16.0848 6.04556 17.3692 6.12423 18.5659H40.7699C40.8485 17.3692 40.986 16.0848 41.2101 14.6715H5.68395ZM6.19858 20.1886C6.23465 21.567 6.20264 22.8402 6.14479 24.0832H40.7493C40.6943 22.8402 40.6595 21.567 40.6954 20.1886H6.19858ZM6.07376 25.5713C6.00806 26.8432 5.9417 28.1142 5.9295 29.4657H40.9645C40.9523 28.1142 40.8861 26.8432 40.8204 25.5713H6.07376ZM5.94447 31.0884C5.96311 31.7778 5.99796 32.4916 6.05795 33.2428C6.19472 33.8457 6.35491 34.4255 6.53671 34.9829H40.4885C40.6441 34.4202 40.7613 33.84 40.8361 33.2428C40.8961 32.4916 40.931 31.7778 40.9495 31.0884H5.94447ZM7.15386 36.6055C7.80246 38.0861 8.62084 39.3806 9.57098 40.5001H37.2907C38.3889 39.3517 39.2847 38.0479 39.9132 36.6055H7.15386ZM11.1755 42.1228C13.7052 44.3193 16.8553 45.5756 20.1511 46.0172H25.7095C29.3072 45.5503 32.7624 44.1996 35.4706 42.1228H11.1755Z"
				fill="#0A080C"/>
			<path
				d="M38.4665 29.7207L21.4805 44.0995C29.1228 44.8275 37.4476 40.5004 38.362 33.1976C38.4624 31.9409 38.4832 30.803 38.4665 29.7207Z"
				fill="#FFFFFF"/>
			<path
				d="M38.5718 18.1704L12.6035 40.1529C14.2485 41.7835 16.263 42.8862 18.4336 43.5204L38.3295 26.3431C38.2061 23.9229 38.1128 21.4581 38.5718 18.1704Z"
				fill="#FFFFFF"/>
			<path
				d="M35.8336 9.85791L8.61328 32.7538C9.12171 34.9886 10.0124 36.8466 11.1738 38.3576L38.4979 15.1214C38.764 13.841 39.1077 12.4454 39.5555 10.8943L35.8336 9.85791Z"
				fill="#FFFFFF"/>
			<path
				d="M18.2981 8.54639V12.658H16.6937V10.9192L16.1264 11.4552L15.1626 12.3704L14.8515 12.658H13.9487L13.6376 12.3704L12.6555 11.4552L12.0516 10.8996V12.658H10.4473V8.54639H12.0516L14.4062 10.7362L16.6937 8.54639H18.2981Z"
				fill="#FFFFFF"/>
			<path
				d="M16.4314 13.5076H12.5396C12.1736 13.5076 12.0516 13.3769 12.0516 13.2266H10.4473C10.4473 13.2396 10.4473 13.2462 10.4473 13.2593C10.4473 14.2071 11.0634 14.8738 12.2468 14.8738H16.2606C16.584 14.8738 16.7059 14.998 16.7059 15.1549V15.4556C16.7059 15.619 16.5717 15.7955 15.98 15.7955H13.8206H12.869C12.3566 15.7955 12.1614 15.6059 12.1309 15.3837H10.5571C10.5571 15.9066 10.8072 17.2401 12.8263 17.2401H13.8206H15.9739C17.682 17.2336 18.2676 16.3642 18.2981 15.4556V15.1549C18.2981 15.1287 18.2981 15.0961 18.2981 15.0699C18.2981 14.1221 17.6698 13.5076 16.4314 13.5076Z"
				fill="#FFFFFF"/>
			<path
				d="M14.974 20.2C14.9783 20.2025 14.9832 20.2075 14.9896 20.2172C14.9957 20.2267 15.0028 20.2402 15.0103 20.2569C15.0256 20.2904 15.0441 20.337 15.064 20.3935C15.0839 20.4501 15.1056 20.5165 15.1279 20.5894C15.1503 20.6623 15.1727 20.7416 15.1947 20.824L15.3548 21.4234L14.8219 21.7765C14.7486 21.8251 14.6778 21.8709 14.6126 21.9123C14.5475 21.9537 14.4879 21.9906 14.437 22.0211C14.3862 22.0515 14.3443 22.0758 14.3139 22.0918C14.2986 22.0998 14.2865 22.1055 14.2776 22.1094C14.2684 22.1131 14.2634 22.1145 14.2613 22.1134C14.2531 22.1087 14.1962 22.0629 14.1097 21.9926C14.0232 21.9222 13.9079 21.8275 13.7843 21.7253C13.7225 21.6742 13.663 21.6239 13.6083 21.5769C13.5536 21.5298 13.5038 21.4859 13.4613 21.4475C13.4188 21.4091 13.3838 21.3761 13.3586 21.351C13.3462 21.3386 13.3359 21.3279 13.3288 21.3196C13.3213 21.3113 13.3173 21.3053 13.3159 21.3015C13.3124 21.2975 13.316 21.2906 13.3196 21.2797C13.3196 21.2681 13.3255 21.2544 13.3308 21.2371C13.3419 21.2023 13.3582 21.1554 13.3795 21.0996C13.4012 21.0439 13.4272 20.9793 13.4571 20.9096C13.4855 20.8391 13.5197 20.7644 13.5549 20.6871L13.8108 20.1245L14.3632 20.15C14.4392 20.1535 14.5135 20.1573 14.5826 20.1616C14.6516 20.166 14.7154 20.1706 14.771 20.1752C14.8265 20.1798 14.8738 20.1842 14.909 20.1885C14.9443 20.1926 14.9678 20.1968 14.9761 20.2002L14.974 20.2Z"
				fill="#FFFFFF"/>
			<path
				d="M16.6526 19.467C16.6409 19.4489 16.6291 19.4308 16.6165 19.413C16.5927 19.377 16.5673 19.342 16.5415 19.3075C16.5155 19.273 16.4892 19.2391 16.4618 19.2059C16.4344 19.1728 16.4063 19.1403 16.3776 19.1085C16.3487 19.0767 16.3191 19.0456 16.289 19.0152C16.2588 18.9849 16.2281 18.9552 16.1966 18.9263C16.1653 18.8973 16.1329 18.8691 16.1 18.8416C16.0673 18.8142 16.0339 18.7874 16 18.7614C15.9662 18.7355 15.9317 18.7104 15.8967 18.6859C15.8615 18.6615 15.8261 18.6379 15.7901 18.615C15.754 18.5921 15.7174 18.5701 15.6803 18.5488C15.6433 18.5275 15.6057 18.5071 15.5678 18.4874C15.5299 18.4679 15.4916 18.4491 15.4528 18.4312C15.4142 18.4133 15.375 18.396 15.3354 18.3798C15.2959 18.3635 15.2561 18.3482 15.216 18.3337C15.1757 18.319 15.1351 18.3056 15.0944 18.2929C15.0536 18.2802 15.0126 18.2683 14.9713 18.2574C14.93 18.2465 14.8882 18.2365 14.8464 18.2273C14.8045 18.2182 14.7627 18.2101 14.7205 18.2028C14.6783 18.1956 14.6359 18.1893 14.5934 18.184C14.5509 18.1788 14.5082 18.1744 14.4654 18.1709C14.4226 18.1674 14.3797 18.1652 14.3367 18.1636C14.2938 18.1611 14.2507 18.1611 14.2075 18.1611C14.1643 18.1611 14.1213 18.1636 14.0781 18.1658C14.0351 18.1686 13.9917 18.172 13.9486 18.1767C13.9054 18.181 13.8623 18.1868 13.8194 18.1936C13.7765 18.2005 13.7333 18.208 13.6905 18.217C13.6477 18.226 13.6051 18.2358 13.5624 18.2468C13.5198 18.258 13.4771 18.2698 13.4347 18.283C13.3894 18.2973 13.3448 18.3123 13.3007 18.3282C13.2566 18.3443 13.2135 18.3614 13.1708 18.3791C13.1281 18.3971 13.086 18.4156 13.0447 18.4353C13.0034 18.455 12.9626 18.4753 12.9226 18.4967C12.8823 18.5174 12.8435 18.5405 12.8047 18.5631C12.7666 18.5868 12.7287 18.6105 12.691 18.634C12.6553 18.6608 12.6175 18.6843 12.5816 18.7101C12.5463 18.7367 12.5111 18.7633 12.4768 18.7907C12.4427 18.8181 12.4093 18.8466 12.3766 18.8757C12.3439 18.9048 12.3119 18.9345 12.2808 18.9648C12.2498 18.9953 12.2191 19.0259 12.1898 19.0581C12.1606 19.0901 12.1319 19.1223 12.104 19.1553C12.0763 19.1885 12.0491 19.2222 12.0227 19.2563C11.9968 19.2906 11.971 19.3255 11.9465 19.3609C11.9219 19.3965 11.8983 19.4323 11.8755 19.4688C11.8527 19.5055 11.8306 19.5424 11.8096 19.5801C11.7883 19.6174 11.7684 19.6557 11.749 19.6943C11.7288 19.7325 11.7106 19.7717 11.6945 19.8119C11.6764 19.8512 11.6603 19.8915 11.6447 19.9319C11.6294 19.9727 11.6144 20.0133 11.6004 20.0545C11.5865 20.0957 11.5738 20.1375 11.562 20.1796C11.5499 20.2215 11.5392 20.2641 11.5288 20.3069C11.5189 20.3497 11.5099 20.3928 11.5017 20.4363C11.4936 20.4797 11.487 20.5235 11.4809 20.5676C11.4749 20.6116 11.4699 20.6561 11.466 20.7008C11.4617 20.7453 11.4591 20.7903 11.4566 20.8355C11.453 20.8808 11.4531 20.926 11.4531 20.9716C11.4531 21.0172 11.4566 21.0631 11.4566 21.1091C11.4602 21.1551 11.462 21.2013 11.4667 21.2476C11.4709 21.294 11.4766 21.3405 11.483 21.3872C11.4894 21.4339 11.4972 21.4807 11.5057 21.5275C11.5146 21.5744 11.5246 21.6215 11.5353 21.6686C11.5474 21.7198 11.5605 21.7704 11.575 21.8201C11.59 21.8699 11.6055 21.919 11.6224 21.9673C11.6392 22.0156 11.6581 22.0631 11.6775 22.1098C11.6971 22.1565 11.7176 22.2025 11.7395 22.2476C11.7612 22.2928 11.7843 22.337 11.8084 22.3804C11.8326 22.4238 11.8577 22.4666 11.8841 22.5082C11.9105 22.55 11.938 22.5908 11.9661 22.6309C11.9946 22.6708 12.0238 22.71 12.0542 22.7483C12.0844 22.7864 12.1158 22.8238 12.1479 22.8602C12.1803 22.8965 12.2133 22.932 12.2473 22.9664C12.2814 23.0009 12.3163 23.0344 12.352 23.067C12.3878 23.0995 12.4242 23.1312 12.4616 23.1617C12.4989 23.1923 12.5371 23.2218 12.576 23.2504C12.6148 23.2789 12.6546 23.3065 12.695 23.333C12.7353 23.3594 12.7764 23.3849 12.8181 23.4092C12.8597 23.4336 12.9022 23.4569 12.9452 23.479C12.9882 23.5013 13.0317 23.5224 13.0758 23.5424C13.12 23.5623 13.1648 23.5812 13.21 23.5989C13.2553 23.6166 13.301 23.6333 13.3472 23.6487C13.3934 23.6641 13.4402 23.6784 13.4874 23.6914C13.5344 23.7045 13.582 23.7164 13.6299 23.727C13.6779 23.7379 13.7262 23.7472 13.7749 23.7554C13.8235 23.7634 13.8727 23.7706 13.922 23.7763C13.9714 23.782 14.021 23.7866 14.0709 23.7898C14.1208 23.793 14.1709 23.7949 14.2212 23.7956C14.2715 23.7956 14.3221 23.7954 14.3728 23.7931C14.4236 23.7906 14.4745 23.7879 14.5255 23.7832C14.5763 23.7785 14.6275 23.7727 14.6787 23.7651C14.7297 23.7574 14.7812 23.7488 14.8325 23.7387C14.884 23.7288 14.9351 23.7171 14.9864 23.7041C15.0376 23.691 15.0889 23.6768 15.1401 23.6608C15.1913 23.645 15.2427 23.6279 15.2936 23.6089C15.3392 23.592 15.3845 23.5744 15.4287 23.555C15.4731 23.536 15.5166 23.5157 15.5596 23.4947C15.6024 23.4733 15.6445 23.451 15.6857 23.4275C15.7279 23.4057 15.7682 23.3806 15.8081 23.3557C15.8481 23.3308 15.8858 23.3027 15.9248 23.2768C15.9626 23.2488 16.0003 23.2213 16.0367 23.192C16.0733 23.1631 16.109 23.133 16.1435 23.1017C16.178 23.0707 16.2121 23.039 16.2452 23.0065C16.2787 22.9743 16.3105 22.9405 16.342 22.9066C16.3733 22.8726 16.4037 22.8378 16.4331 22.802C16.4626 22.7664 16.4912 22.7301 16.5189 22.6931C16.5467 22.656 16.5733 22.6182 16.5991 22.58C16.6247 22.5415 16.6498 22.5027 16.6736 22.4632C16.6975 22.4235 16.7202 22.3834 16.7422 22.3428C16.7643 22.3023 16.7852 22.2609 16.8053 22.2193C16.8248 22.1774 16.8442 22.1353 16.8617 22.0924C16.8791 22.0495 16.8967 22.0066 16.9124 21.963C16.9284 21.9195 16.943 21.8754 16.9571 21.8311C16.9709 21.7868 16.9832 21.742 16.9951 21.697C17.0065 21.6518 17.0176 21.6066 17.0269 21.5609C17.0365 21.5153 17.0446 21.4695 17.052 21.4233C17.0595 21.3773 17.0656 21.3306 17.071 21.284C17.0763 21.2376 17.0801 21.1907 17.083 21.1438C17.0865 21.0968 17.0873 21.0497 17.0876 21.0026C17.0876 20.9553 17.0876 20.9081 17.084 20.8607C17.0804 20.8133 17.0791 20.7659 17.0751 20.7184C17.0709 20.671 17.0656 20.6236 17.0588 20.5762C17.0524 20.5287 17.0443 20.4812 17.0354 20.4339C17.0261 20.3865 17.0158 20.3393 17.0041 20.2922C16.9924 20.245 16.9796 20.198 16.9654 20.1511C16.9512 20.1042 16.9354 20.0574 16.9188 20.0109C16.9018 19.9643 16.884 19.918 16.8647 19.8719C16.8476 19.8312 16.8295 19.7911 16.8105 19.7515C16.7916 19.712 16.7717 19.673 16.7509 19.6347C16.7299 19.5964 16.7083 19.5586 16.6858 19.5215C16.6748 19.5032 16.6631 19.4846 16.6514 19.4663L16.6526 19.467ZM16.203 19.3575C16.2148 19.3742 16.2247 19.3902 16.2325 19.4064C16.2404 19.4227 16.2464 19.4389 16.2499 19.4562C16.2535 19.4734 16.2553 19.4916 16.2553 19.512C16.2552 19.5324 16.2517 19.5543 16.2482 19.5793C16.2439 19.6043 16.2371 19.6319 16.2282 19.6632C16.2197 19.6948 16.2094 19.7296 16.1963 19.769C16.1835 19.8087 16.1685 19.8526 16.1516 19.902C16.0701 20.1394 15.9824 20.3874 15.9568 20.4534C15.9507 20.4665 15.9476 20.4796 15.9451 20.4914C15.9416 20.5037 15.9416 20.5153 15.9451 20.5273C15.9487 20.5394 15.9516 20.5514 15.959 20.5647C15.9665 20.578 15.9771 20.5915 15.9906 20.607C16.0045 20.6224 16.0219 20.6393 16.0433 20.6583C16.065 20.6773 16.0903 20.6984 16.1205 20.7222C16.1809 20.7698 16.2599 20.8283 16.3618 20.9027C16.4635 20.9769 16.5426 21.0357 16.6044 21.0848C16.6353 21.1092 16.6616 21.1314 16.6844 21.1519C16.7072 21.172 16.7261 21.1909 16.7421 21.2085C16.7581 21.2262 16.771 21.2428 16.7813 21.2591C16.7916 21.2754 16.799 21.2916 16.8058 21.3078C16.8122 21.3239 16.8165 21.3411 16.8193 21.3587C16.8229 21.3766 16.8247 21.3957 16.8258 21.4164C16.8258 21.428 16.8258 21.4414 16.8258 21.4571C16.8222 21.473 16.8219 21.4905 16.8183 21.5096C16.8119 21.548 16.8016 21.593 16.7884 21.6421C16.7756 21.6912 16.7599 21.7442 16.7422 21.7988C16.7248 21.8535 16.7055 21.9098 16.6853 21.9651C16.665 22.0204 16.6441 22.0747 16.6229 22.1256C16.6023 22.1766 16.5809 22.2241 16.5606 22.2656C16.541 22.3075 16.5213 22.3429 16.504 22.3701C16.4951 22.3836 16.487 22.3952 16.4795 22.4045C16.472 22.4136 16.4649 22.4203 16.4585 22.4242C16.4549 22.4267 16.4467 22.427 16.4378 22.4308C16.4279 22.4333 16.415 22.4352 16.3998 22.4367C16.3692 22.4404 16.3281 22.4439 16.28 22.4466C16.2317 22.4494 16.1762 22.4514 16.1162 22.4528C16.0562 22.4552 15.9918 22.4552 15.9259 22.4552C15.7941 22.4552 15.6706 22.4552 15.5777 22.4593C15.5312 22.4618 15.4925 22.463 15.4641 22.4652C15.4357 22.4677 15.418 22.4703 15.4134 22.473C15.4098 22.473 15.4074 22.4803 15.4032 22.4879C15.3992 22.4966 15.3939 22.5081 15.3872 22.5223C15.374 22.5509 15.3583 22.5914 15.3396 22.6402C15.3211 22.689 15.2999 22.7464 15.2776 22.8094C15.2552 22.8724 15.2318 22.9408 15.2081 23.012L15.0362 23.5298L14.791 23.5699C14.7519 23.5764 14.7084 23.5816 14.662 23.5862C14.6157 23.591 14.5662 23.5945 14.5151 23.5971C14.4639 23.6 14.411 23.6019 14.3577 23.6029C14.3043 23.6029 14.2507 23.6054 14.198 23.6029C14.1451 23.6029 14.0932 23.6004 14.0434 23.5982C13.9936 23.5958 13.946 23.5928 13.9019 23.5888C13.8577 23.5849 13.8169 23.5801 13.781 23.5746C13.7452 23.5691 13.7138 23.5626 13.6886 23.5553C13.6701 23.5501 13.6542 23.5452 13.6393 23.5392C13.6244 23.5333 13.6111 23.5266 13.5988 23.5188C13.5864 23.5105 13.5755 23.5009 13.5645 23.4885C13.5538 23.4761 13.5434 23.4616 13.5327 23.4432C13.522 23.4249 13.5118 23.4035 13.5007 23.3777C13.4897 23.3519 13.4783 23.3217 13.4655 23.2864C13.4402 23.2158 13.4109 23.1247 13.3731 23.0057C13.329 22.8667 13.2865 22.7367 13.2538 22.6393C13.2211 22.5419 13.1981 22.477 13.1927 22.4683C13.1891 22.4654 13.1863 22.4639 13.1777 22.4617C13.1692 22.4592 13.1574 22.4576 13.1428 22.455C13.1133 22.4509 13.0723 22.4468 13.0223 22.4434C12.9722 22.4397 12.9134 22.4368 12.8488 22.4344C12.7842 22.4319 12.7141 22.4303 12.6409 22.4293C12.5548 22.4293 12.4771 22.425 12.4088 22.4199C12.3746 22.4174 12.3428 22.4141 12.3133 22.4108C12.2837 22.4071 12.2565 22.4035 12.2318 22.3988C12.2073 22.3944 12.1849 22.3893 12.1651 22.3839C12.1452 22.3787 12.1278 22.3726 12.113 22.3665C12.0984 22.3603 12.0861 22.3534 12.0764 22.3461C12.0668 22.3388 12.0596 22.3314 12.0554 22.3233C12.0422 22.2981 12.0277 22.2699 12.0137 22.2391C11.9995 22.2083 11.9852 22.175 11.971 22.14C11.9425 22.07 11.9141 21.9931 11.888 21.9148C11.8616 21.8364 11.8379 21.7568 11.818 21.6816C11.808 21.644 11.7991 21.6074 11.7916 21.5728C11.7838 21.5379 11.7775 21.5051 11.7728 21.4747C11.7682 21.445 11.7635 21.4188 11.761 21.3951C11.7575 21.3715 11.7563 21.3506 11.7556 21.3317C11.7556 21.3129 11.7557 21.2959 11.76 21.2803C11.7635 21.2647 11.7682 21.2503 11.7749 21.2366C11.7813 21.2225 11.7913 21.2099 11.8034 21.1967C11.8155 21.1833 11.8296 21.1702 11.8473 21.1565C11.864 21.1416 11.8852 21.1278 11.9088 21.1116C11.9312 21.0933 11.9584 21.0762 11.9894 21.057C12.0252 21.0347 12.0641 21.0059 12.1066 20.9775C12.148 20.9473 12.1924 20.9166 12.2355 20.8845C12.2785 20.8524 12.3209 20.8201 12.36 20.7891C12.3992 20.7586 12.4349 20.729 12.465 20.7036L12.6826 20.5169L12.522 19.9823C12.4999 19.9088 12.4795 19.8365 12.4612 19.7687C12.4427 19.7009 12.4269 19.6376 12.4138 19.5822C12.401 19.5267 12.3912 19.4792 12.3851 19.4428C12.3816 19.4244 12.3798 19.4093 12.3791 19.3971C12.3791 19.385 12.3791 19.3762 12.3791 19.3708C12.3791 19.3642 12.385 19.3573 12.39 19.3472C12.3964 19.3382 12.4051 19.3275 12.4154 19.3154C12.436 19.2915 12.4653 19.2638 12.5001 19.2328C12.5353 19.202 12.5757 19.1677 12.6196 19.1319C12.6637 19.0965 12.7113 19.0596 12.7603 19.0231C12.8092 18.9865 12.8594 18.9502 12.9089 18.9161C12.9578 18.8811 13.0067 18.8494 13.052 18.8206C13.0976 18.7922 13.1393 18.7662 13.1769 18.7473C13.1968 18.7395 13.2129 18.7294 13.2281 18.7218C13.2444 18.716 13.2576 18.709 13.2696 18.7053C13.2842 18.7006 13.2991 18.6973 13.3142 18.6958C13.3295 18.6934 13.3451 18.6933 13.3618 18.6983C13.3785 18.7008 13.396 18.7048 13.4151 18.7114C13.4343 18.718 13.4544 18.7265 13.4766 18.7377C13.499 18.7487 13.5227 18.7623 13.5488 18.7784C13.5748 18.7945 13.6034 18.8132 13.6344 18.8349C13.6967 18.8781 13.7695 18.9328 13.8566 19.0005L14.2954 19.3419L14.7872 18.9983L15.279 18.6547L15.6501 18.8956C15.7011 18.9287 15.7538 18.965 15.8052 19.0022C15.8566 19.0395 15.9067 19.0777 15.953 19.1145C15.9992 19.1515 16.0413 19.187 16.0768 19.2191C16.1123 19.2512 16.1409 19.2798 16.16 19.3027C16.176 19.3218 16.1898 19.3392 16.2016 19.3559L16.203 19.3575Z"
				fill="#FFFFFF"/>
			<path
				d="M16.6526 19.467C16.6409 19.4489 16.6291 19.4308 16.6165 19.413C16.5927 19.377 16.5673 19.342 16.5415 19.3075C16.5155 19.273 16.4892 19.2391 16.4618 19.2059C16.4344 19.1728 16.4063 19.1403 16.3776 19.1085C16.3487 19.0767 16.3191 19.0456 16.289 19.0152C16.2588 18.9849 16.2281 18.9552 16.1966 18.9263C16.1653 18.8973 16.1329 18.8691 16.1 18.8416C16.0673 18.8142 16.0339 18.7874 16 18.7614C15.9662 18.7355 15.9317 18.7104 15.8967 18.6859C15.8615 18.6615 15.8261 18.6379 15.7901 18.615C15.754 18.5921 15.7174 18.5701 15.6803 18.5488C15.6433 18.5275 15.6057 18.5071 15.5678 18.4874C15.5299 18.4679 15.4916 18.4491 15.4528 18.4312C15.4142 18.4133 15.375 18.396 15.3354 18.3798C15.2959 18.3635 15.2561 18.3482 15.216 18.3337C15.1757 18.319 15.1351 18.3056 15.0944 18.2929C15.0536 18.2802 15.0126 18.2683 14.9713 18.2574C14.93 18.2465 14.8882 18.2365 14.8464 18.2273C14.8045 18.2182 14.7627 18.2101 14.7205 18.2028C14.6783 18.1956 14.6359 18.1893 14.5934 18.184C14.5509 18.1788 14.5082 18.1744 14.4654 18.1709C14.4226 18.1674 14.3797 18.1652 14.3367 18.1636C14.2938 18.1611 14.2507 18.1611 14.2075 18.1611C14.1643 18.1611 14.1213 18.1636 14.0781 18.1658C14.0351 18.1686 13.9917 18.172 13.9486 18.1767C13.9054 18.181 13.8623 18.1868 13.8194 18.1936C13.7765 18.2005 13.7333 18.208 13.6905 18.217C13.6477 18.226 13.6051 18.2358 13.5624 18.2468C13.5198 18.258 13.4771 18.2698 13.4347 18.283C13.3894 18.2973 13.3448 18.3123 13.3007 18.3282C13.2566 18.3443 13.2135 18.3614 13.1708 18.3791C13.1281 18.3971 13.086 18.4156 13.0447 18.4353C13.0034 18.455 12.9626 18.4753 12.9226 18.4967C12.8823 18.5174 12.8435 18.5405 12.8047 18.5631C12.7666 18.5868 12.7287 18.6105 12.691 18.634C12.6553 18.6608 12.6175 18.6843 12.5816 18.7101C12.5463 18.7367 12.5111 18.7633 12.4768 18.7907C12.4427 18.8181 12.4093 18.8466 12.3766 18.8757C12.3439 18.9048 12.3119 18.9345 12.2808 18.9648C12.2498 18.9953 12.2191 19.0259 12.1898 19.0581C12.1606 19.0901 12.1319 19.1223 12.104 19.1553C12.0763 19.1885 12.0491 19.2222 12.0227 19.2563C11.9968 19.2906 11.971 19.3255 11.9465 19.3609C11.9219 19.3965 11.8983 19.4323 11.8755 19.4688C11.8527 19.5055 11.8306 19.5424 11.8096 19.5801C11.7883 19.6174 11.7684 19.6557 11.749 19.6943C11.7288 19.7325 11.7106 19.7717 11.6945 19.8119C11.6764 19.8512 11.6603 19.8915 11.6447 19.9319C11.6294 19.9727 11.6144 20.0133 11.6004 20.0545C11.5865 20.0957 11.5738 20.1375 11.562 20.1796C11.5499 20.2215 11.5392 20.2641 11.5288 20.3069C11.5189 20.3497 11.5099 20.3928 11.5017 20.4363C11.4936 20.4797 11.487 20.5235 11.4809 20.5676C11.4749 20.6116 11.4699 20.6561 11.466 20.7008C11.4617 20.7453 11.4591 20.7903 11.4566 20.8355C11.453 20.8808 11.4531 20.926 11.4531 20.9716C11.4531 21.0172 11.4566 21.0631 11.4566 21.1091C11.4602 21.1551 11.462 21.2013 11.4667 21.2476C11.4709 21.294 11.4766 21.3405 11.483 21.3872C11.4894 21.4339 11.4972 21.4807 11.5057 21.5275C11.5146 21.5744 11.5246 21.6215 11.5353 21.6686C11.5474 21.7198 11.5605 21.7704 11.575 21.8201C11.59 21.8699 11.6055 21.919 11.6224 21.9673C11.6392 22.0156 11.6581 22.0631 11.6775 22.1098C11.6971 22.1565 11.7176 22.2025 11.7395 22.2476C11.7612 22.2928 11.7843 22.337 11.8084 22.3804C11.8326 22.4238 11.8577 22.4666 11.8841 22.5082C11.9105 22.55 11.938 22.5908 11.9661 22.6309C11.9946 22.6708 12.0238 22.71 12.0542 22.7483C12.0844 22.7864 12.1158 22.8238 12.1479 22.8602C12.1803 22.8965 12.2133 22.932 12.2473 22.9664C12.2814 23.0009 12.3163 23.0344 12.352 23.067C12.3878 23.0995 12.4242 23.1312 12.4616 23.1617C12.4989 23.1923 12.5371 23.2218 12.576 23.2504C12.6148 23.2789 12.6546 23.3065 12.695 23.333C12.7353 23.3594 12.7764 23.3849 12.8181 23.4092C12.8597 23.4336 12.9022 23.4569 12.9452 23.479C12.9882 23.5013 13.0317 23.5224 13.0758 23.5424C13.12 23.5623 13.1648 23.5812 13.21 23.5989C13.2553 23.6166 13.301 23.6333 13.3472 23.6487C13.3934 23.6641 13.4402 23.6784 13.4874 23.6914C13.5344 23.7045 13.582 23.7164 13.6299 23.727C13.6779 23.7379 13.7262 23.7472 13.7749 23.7554C13.8235 23.7634 13.8727 23.7706 13.922 23.7763C13.9714 23.782 14.021 23.7866 14.0709 23.7898C14.1208 23.793 14.1709 23.7949 14.2212 23.7956C14.2715 23.7956 14.3221 23.7954 14.3728 23.7931C14.4236 23.7906 14.4745 23.7879 14.5255 23.7832C14.5763 23.7785 14.6275 23.7727 14.6787 23.7651C14.7297 23.7574 14.7812 23.7488 14.8325 23.7387C14.884 23.7288 14.9351 23.7171 14.9864 23.7041C15.0376 23.691 15.0889 23.6768 15.1401 23.6608C15.1913 23.645 15.2427 23.6279 15.2936 23.6089C15.3392 23.592 15.3845 23.5744 15.4287 23.555C15.4731 23.536 15.5166 23.5157 15.5596 23.4947C15.6024 23.4733 15.6445 23.451 15.6857 23.4275C15.7279 23.4057 15.7682 23.3806 15.8081 23.3557C15.8481 23.3308 15.8858 23.3027 15.9248 23.2768C15.9626 23.2488 16.0003 23.2213 16.0367 23.192C16.0733 23.1631 16.109 23.133 16.1435 23.1017C16.178 23.0707 16.2121 23.039 16.2452 23.0065C16.2787 22.9743 16.3105 22.9405 16.342 22.9066C16.3733 22.8726 16.4037 22.8378 16.4331 22.802C16.4626 22.7664 16.4912 22.7301 16.5189 22.6931C16.5467 22.656 16.5733 22.6182 16.5991 22.58C16.6247 22.5415 16.6498 22.5027 16.6736 22.4632C16.6975 22.4235 16.7202 22.3834 16.7422 22.3428C16.7643 22.3023 16.7852 22.2609 16.8053 22.2193C16.8248 22.1774 16.8442 22.1353 16.8617 22.0924C16.8791 22.0495 16.8967 22.0066 16.9124 21.963C16.9284 21.9195 16.943 21.8754 16.9571 21.8311C16.9709 21.7868 16.9832 21.742 16.9951 21.697C17.0065 21.6518 17.0176 21.6066 17.0269 21.5609C17.0365 21.5153 17.0446 21.4695 17.052 21.4233C17.0595 21.3773 17.0656 21.3306 17.071 21.284C17.0763 21.2376 17.0801 21.1907 17.083 21.1438C17.0865 21.0968 17.0873 21.0497 17.0876 21.0026C17.0876 20.9553 17.0876 20.9081 17.084 20.8607C17.0804 20.8133 17.0791 20.7659 17.0751 20.7184C17.0709 20.671 17.0656 20.6236 17.0588 20.5762C17.0524 20.5287 17.0443 20.4812 17.0354 20.4339C17.0261 20.3865 17.0158 20.3393 17.0041 20.2922C16.9924 20.245 16.9796 20.198 16.9654 20.1511C16.9512 20.1042 16.9354 20.0574 16.9188 20.0109C16.9018 19.9643 16.884 19.918 16.8647 19.8719C16.8476 19.8312 16.8295 19.7911 16.8105 19.7515C16.7916 19.712 16.7717 19.673 16.7509 19.6347C16.7299 19.5964 16.7083 19.5586 16.6858 19.5215C16.6748 19.5032 16.6631 19.4846 16.6514 19.4663L16.6526 19.467ZM16.203 19.3575C16.2148 19.3742 16.2247 19.3902 16.2325 19.4064C16.2404 19.4227 16.2464 19.4389 16.2499 19.4562C16.2535 19.4734 16.2553 19.4916 16.2553 19.512C16.2552 19.5324 16.2517 19.5543 16.2482 19.5793C16.2439 19.6043 16.2371 19.6319 16.2282 19.6632C16.2197 19.6948 16.2094 19.7296 16.1963 19.769C16.1835 19.8087 16.1685 19.8526 16.1516 19.902C16.0701 20.1394 15.9824 20.3874 15.9568 20.4534C15.9507 20.4665 15.9476 20.4796 15.9451 20.4914C15.9416 20.5037 15.9416 20.5153 15.9451 20.5273C15.9487 20.5394 15.9516 20.5514 15.959 20.5647C15.9665 20.578 15.9771 20.5915 15.9906 20.607C16.0045 20.6224 16.0219 20.6393 16.0433 20.6583C16.065 20.6773 16.0903 20.6984 16.1205 20.7222C16.1809 20.7698 16.2599 20.8283 16.3618 20.9027C16.4635 20.9769 16.5426 21.0357 16.6044 21.0848C16.6353 21.1092 16.6616 21.1314 16.6844 21.1519C16.7072 21.172 16.7261 21.1909 16.7421 21.2085C16.7581 21.2262 16.771 21.2428 16.7813 21.2591C16.7916 21.2754 16.799 21.2916 16.8058 21.3078C16.8122 21.3239 16.8165 21.3411 16.8193 21.3587C16.8229 21.3766 16.8247 21.3957 16.8258 21.4164C16.8258 21.428 16.8258 21.4414 16.8258 21.4571C16.8222 21.473 16.8219 21.4905 16.8183 21.5096C16.8119 21.548 16.8016 21.593 16.7884 21.6421C16.7756 21.6912 16.7599 21.7442 16.7422 21.7988C16.7248 21.8535 16.7055 21.9098 16.6853 21.9651C16.665 22.0204 16.6441 22.0747 16.6229 22.1256C16.6023 22.1766 16.5809 22.2241 16.5606 22.2656C16.541 22.3075 16.5213 22.3429 16.504 22.3701C16.4951 22.3836 16.487 22.3952 16.4795 22.4045C16.472 22.4136 16.4649 22.4203 16.4585 22.4242C16.4549 22.4267 16.4467 22.427 16.4378 22.4308C16.4279 22.4333 16.415 22.4352 16.3998 22.4367C16.3692 22.4404 16.3281 22.4439 16.28 22.4466C16.2317 22.4494 16.1762 22.4514 16.1162 22.4528C16.0562 22.4552 15.9918 22.4552 15.9259 22.4552C15.7941 22.4552 15.6706 22.4552 15.5777 22.4593C15.5312 22.4618 15.4925 22.463 15.4641 22.4652C15.4357 22.4677 15.418 22.4703 15.4134 22.473C15.4098 22.473 15.4074 22.4803 15.4032 22.4879C15.3992 22.4966 15.3939 22.5081 15.3872 22.5223C15.374 22.5509 15.3583 22.5914 15.3396 22.6402C15.3211 22.689 15.2999 22.7464 15.2776 22.8094C15.2552 22.8724 15.2318 22.9408 15.2081 23.012L15.0362 23.5298L14.791 23.5699C14.7519 23.5764 14.7084 23.5816 14.662 23.5862C14.6157 23.591 14.5662 23.5945 14.5151 23.5971C14.4639 23.6 14.411 23.6019 14.3577 23.6029C14.3043 23.6029 14.2507 23.6054 14.198 23.6029C14.1451 23.6029 14.0932 23.6004 14.0434 23.5982C13.9936 23.5958 13.946 23.5928 13.9019 23.5888C13.8577 23.5849 13.8169 23.5801 13.781 23.5746C13.7452 23.5691 13.7138 23.5626 13.6886 23.5553C13.6701 23.5501 13.6542 23.5452 13.6393 23.5392C13.6244 23.5333 13.6111 23.5266 13.5988 23.5188C13.5864 23.5105 13.5755 23.5009 13.5645 23.4885C13.5538 23.4761 13.5434 23.4616 13.5327 23.4432C13.522 23.4249 13.5118 23.4035 13.5007 23.3777C13.4897 23.3519 13.4783 23.3217 13.4655 23.2864C13.4402 23.2158 13.4109 23.1247 13.3731 23.0057C13.329 22.8667 13.2865 22.7367 13.2538 22.6393C13.2211 22.5419 13.1981 22.477 13.1927 22.4683C13.1891 22.4654 13.1863 22.4639 13.1777 22.4617C13.1692 22.4592 13.1574 22.4576 13.1428 22.455C13.1133 22.4509 13.0723 22.4468 13.0223 22.4434C12.9722 22.4397 12.9134 22.4368 12.8488 22.4344C12.7842 22.4319 12.7141 22.4303 12.6409 22.4293C12.5548 22.4293 12.4771 22.425 12.4088 22.4199C12.3746 22.4174 12.3428 22.4141 12.3133 22.4108C12.2837 22.4071 12.2565 22.4035 12.2318 22.3988C12.2073 22.3944 12.1849 22.3893 12.1651 22.3839C12.1452 22.3787 12.1278 22.3726 12.113 22.3665C12.0984 22.3603 12.0861 22.3534 12.0764 22.3461C12.0668 22.3388 12.0596 22.3314 12.0554 22.3233C12.0422 22.2981 12.0277 22.2699 12.0137 22.2391C11.9995 22.2083 11.9852 22.175 11.971 22.14C11.9425 22.07 11.9141 21.9931 11.888 21.9148C11.8616 21.8364 11.8379 21.7568 11.818 21.6816C11.808 21.644 11.7991 21.6074 11.7916 21.5728C11.7838 21.5379 11.7775 21.5051 11.7728 21.4747C11.7682 21.445 11.7635 21.4188 11.761 21.3951C11.7575 21.3715 11.7563 21.3506 11.7556 21.3317C11.7556 21.3129 11.7557 21.2959 11.76 21.2803C11.7635 21.2647 11.7682 21.2503 11.7749 21.2366C11.7813 21.2225 11.7913 21.2099 11.8034 21.1967C11.8155 21.1833 11.8296 21.1702 11.8473 21.1565C11.864 21.1416 11.8852 21.1278 11.9088 21.1116C11.9312 21.0933 11.9584 21.0762 11.9894 21.057C12.0252 21.0347 12.0641 21.0059 12.1066 20.9775C12.148 20.9473 12.1924 20.9166 12.2355 20.8845C12.2785 20.8524 12.3209 20.8201 12.36 20.7891C12.3992 20.7586 12.4349 20.729 12.465 20.7036L12.6826 20.5169L12.522 19.9823C12.4999 19.9088 12.4795 19.8365 12.4612 19.7687C12.4427 19.7009 12.4269 19.6376 12.4138 19.5822C12.401 19.5267 12.3912 19.4792 12.3851 19.4428C12.3816 19.4244 12.3798 19.4093 12.3791 19.3971C12.3791 19.385 12.3791 19.3762 12.3791 19.3708C12.3791 19.3642 12.385 19.3573 12.39 19.3472C12.3964 19.3382 12.4051 19.3275 12.4154 19.3154C12.436 19.2915 12.4653 19.2638 12.5001 19.2328C12.5353 19.202 12.5757 19.1677 12.6196 19.1319C12.6637 19.0965 12.7113 19.0596 12.7603 19.0231C12.8092 18.9865 12.8594 18.9502 12.9089 18.9161C12.9578 18.8811 13.0067 18.8494 13.052 18.8206C13.0976 18.7922 13.1393 18.7662 13.1769 18.7473C13.1968 18.7395 13.2129 18.7294 13.2281 18.7218C13.2444 18.716 13.2576 18.709 13.2696 18.7053C13.2842 18.7006 13.2991 18.6973 13.3142 18.6958C13.3295 18.6934 13.3451 18.6933 13.3618 18.6983C13.3785 18.7008 13.396 18.7048 13.4151 18.7114C13.4343 18.718 13.4544 18.7265 13.4766 18.7377C13.499 18.7487 13.5227 18.7623 13.5488 18.7784C13.5748 18.7945 13.6034 18.8132 13.6344 18.8349C13.6967 18.8781 13.7695 18.9328 13.8566 19.0005L14.2954 19.3419L14.7872 18.9983L15.279 18.6547L15.6501 18.8956C15.7011 18.9287 15.7538 18.965 15.8052 19.0022C15.8566 19.0395 15.9067 19.0777 15.953 19.1145C15.9992 19.1515 16.0413 19.187 16.0768 19.2191C16.1123 19.2512 16.1409 19.2798 16.16 19.3027C16.176 19.3218 16.1898 19.3392 16.2016 19.3559L16.203 19.3575Z"
				fill="#FFFFFF"/>
		</svg>
	