
		<svg width="100%" height="100%" viewBox="0 0 48 48" fill="none" xmlns="http://www.w3.org/2000/svg">
			<path
				d="M40.0131 41.0793V14.0953C40.0131 7.98214 33.6872 -0.00950483 24.2067 8.48552e-06C14.7262 -0.00935087 8.40039 7.98214 8.40039 14.0953V41.0793L24.2067 48L40.0131 41.0793Z"
				fill="#FFFFFF"/>
			<path
				d="M39.3027 40.3138V14.5394C39.3027 8.70043 33.2605 1.0671 24.2051 1.07618C15.1496 1.06706 9.10742 8.70043 9.10742 14.5394V40.3138L24.2051 46.9241L39.3027 40.3138Z"
				fill="#0A080C"/>
			<path
				d="M37.7149 38.4967V15.1425C37.7149 9.85173 32.309 2.93515 24.2071 2.94337C16.1052 2.93526 10.6992 9.85173 10.6992 15.1425V38.4967L24.2071 44.4864L37.7149 38.4967Z"
				fill="#FFFFFF"/>
			<path
				d="M24.2072 2.94337C16.1053 2.93526 10.6992 9.85166 10.6992 15.1424V38.4966L24.2072 44.4863L24.2984 44.4458V2.94441C24.268 2.94426 24.2378 2.94441 24.2072 2.94441V2.94337Z"
				fill="#FFFFFF"/>
			<path
				d="M34.8535 38.7902L36.1519 38.2414V30.5752C35.7659 29.9629 35.3319 29.3794 34.8535 28.8296V38.7902Z"
				fill="#0A080C"/>
			<path
				d="M34.8477 28.8096V38.8009L34.8579 38.7968L36.1607 38.2459V30.5728L36.1592 30.5711C35.773 29.9585 35.339 29.3747 34.8604 28.8246L34.8477 28.8096ZM34.8624 28.8499C35.3348 29.3944 35.7643 29.9716 36.1462 30.5772V38.2361L34.8624 38.7787V28.8499Z"
				fill="#0A080C"/>
			<path
				d="M27.9551 23.9438V41.4835L34.0402 38.7852V28.336C32.4213 26.3751 30.326 24.8628 27.9551 23.9438Z"
				fill="#0A080C"/>
			<path
				d="M27.9492 23.9331V23.9439V41.4952L34.0496 38.7903V28.3335L34.0476 28.3312C32.4279 26.3694 30.3316 24.8563 27.9595 23.9369L27.9492 23.9331ZM27.9643 23.9559C30.3289 24.8745 32.4188 26.3831 34.0343 28.3391V38.7806L27.9643 41.4721V23.9559Z"
				fill="#0A080C"/>
			<path
				d="M13.6409 38.8753V28.637C13.9661 28.2741 14.3104 27.9272 14.6724 27.5976C15.0344 27.2679 15.4137 26.9559 15.8087 26.6627C16.2038 26.3695 16.6142 26.0956 17.0383 25.8419C17.4443 25.6003 17.8624 25.3775 18.291 25.1743C15.7389 26.3789 13.604 28.2576 12.1406 30.5864V38.2412L13.6409 38.8753Z"
				fill="#0A080C"/>
			<path
				d="M18.2897 25.168C17.8913 25.3561 17.507 25.5661 17.1298 25.7862C17.0994 25.804 17.0668 25.8178 17.0365 25.8358C16.9964 25.8598 16.9601 25.8891 16.9202 25.9134C14.9732 27.0926 13.329 28.6845 12.1362 30.5827L12.1348 30.5844V38.2462L13.6499 38.8867V38.8756V28.6401C13.9745 28.2782 14.3179 27.9321 14.679 27.6032C15.0408 27.2737 15.4199 26.962 15.8148 26.669C16.1733 26.4029 16.5481 26.1577 16.9307 25.9241C16.9988 25.8829 17.0659 25.8404 17.1348 25.8002C17.5077 25.5817 17.8887 25.3755 18.2805 25.1892C18.2857 25.1868 18.2906 25.1838 18.2958 25.1813L18.2897 25.168ZM16.6335 26.1049C16.4921 26.1959 16.3523 26.2889 16.2142 26.3844C16.3527 26.2894 16.4915 26.1955 16.6335 26.1049ZM15.6636 26.7744C15.3475 27.0152 15.0395 27.2653 14.745 27.5299C15.0405 27.2665 15.3464 27.0141 15.6636 26.7744ZM14.5229 27.7398C14.2426 28.0024 13.9707 28.2729 13.7131 28.556C13.972 28.2736 14.2417 28.0013 14.5229 27.7398ZM13.6355 28.6406V38.8647L12.1498 38.2364V30.5889C12.5856 29.8957 13.0874 29.248 13.6355 28.6406Z"
				fill="#0A080C"/>
			<path
				d="M20.5244 41.5731V23.8853C20.4713 23.904 20.4182 23.9229 20.3652 23.9422C20.0078 24.0809 19.6558 24.2333 19.3102 24.3991C19.2363 24.4328 19.1628 24.467 19.0895 24.5019C18.6609 24.715 18.2429 24.9487 17.8369 25.2022C17.4128 25.4683 17.0024 25.7557 16.6073 26.0633C16.2122 26.3708 15.833 26.6981 15.471 27.044C15.109 27.3898 14.7647 27.7538 14.4395 28.1344V38.8749L20.5244 41.5731Z"
				fill="#0A080C"/>
			<path
				d="M20.5331 23.8745L20.5232 23.8778C20.4699 23.8965 20.4169 23.9156 20.3639 23.9349C20.0063 24.0735 19.6542 24.2263 19.3084 24.3922C19.2346 24.4258 19.1611 24.4601 19.0879 24.4949C18.6591 24.7082 18.2409 24.9419 17.8347 25.1956C17.4104 25.4618 16.9999 25.7494 16.6046 26.0571C16.2094 26.3648 15.83 26.6923 15.4678 27.0384C15.1056 27.3844 14.761 27.7485 14.4356 28.1293L14.4336 28.1313V38.8795L20.5337 41.5844V41.573L20.5331 23.8745ZM20.5181 23.8957V41.5613L14.4483 38.8698V28.1371C14.7729 27.7575 15.1163 27.3943 15.4774 27.0493C15.8393 26.7036 16.2183 26.3765 16.6132 26.0691C17.0081 25.7617 17.4183 25.4744 17.8422 25.2084C18.248 24.9551 18.6656 24.7214 19.094 24.5084C19.1672 24.4735 19.2406 24.4393 19.3144 24.4056C19.6599 24.2399 20.0116 24.0877 20.3689 23.9491C20.4185 23.931 20.468 23.9132 20.5178 23.8957H20.5181Z"
				fill="#0A080C"/>
			<path
				d="M21.166 23.2581V42.5133L24.2086 43.8625L27.2511 42.5134V23.2566C26.2507 23.0451 25.2311 22.9375 24.2085 22.9355C23.186 22.938 22.1664 23.0461 21.166 23.2581Z"
				fill="#0A080C"/>
			<path
				d="M24.2063 22.9277C23.1832 22.9302 22.163 23.0386 21.1621 23.2506L21.1562 23.2521V23.2582V42.5183L24.2063 43.8709L27.2564 42.5186V23.2507L27.2505 23.2493C26.2496 23.0377 25.2294 22.93 24.2063 22.928L24.2063 22.9277ZM24.2063 22.943C25.2263 22.945 26.2433 23.0524 27.2413 23.2629V42.5082L24.2063 43.8541L21.1713 42.5082V23.2646C22.1693 23.0535 23.1862 22.9455 24.2063 22.943Z"
				fill="#0A080C"/>
			<path
				d="M30.9371 16.1709C31.815 15.6761 32.8003 14.7885 33.4518 13.9053C33.991 13.1745 34.0423 13.0304 33.7634 13.0304C33.6624 13.0304 33.1448 12.8266 32.6131 12.5774C31.775 12.1847 31.4602 11.943 30.2488 10.7621C29.3943 9.929 28.7002 9.34877 28.4621 9.26854C28.2481 9.19637 27.7153 8.7766 27.3205 8.90073L26.568 9.13735L27.2803 9.85606C28.0344 10.6169 28.095 10.7418 27.8209 10.9694C27.7264 11.0478 27.6491 11.1504 27.6491 11.1974C27.6491 11.3791 29.2964 12.916 29.4911 12.916C29.6042 12.916 29.7213 12.9558 29.7514 13.0045C29.7813 13.0532 29.868 13.839 29.9435 14.7507C30.019 15.6624 30.1139 16.4449 30.1542 16.4895C30.1943 16.5342 30.5468 16.3908 30.9371 16.1709Z"
				fill="#0A080C"/>
			<path
				d="M25.1942 15.9752L28.9258 12.7008L28.3396 12.177L27.7734 11.6094L26.8253 12.5211C26.3038 13.0226 26.4549 13.3771 24.0295 14.8825L25.1942 15.9752Z"
				fill="#0A080C"/>
			<path
				d="M30.8686 10.5084L29.9114 9.55428C29.8301 9.47327 29.6994 9.47346 29.6184 9.55474L29.5108 9.66269C29.4298 9.74396 29.43 9.80288 29.5113 9.88391L30.4686 10.8381C30.5499 10.9191 30.6805 10.9906 30.7615 10.9093L30.8691 10.8014C30.95 10.7201 30.9499 10.5895 30.8686 10.5084Z"
				fill="#0A080C"/>
			<path
				d="M17.4809 16.2387C16.6029 15.7439 15.6177 14.8564 14.9662 13.9732C14.427 13.2423 14.3757 13.0983 14.6546 13.0983C14.7555 13.0983 15.2732 12.8945 15.8049 12.6453C16.643 12.2526 16.9578 12.0109 18.1691 10.8299C19.0237 9.99688 19.7178 9.41665 19.9558 9.33641C20.1699 9.26424 20.7026 8.84447 21.0975 8.96861L21.85 9.20522L21.1377 9.92393C20.3836 10.6848 20.3229 10.8097 20.5971 11.0373C20.6916 11.1157 20.7688 11.2183 20.7688 11.2653C20.7688 11.447 19.1216 12.9838 18.9269 12.9838C18.8138 12.9838 18.6967 13.0237 18.6666 13.0724C18.6367 13.1211 18.55 13.9069 18.4745 14.8186C18.399 15.7303 18.3041 16.5127 18.2637 16.5574C18.2236 16.602 17.8712 16.4586 17.4809 16.2387Z"
				fill="#0A080C"/>
			<path
				d="M24.1079 17.4208L19.4922 12.7682L20.0783 12.2444L20.6446 11.6768L21.5927 12.5885C22.1142 13.0899 23.8656 15.583 26.2909 17.0884C28.2896 18.329 30.1106 20.5954 30.1365 20.6825C30.3295 21.333 29.4385 22.3531 28.8149 22.0295C28.7605 22.0014 26.6356 19.9556 24.1079 17.4208Z"
				fill="#0A080C"/>
			<path
				d="M17.5494 10.5763L18.5066 9.62215C18.5879 9.54114 18.7186 9.54133 18.7995 9.62261L18.9071 9.73056C18.9882 9.81183 18.988 9.87075 18.9067 9.95178L17.9493 10.9059C17.8681 10.987 17.7375 11.0585 17.6564 10.9771L17.5489 10.8692C17.4679 10.788 17.4681 10.6573 17.5494 10.5763Z"
				fill="#0A080C"/>
			<path
				d="M30.7792 16.2387C31.6572 15.7439 32.6425 14.8564 33.294 13.9732C33.8332 13.2423 33.8844 13.0983 33.6055 13.0983C33.5046 13.0983 32.987 12.8945 32.4553 12.6453C31.6172 12.2526 31.3024 12.0109 30.0911 10.8299C29.2365 9.99688 28.5424 9.41665 28.3044 9.33641C28.0903 9.26424 27.5576 8.84447 27.1627 8.96861L26.4102 9.20522L27.1225 9.92393C27.8766 10.6848 27.9373 10.8097 27.6631 11.0373C27.5686 11.1157 27.4914 11.2183 27.4914 11.2653C27.4914 11.447 29.1386 12.9838 29.3332 12.9838C29.4463 12.9838 29.5635 13.0237 29.5936 13.0724C29.6235 13.1211 29.7102 13.9069 29.7857 14.8186C29.8612 15.7303 29.9561 16.5127 29.9965 16.5574C30.0366 16.602 30.389 16.4586 30.7792 16.2387Z"
				fill="#0A080C"/>
			<path
				d="M22.4564 16.1646C22.1989 16.3569 22.0563 16.485 21.7805 16.6562C19.7818 17.8968 17.9609 20.1633 17.935 20.2505C17.742 20.9009 18.633 21.9208 19.2566 21.5973C19.309 21.5702 21.1669 19.7631 23.5644 17.365L22.4564 16.1646Z"
				fill="#0A080C"/>
			<path
				d="M30.7094 10.5763L29.7521 9.62215C29.6708 9.54114 29.5402 9.54133 29.4592 9.62261L29.3517 9.73056C29.2707 9.81183 29.2708 9.87075 29.3521 9.95178L30.3094 10.9059C30.3906 10.987 30.5212 11.0585 30.6023 10.9771L30.71 10.8692C30.7909 10.788 30.7907 10.6573 30.7094 10.5763Z"
				fill="#0A080C"/>
			<path
				d="M24.1079 17.4208L19.4922 12.7682L20.0783 12.2444L20.6446 11.6768L21.5927 12.5885C22.1142 13.0899 23.8656 15.583 26.2909 17.0884C28.2896 18.329 30.1106 20.5954 30.1365 20.6825C30.3295 21.333 29.4385 22.3531 28.8149 22.0295C28.7605 22.0014 26.6356 19.9556 24.1079 17.4208Z"
				fill="#0A080C"/>
		</svg>
	