
		<svg width="100%" height="100%" viewBox="0 0 48 48" fill="none" xmlns="http://www.w3.org/2000/svg">
			<path
				d="M31.1815 43.8716L38.3119 39.7559L38.3151 22.5718L38.3181 5.38784L35.857 3.96568L33.396 2.54354L32.162 3.25599C30.9308 3.96695 30.9279 3.96833 30.7887 3.90107C30.7119 3.864 29.1574 2.97109 27.3341 1.91685C25.5109 0.86255 23.9877 0 23.9493 0C23.9109 0 22.3347 0.89274 20.4465 1.98382C18.457 3.13342 16.9853 3.95691 16.9468 3.94216C16.9102 3.92806 16.3457 3.60761 15.6925 3.22997L14.5047 2.54335L13.9521 2.86192C13.6482 3.03711 12.5496 3.67175 11.5107 4.27218L9.62196 5.36387L9.61078 22.5599L9.59961 39.756L15.9799 43.4425C19.4891 45.4701 22.6996 47.3278 23.1142 47.5708C23.5429 47.8219 23.9083 48.007 23.9613 47.9998C24.0126 47.9931 27.2632 46.1352 31.185 43.8716L31.1815 43.8716Z"
				fill="#FFFFFF"/>
			<path
				d="M30.6634 42.4181L37.2724 38.6035L37.2754 22.6765L37.2784 6.74957L34.9973 5.43143L32.7163 4.11329L31.5726 4.77365C30.4315 5.43262 30.4287 5.4339 30.2997 5.37153C30.2286 5.33722 28.7878 4.50962 27.0979 3.53247C25.408 2.55532 23.9963 1.75586 23.9607 1.75586C23.9251 1.75586 22.4641 2.58324 20.7141 3.59454C18.8702 4.66003 17.5062 5.4233 17.4704 5.40961C17.4365 5.39657 16.9133 5.09955 16.3078 4.74954L15.2069 4.11318L14.6948 4.40838C14.4131 4.57079 13.3949 5.159 12.432 5.7155L10.6814 6.72734L10.6708 22.6654L10.6602 38.6035L16.5738 42.0204C19.8263 43.8997 22.8018 45.6215 23.1861 45.8466C23.5834 46.0794 23.9221 46.2509 23.9712 46.2443C24.0188 46.2382 27.0316 44.516 30.6665 42.4181L30.6634 42.4181Z"
				fill="#0A080C"/>
			<rect x="23.8691" y="39.1763" width="0.258823" height="3.10588" fill="#FFFFFF"/>
			<rect
				x="22.8086"
				y="39.7227"
				width="0.258823"
				height="3.10588"
				transform="rotate(-45 22.8086 39.7227)"
				fill="#FFFFFF"/>
			<rect
				x="22.4473"
				y="40.8584"
				width="0.258823"
				height="3.10588"
				transform="rotate(-90 22.4473 40.8584)"
				fill="#FFFFFF"/>
			<rect
				x="22.9941"
				y="41.9189"
				width="0.258823"
				height="3.10588"
				transform="rotate(-135 22.9941 41.9189)"
				fill="#FFFFFF"/>
			<rect x="23.8691" y="33.3877" width="0.258823" height="3.10588" fill="#FFFFFF"/>
			<rect
				x="22.8086"
				y="33.9341"
				width="0.258823"
				height="3.10588"
				transform="rotate(-45 22.8086 33.9341)"
				fill="#FFFFFF"/>
			<rect
				x="22.4473"
				y="35.0698"
				width="0.258823"
				height="3.10588"
				transform="rotate(-90 22.4473 35.0698)"
				fill="#FFFFFF"/>
			<rect
				x="22.9941"
				y="36.1304"
				width="0.258823"
				height="3.10588"
				transform="rotate(-135 22.9941 36.1304)"
				fill="#FFFFFF"/>
			<rect x="30.8574" y="33.3877" width="0.258823" height="3.10588" fill="#FFFFFF"/>
			<rect
				x="29.7969"
				y="33.9341"
				width="0.258824"
				height="3.10588"
				transform="rotate(-45 29.7969 33.9341)"
				fill="#FFFFFF"/>
			<rect
				x="29.4355"
				y="35.0698"
				width="0.258823"
				height="3.10588"
				transform="rotate(-90 29.4355 35.0698)"
				fill="#FFFFFF"/>
			<rect
				x="29.9824"
				y="36.1304"
				width="0.258823"
				height="3.10588"
				transform="rotate(-135 29.9824 36.1304)"
				fill="#FFFFFF"/>
			<rect x="30.8574" y="27.6001" width="0.258823" height="3.10588" fill="#FFFFFF"/>
			<rect
				x="29.7969"
				y="28.1465"
				width="0.258824"
				height="3.10588"
				transform="rotate(-45 29.7969 28.1465)"
				fill="#FFFFFF"/>
			<rect
				x="29.4355"
				y="29.2822"
				width="0.258823"
				height="3.10588"
				transform="rotate(-90 29.4355 29.2822)"
				fill="#FFFFFF"/>
			<rect
				x="29.9824"
				y="30.3428"
				width="0.258823"
				height="3.10588"
				transform="rotate(-135 29.9824 30.3428)"
				fill="#FFFFFF"/>
			<path
				d="M23.9492 2.69727C23.9151 2.69727 22.5141 3.49072 20.8358 4.46056C19.0675 5.48238 17.7593 6.21437 17.7251 6.20122C17.7128 6.1967 17.5853 6.12465 17.4639 6.05633L11.2119 11.1827L11.209 15.6104L25.7345 3.69985C24.7596 3.14204 23.9734 2.69727 23.9492 2.69727H23.9492Z"
				fill="#FFFFFF"/>
			<path
				d="M23.9492 2.69727C23.9151 2.69727 22.5141 3.49072 20.8358 4.46056C19.0675 5.48238 17.7593 6.21437 17.7251 6.20122C17.7128 6.1967 17.5853 6.12465 17.4639 6.05633L11.2119 11.1827L11.209 15.6104L25.7345 3.69985C24.7596 3.14204 23.9734 2.69727 23.9492 2.69727H23.9492Z"
				fill="#FFFFFF"/>
			<path
				d="M27.8185 4.89746L11.2062 18.5189L11.2033 22.7493L11.2031 22.9464L32.8123 5.22777L32.3448 4.95771L31.2481 5.59096C30.1537 6.22286 30.1511 6.22419 30.0274 6.1644C29.973 6.13835 28.9965 5.57698 27.8184 4.89746H27.8185Z"
				fill="#FFFFFF"/>
			<path
				d="M27.8185 4.89746L11.2062 18.5189L11.2033 22.7493L11.2031 22.9464L32.8123 5.22777L32.3448 4.95771L31.2481 5.59096C30.1537 6.22286 30.1511 6.22419 30.0274 6.1644C29.973 6.13835 28.9965 5.57698 27.8184 4.89746H27.8185Z"
				fill="#FFFFFF"/>
			<path
				d="M35.4165 6.73291L11.2005 26.5891L11.1973 31.0167L36.7191 10.09V7.48597L35.4165 6.73291Z"
				fill="#FFFFFF"/>
			<path
				d="M35.4165 6.73291L11.2005 26.5891L11.1973 31.0167L36.7191 10.09V7.48597L35.4165 6.73291Z"
				fill="#FFFFFF"/>
			<path
				d="M36.7197 13.2422L11.1963 34.1702L11.1934 38.034L11.5965 38.267L36.7186 17.6678L36.7197 13.2422Z"
				fill="#FFFFFF"/>
			<path
				d="M36.7197 13.2422L11.1963 34.1702L11.1934 38.034L11.5965 38.267L36.7186 17.6678L36.7197 13.2422Z"
				fill="#FFFFFF"/>
		</svg>
	